<svg version="1.1" id="Layer_1" x="0px" y="0px" viewBox="-1 0 70 70" enable-background="new -1 0 70 70" xml:space="preserve" width="62" height="62">
<g fill="#231F20">
	<path d="M57.444,27.243c-0.288-5.968-5.149-10.618-11.141-10.618c-6.003,0-10.872,4.669-11.142,10.654   c-0.011,0.05-0.017,0.103-0.017,0.156l-0.002,0.228c-0.001,0.018-0.005,0.109-0.005,0.127l0.007,0.15l-0.002,14.144   c-0.001,0.018-0.005,0.109-0.005,0.127c0,6.157,5.009,11.166,11.165,11.166s11.165-5.009,11.165-11.166V27.435   C57.469,27.368,57.46,27.304,57.444,27.243z M55.969,42.21c0,5.33-4.336,9.666-9.665,9.666s-9.665-4.336-9.663-9.689   c0.001-0.018,0.005-0.108,0.005-0.126V27.94l-0.005-0.174c0.001-0.018,0.005-0.109,0.005-0.127v-0.077   c0.006-0.033,0.009-0.067,0.011-0.102c0.176-5.235,4.414-9.336,9.647-9.336s9.472,4.101,9.647,9.336   c0.002,0.046,0.008,0.091,0.018,0.134V42.21z"></path>
	<path d="M46.304,19.828c-4.202,0-7.662,3.256-7.934,7.438c-0.013,0.054-0.02,0.11-0.02,0.169l-0.002,0.219   c-0.001,0.018-0.006,0.117-0.006,0.136c0,0.046,0.003,0.091,0.008,0.15l-0.002,14.134c-0.001,0.019-0.006,0.118-0.006,0.137   c0,4.39,3.571,7.961,7.961,7.961c4.389,0,7.96-3.571,7.96-7.961V27.435c0-0.071-0.01-0.14-0.028-0.205   C53.946,23.066,50.494,19.828,46.304,19.828z M52.764,42.21c0,3.563-2.897,6.461-6.46,6.461s-6.461-2.898-6.459-6.486   c0.001-0.019,0.006-0.105,0.006-0.124V27.925c0-0.014-0.005-0.147-0.006-0.161c0.001-0.019,0.006-0.106,0.006-0.125v-0.077   c0.005-0.029,0.009-0.06,0.01-0.091c0.168-3.444,2.998-6.143,6.443-6.143s6.275,2.698,6.443,6.143   c0.002,0.042,0.008,0.083,0.017,0.123V42.21z"></path>
	<path d="M46.304,23.034c-2.396,0-4.377,1.755-4.693,4.118c-0.036,0.087-0.056,0.183-0.056,0.283l0.004,0.214   c-0.007,0.046-0.011,0.093-0.004,0.215l0.004,14.206c-0.005,0.034-0.011,0.105-0.011,0.141c0,2.622,2.134,4.756,4.756,4.756   s4.756-2.134,4.756-4.756V27.435c0-0.11-0.023-0.216-0.066-0.31C50.666,24.776,48.691,23.034,46.304,23.034z M49.56,42.21   c0,1.795-1.461,3.256-3.256,3.256s-3.256-1.461-3.26-3.189c0.005-0.034,0.011-0.105,0.011-0.141V27.864   c0-0.017-0.002-0.045-0.004-0.073c0.002-0.028,0.004-0.057,0.004-0.075v-0.076c0.013-0.044,0.021-0.09,0.025-0.138   c0.151-1.691,1.537-2.968,3.224-2.968s3.072,1.275,3.223,2.968c0.005,0.055,0.017,0.107,0.033,0.158V42.21z"></path>
	<path d="M33.346,17.744H13.281c-0.414,0-0.75,0.336-0.75,0.75v3.065c0,0.414,0.336,0.75,0.75,0.75h15.482v6.686   l-8.864,22.881h-2.223l8.704-22.47c0.033-0.086,0.051-0.178,0.051-0.271v-4.511c0-0.414-0.336-0.75-0.75-0.75h-12.4   c-0.414,0-0.75,0.336-0.75,0.75s0.336,0.75,0.75,0.75h11.65v3.62l-9.049,23.36c-0.09,0.23-0.06,0.49,0.08,0.694   c0.141,0.204,0.372,0.326,0.619,0.326h3.831c0.31,0,0.588-0.19,0.699-0.479l9.101-23.49c0.033-0.086,0.051-0.178,0.051-0.271V21.56   c0-0.414-0.336-0.75-0.75-0.75H14.031v-1.565h18.564v9.751l-9.05,23.36c-0.149,0.386,0.042,0.82,0.429,0.97   c0.089,0.034,0.181,0.051,0.271,0.051c0.301,0,0.584-0.182,0.699-0.479l9.101-23.49c0.033-0.086,0.051-0.178,0.051-0.271V18.494   C34.096,18.08,33.76,17.744,33.346,17.744z"></path>
</g>
</svg>