<svg version="1.1" id="Layer_1" x="0px" y="0px" viewBox="-1 0 70 70" enable-background="new -1 0 70 70" xml:space="preserve" width="62" height="62">
	 <g stroke="#000000">
<path fill-rule="evenodd" clip-rule="evenodd" fill="none" stroke-width="1.5" stroke-linecap="round" stroke-linejoin="round" stroke-miterlimit="10" d="  M20.594,31.125c6.956,0,12.594,5.639,12.594,12.594S27.55,56.314,20.594,56.314S8,50.675,8,43.719c0-3.384,1.335-6.456,3.506-8.719"></path>
<circle fill-rule="evenodd" clip-rule="evenodd" fill="none" stroke-width="1.5" stroke-linecap="round" stroke-linejoin="round" stroke-miterlimit="10" cx="20.594" cy="43.719" r="4.844"></circle>
<path fill-rule="evenodd" clip-rule="evenodd" fill="none" stroke-width="1.5" stroke-linecap="round" stroke-linejoin="round" stroke-miterlimit="10" d="  M20.594,35c4.816,0,8.719,3.904,8.719,8.719s-3.904,8.719-8.719,8.719s-8.719-3.904-8.719-8.719c0-2.503,1.055-4.76,2.744-6.35"></path>
<path fill-rule="evenodd" clip-rule="evenodd" fill="none" stroke-width="1.5" stroke-linecap="round" stroke-linejoin="round" stroke-miterlimit="10" d="  M20.594,38.875C13.639,38.875,8,33.236,8,26.281s5.639-12.594,12.594-12.594s12.594,5.639,12.594,12.594  c0,3.384-1.335,6.457-3.507,8.72"></path>
<circle fill-rule="evenodd" clip-rule="evenodd" fill="none" stroke-width="1.5" stroke-linecap="round" stroke-linejoin="round" stroke-miterlimit="10" cx="20.594" cy="26.281" r="4.844"></circle>
<path fill-rule="evenodd" clip-rule="evenodd" fill="none" stroke-width="1.5" stroke-linecap="round" stroke-linejoin="round" stroke-miterlimit="10" d="  M20.594,35c-4.816,0-8.719-3.904-8.719-8.719s3.904-8.719,8.719-8.719s8.719,3.904,8.719,8.719c0,2.503-1.055,4.76-2.744,6.35"></path>
<path fill-rule="evenodd" clip-rule="evenodd" fill="none" stroke-width="1.5" stroke-linecap="round" stroke-linejoin="round" stroke-miterlimit="10" d="  M61.978,25.852c-0.228-6.755-5.762-12.166-12.573-12.166c-6.811,0-12.345,5.411-12.573,12.166H36.82v0.247  c-0.001,0.061-0.009,0.12-0.009,0.181c0,0.061,0.008,0.12,0.009,0.181v17.076c-0.001,0.061-0.009,0.12-0.009,0.181  c0,6.956,5.639,12.594,12.595,12.594C56.361,56.314,62,50.675,62,43.719V25.852H61.978z"></path>
<path fill-rule="evenodd" clip-rule="evenodd" fill="none" stroke-width="1.5" stroke-linecap="round" stroke-linejoin="round" stroke-miterlimit="10" d="  M58.103,25.852c-0.225-4.615-4.027-8.291-8.698-8.291s-8.473,3.676-8.698,8.291h-0.013v0.247c-0.001,0.061-0.009,0.12-0.009,0.181  c0,0.061,0.008,0.12,0.009,0.181v17.076c-0.001,0.061-0.009,0.12-0.009,0.181c0,4.815,3.904,8.719,8.719,8.719  s8.719-3.904,8.719-8.719V25.852H58.103z"></path>
<path fill-rule="evenodd" clip-rule="evenodd" fill="none" stroke-width="1.5" stroke-linecap="round" stroke-linejoin="round" stroke-miterlimit="10" d="  M54.206,25.852c-0.22-2.471-2.272-4.415-4.801-4.415c-2.528,0-4.581,1.944-4.801,4.415h-0.034v0.339  c-0.001,0.031-0.009,0.059-0.009,0.09c0,0.031,0.008,0.059,0.009,0.09V43.63c-0.001,0.031-0.009,0.059-0.009,0.09  c0,2.675,2.169,4.844,4.844,4.844c2.675,0,4.844-2.169,4.844-4.844V25.852H54.206z"></path>
	</g>
</svg>