<svg version="1.1" id="Layer_1" x="0px" y="0px" viewBox="0 0 70 70" style="enable-background:new 0 0 70 70;" xml:space="preserve" width="63" height="63">

<g>
	<g>
		<path class="st0" d="M40,23.9c-0.2,0-0.4-0.1-0.5-0.2c-0.2-0.1-0.2-0.3-0.2-0.6v-7.3l-23.4,2.3V20h-0.5v-2.4l24.4-2.4v7.9    c0,0.1,0,0.1,0.1,0.2c0,0,0.1,0.1,0.2,0.1l14.9-1.4l0,0.5L40,23.9C40,23.9,40,23.9,40,23.9z"></path>
	</g>
	<g>
		<path class="st0" d="M30.7,49.8h-0.5v-2.3L44.9,46c0.1,0,0.2-0.1,0.2-0.2v-4.2c0-0.1,0-0.1-0.1-0.2c-0.1,0-0.1-0.1-0.2-0.1    l-29.5,2.8V29.6L30,28.2c0.1,0,0.2-0.1,0.2-0.2v-4.2c0-0.1,0-0.1-0.1-0.2c-0.1,0-0.1-0.1-0.2-0.1l-14.9,1.4l0-0.5L29.9,23    c0.2,0,0.4,0,0.6,0.2c0.2,0.1,0.2,0.3,0.2,0.6v4.2c0,0.4-0.3,0.7-0.7,0.7L15.9,30v13.6l29-2.8c0.2,0,0.4,0.1,0.6,0.2    c0.2,0.1,0.2,0.3,0.2,0.6v4.2c0,0.4-0.3,0.7-0.7,0.7l-14.2,1.4V49.8z"></path>
	</g>
	<g>
		<path class="st0" d="M30,54.8l0-0.5l24.2-2.3V36l-29,2.8c-0.2,0-0.4-0.1-0.6-0.2c-0.2-0.1-0.2-0.3-0.2-0.6v-4.2    c0-0.4,0.3-0.7,0.7-0.7l29.1-2.8v-2.9h0.5v3.4l-0.2,0l-29.3,2.8c-0.1,0-0.2,0.1-0.2,0.2V38c0,0.1,0,0.1,0.1,0.2    c0,0,0.1,0.1,0.2,0.1l29.5-2.8v16.9L30,54.8z"></path>
	</g>
</g>
</svg>