<svg version="1.1" id="Layer_1" x="0px" y="0px" viewBox="0 0 70 70" enable-background="new 0 0 70 70" xml:space="preserve" width="62" height="62">
<g>
	<path fill="#231F20" d="M54.129,30.855l3.862-13.283h-8.416l-3.862,13.283h-7.577l3.704-6.76l-4.777-6.524h-7.628v0l-7.549,0   l-4.092,14.075l-6.544,6.615h4.621l-4.054,13.945h4.09h3.458h5.886h1.597l8.663-6.343l1.106-7.615h6.945l-4.058,13.958l6.02,8.221   h0.006l6.674-22.958l6.544-6.615H54.129z M27.308,44.971h-5.838l1.951-6.709h5.838L27.308,44.971z M31.408,30.869h-5.838   l1.762-6.061h5.838L31.408,30.869z"></path>
</g>
</svg>