<svg version="1.1" xml:space="preserve" width="62" height="62" viewBox="0 0 500 500">
  <g id="brks">
    <path class="fil1" d="M274 281l-47 0c-3,0 -5,2 -5,4 0,3 2,5 5,5l47 0c2,0 4,-2 4,-5 0,-2 -2,-4 -4,-4z"></path>
    <path class="fil1" d="M168 293c0,-12 -10,-22 -22,-22 -12,0 -22,10 -22,22 0,12 10,22 22,22 12,0 22,-10 22,-22zm-35 0c0,-7 6,-13 13,-13 8,0 14,6 14,13 0,8 -6,14 -14,14 -7,0 -13,-6 -13,-14z"></path>
    <path class="fil1" d="M414 293c0,-22 -12,-41 -30,-52l0 -14c0,-14 -11,-24 -25,-24l-1 0 0 -37c0,-10 -8,-19 -19,-19l-178 0c-10,0 -19,9 -19,19l0 36 -1 0c-14,0 -25,11 -25,25l0 14c-18,10 -30,30 -30,52 0,31 23,56 53,60 1,0 1,0 2,0l218 0c1,0 1,0 2,0 30,-4 53,-29 53,-60zm-263 -127c0,-6 5,-11 11,-11l177 0c6,0 11,5 11,11l0 36 -38 0 0 0 -161 0 0 -36 0 0zm150 45l-24 23 -54 0 -24 -23 102 0zm-206 82c0,-28 23,-51 51,-51 29,0 52,23 52,51 0,29 -23,52 -52,52 -28,0 -51,-24 -51,-52zm82 52c18,-11 29,-30 29,-52 0,-33 -27,-60 -60,-60 -7,0 -14,2 -21,4l0 -10c0,-9 7,-16 16,-16l45 0 32 30c1,1 2,2 3,2l58 0c1,0 2,-1 3,-2l32 -30 45 0c9,0 16,7 16,16l0 10c-7,-2 -14,-4 -21,-4 -33,0 -60,27 -60,60 0,22 11,41 29,52l-146 0zm177 0c-29,0 -52,-23 -52,-52 0,-28 23,-51 52,-51 28,0 51,23 51,51 0,29 -23,52 -51,52z"></path>
    <path class="fil1" d="M354 271c-12,0 -22,10 -22,22 0,12 10,22 22,22 12,0 22,-10 22,-22 0,-12 -10,-22 -22,-22zm0 36c-8,0 -14,-6 -14,-14 0,-7 6,-13 14,-13 7,0 13,6 13,13 0,8 -6,14 -13,14z"></path>
   </g>
</svg>