<svg version="1.1" id="Layer_1" x="0px" y="0px" viewBox="0 0 70 70" style="enable-background:new 0 0 70 70;" xml:space="preserve" width="62" height="62">
<g>
	<g>
		<path class="st0" d="M18,43.8c-0.1-0.1-0.1-0.1-0.2-0.1c-0.1,0-0.1,0-0.2,0.1c-0.1,0.1-0.1,0.3,0,0.4l5.6,5.6    c0.1,0.1,0.2,0.2,0.4,0c0.1-0.1,0.1-0.3,0-0.4L18,43.8z"></path>
		<path class="st0" d="M23.4,42.5c-0.1-0.1-0.1-0.1-0.2-0.1s-0.1,0-0.2,0.1c-0.1,0.1-0.1,0.3,0,0.4l3.6,3.6c0.1,0.1,0.3,0.1,0.4,0    c0.1-0.1,0.1-0.3,0-0.4L23.4,42.5z"></path>
		<path class="st0" d="M26.8,39C26.8,39,26.7,39,26.6,39c-0.1,0-0.1,0-0.2,0.1c-0.1,0.1-0.1,0.2-0.1,0.2c0,0,0,0.1,0.1,0.2l3.6,3.6    c0.1,0.1,0.3,0.1,0.4,0c0.1-0.1,0.1-0.2,0.1-0.2c0,0,0-0.1-0.1-0.2L26.8,39z"></path>
	</g>
	<path d="M35.9,36l20.9-19.4c0.1-0.1,0.1-0.3,0-0.4l-1.4-1.5c-0.1-0.1-0.2-0.1-0.3-0.1L53.9,15l-1-0.8c-0.1-0.1-0.3-0.1-0.4,0   c-0.1,0.1-0.1,0.3,0,0.4l0.7,0.6l-1.2,0.3l-1-0.8c-0.1-0.1-0.3-0.1-0.4,0c-0.1,0.1-0.1,0.3,0,0.4l0.7,0.6l-1.1,0.3l-1-0.8   c-0.1-0.1-0.3-0.1-0.4,0c-0.1,0.1-0.1,0.3,0,0.4l0.7,0.6l-1.6,0.4c-0.1,0-0.2,0.1-0.2,0.2l-0.2,3.1L36.7,30.2c0,0,0,0,0-0.1   l-0.8-0.8c-1.1-1.2-2.7-1.8-4.3-1.8c-1.6,0-3.2,0.6-4.3,1.8c-0.5,0.5-1,1.2-1.3,1.9l-0.1,0.2c-0.8,1.7-2.4,3-4.3,3.3l-1,0.1   c-4.5,0.6-8.1,4.2-8.7,8.7c-0.5,3.2,0.6,6.4,2.9,8.7l2.6,2.6l0.2,0.1c1.8,1.5,4.1,2.3,6.5,2.3c0.5,0,1,0,1.4-0.1   c4.5-0.6,8-4.2,8.7-8.7l0.1-1c0.4-1.6,1.5-2.9,3-3.6l2.6-1.2c0.8-0.4,1.3-1.2,1.3-2.2c0-0.6-0.3-1.2-0.9-1.6   c-0.5-0.4-1.2-0.6-1.8-0.4c-0.6,0.1-2,0.4-2.4-0.5c-0.3-0.5-0.2-1.5-0.1-1.5C35.9,36.2,35.9,36.1,35.9,36z M32.1,39.2   c0.1,0.1,0.1,0.1,0.2,0.1c0.1,0,0.1,0,0.2-0.1l2.7-2.5c0,0.5,0.1,1.2,0.4,1.6c0.5,0.6,1.4,0.9,3,0.6c0.5-0.1,1,0,1.4,0.3   c0.4,0.3,0.6,0.7,0.7,1.2c0,0.7-0.3,1.3-1,1.6L37,43.2c-1.7,0.8-2.9,2.2-3.3,4l-0.1,1c-0.6,4.2-4,7.6-8.2,8.2   c-3,0.4-6.1-0.6-8.2-2.7l-2-2c-2.1-2.1-3.2-5.2-2.7-8.2c0.6-4.2,4-7.6,8.3-8.2l1-0.1c2.1-0.3,3.9-1.7,4.7-3.6l0.1-0.2   c0.3-0.6,0.7-1.2,1.2-1.7c2.2-2.2,5.7-2.2,7.8,0l0.8,0.8c0,0,0,0,0,0l-6.4,5.9c-0.1,0.1-0.1,0.3,0,0.4c0.1,0.1,0.3,0.1,0.4,0   l17.9-16.6c0.1,0,0.1-0.1,0.1-0.2l0.2-3l3.5-1c0,0,0,0,0,0c0,0,0.1,0,0.1,0l1.7-0.5c0,0,0,0,0,0c0,0,0.1,0,0.1-0.1l1.2-0.3l1.1,1.2   L32.1,38.8C32,38.9,32,39.1,32.1,39.2z"></path>
</g>
</svg>