<svg version="1.1" id="Layer_1" x="0px" y="0px" viewBox="-2 0 70 70" enable-background="new -2 0 70 70" xml:space="preserve" width="62" height="62">
	 <g stroke="#000000">
<path fill="none" stroke-width="1.5" stroke-linecap="round" stroke-linejoin="round" stroke-miterlimit="10" d="  M16.365,38.412c0-10.292,8.343-18.635,18.635-18.635s18.635,8.343,18.635,18.635"></path>
<line fill="none" stroke-width="1.5" stroke-linecap="round" stroke-linejoin="round" stroke-miterlimit="10" x1="6.5" y1="38.412" x2="63.5" y2="38.412"></line>
<g>
	
		<line fill="none" stroke-width="1.5" stroke-linecap="round" stroke-linejoin="round" stroke-miterlimit="10" x1="35" y1="16.215" x2="35" y2="9.912"></line>
</g>
<g>
	
		<line fill="none" stroke-width="1.5" stroke-linecap="round" stroke-linejoin="round" stroke-miterlimit="10" x1="54.223" y1="27.314" x2="59.682" y2="24.162"></line>
</g>
<g>
	
		<line fill="none" stroke-width="1.5" stroke-linecap="round" stroke-linejoin="round" stroke-miterlimit="10" x1="15.777" y1="27.314" x2="10.318" y2="24.162"></line>
</g>
<g>
	
		<line fill="none" stroke-width="1.5" stroke-linecap="round" stroke-linejoin="round" stroke-miterlimit="10" x1="46.099" y1="19.189" x2="49.25" y2="13.731"></line>
</g>
<g>
	
		<line fill="none" stroke-width="1.5" stroke-linecap="round" stroke-linejoin="round" stroke-miterlimit="10" x1="23.901" y1="19.189" x2="20.75" y2="13.731"></line>
</g>
<line fill="none" stroke-width="1.5" stroke-linecap="round" stroke-linejoin="round" stroke-miterlimit="10" x1="17.029" y1="44.304" x2="52.684" y2="44.304"></line>
<line fill="none" stroke-width="1.5" stroke-linecap="round" stroke-linejoin="round" stroke-miterlimit="10" x1="19.645" y1="49.021" x2="50.067" y2="49.021"></line>
<line fill="none" stroke-width="1.5" stroke-linecap="round" stroke-linejoin="round" stroke-miterlimit="10" x1="23.297" y1="53" x2="46.415" y2="53"></line>
<line fill="none" stroke-width="1.5" stroke-linecap="round" stroke-linejoin="round" stroke-miterlimit="10" x1="29.816" y1="56.313" x2="39.896" y2="56.313"></line>
<g>
	
		<line fill="none" stroke-width="1.5" stroke-linecap="round" stroke-linejoin="round" stroke-miterlimit="10" x1="29.255" y1="16.971" x2="27.624" y2="10.883"></line>
</g>
<g>
	
		<line fill="none" stroke-width="1.5" stroke-linecap="round" stroke-linejoin="round" stroke-miterlimit="10" x1="40.745" y1="16.971" x2="42.376" y2="10.883"></line>
</g>
<g>
	
		<line fill="none" stroke-width="1.5" stroke-linecap="round" stroke-linejoin="round" stroke-miterlimit="10" x1="19.304" y1="22.717" x2="14.847" y2="18.26"></line>
</g>
<g>
	
		<line fill="none" stroke-width="1.5" stroke-linecap="round" stroke-linejoin="round" stroke-miterlimit="10" x1="50.696" y1="22.717" x2="55.153" y2="18.26"></line>
</g>
<g>
	
		<line fill="none" stroke-width="1.5" stroke-linecap="round" stroke-linejoin="round" stroke-miterlimit="10" x1="13.559" y1="32.667" x2="7.471" y2="31.036"></line>
</g>
<g>
	
		<line fill="none" stroke-width="1.5" stroke-linecap="round" stroke-linejoin="round" stroke-miterlimit="10" x1="56.441" y1="32.667" x2="62.529" y2="31.036"></line>
</g>
</g>
</svg>