<svg version="1.1" xml:space="preserve" width="62" height="62" viewBox="0 0 500 500">
  <g id="chil">
   <path class="fil1" d="M370 212l0 -7c0,-29 -23,-53 -53,-53l-135 0c-29,0 -52,24 -52,53l0 7c-14,2 -25,14 -25,28l0 54c0,15 13,28 29,28l5 0 0 22c0,2 2,4 5,4 2,0 4,-2 4,-4l0 -22 204 0 0 22c0,2 2,4 4,4 3,0 5,-2 5,-4l0 -22 5 0c16,0 29,-13 29,-28l0 -54c0,-14 -11,-26 -25,-28zm-8 -7l0 7c-14,2 -24,14 -24,28l0 25 -84 0 0 -105 63 0c25,0 45,20 45,45zm-180 -45l64 0 0 105 -84 0 0 -25c0,-14 -11,-26 -24,-28l0 -7c0,-25 20,-45 44,-45zm204 134c0,11 -9,20 -20,20l-232 0c-11,0 -20,-9 -20,-20l0 -54c0,-11 9,-20 20,-20 11,0 20,9 20,20l0 29c0,2 2,4 4,4l184 0c2,0 4,-1 4,-4l0 -29c0,-11 9,-20 20,-20 11,0 21,9 21,20l0 54 -1 0z"></path>
  </g>
</svg>