<svg version="1.1" xml:space="preserve" width="62" height="62" viewBox="0 0 500 500">
  <g id="dc">
    <path class="fil1" d="M317 250c0,-37 -30,-67 -67,-67 -37,0 -67,30 -67,67 0,37 30,67 67,67 37,0 67,-30 67,-67zm-67 58c-32,0 -58,-26 -58,-58 0,-32 26,-59 58,-59 32,0 58,27 58,59 0,32 -26,58 -58,58z"></path>
    <path class="fil1" d="M250 218c-18,0 -32,14 -32,32 0,18 14,32 32,32 18,0 33,-14 33,-32 0,-18 -15,-32 -33,-32zm0 56c-13,0 -24,-11 -24,-24 0,-13 11,-24 24,-24 13,0 24,11 24,24 0,13 -11,24 -24,24z"></path>
    <path class="fil1" d="M372 189c0,-2 -2,-2 -4,-2 -14,3 -22,11 -24,23l0 6c-3,19 -8,53 -21,76 -13,23 -40,44 -56,56l-4 3c-9,8 -12,19 -9,32 1,2 3,3 4,3l1 0c71,-4 128,-64 128,-136 0,-21 -5,-42 -15,-61zm-110 189c-2,-7 -1,-14 6,-20l4 -3c17,-13 44,-34 58,-59 14,-24 19,-59 22,-79l1 -5c1,-9 7,-14 13,-16 8,17 12,35 12,54 0,66 -51,122 -116,128z"></path>
    <path class="fil1" d="M159 190c3,0 6,0 9,-2l5 -2c19,-7 50,-20 77,-20 27,0 58,13 76,20l5 2c4,1 7,2 10,2 10,0 17,-5 22,-10 2,-2 2,-4 1,-6 -26,-38 -68,-60 -114,-60 -46,0 -89,22 -114,60 -1,2 -1,4 0,6 5,5 13,10 23,10zm91 -68c42,0 81,20 105,54 -5,4 -12,8 -20,4l-5 -2c-19,-7 -51,-20 -80,-20 -28,0 -60,13 -79,20l-5 2c-8,4 -16,0 -20,-4 23,-34 62,-54 104,-54z"></path>
    <path class="fil1" d="M237 352l-4 -4c-16,-12 -43,-33 -56,-56 -13,-23 -18,-56 -20,-76l-1 -6c-2,-11 -10,-20 -23,-23 -2,0 -4,0 -5,2 -10,19 -15,40 -15,61 0,72 57,132 128,136l1 0c1,0 3,-1 4,-3 3,-13 0,-24 -9,-31zm1 26c-65,-6 -116,-62 -116,-128 0,-19 4,-37 12,-54 6,3 12,7 14,16l0 5c3,20 8,55 22,79 14,25 42,46 58,59l4 3c7,6 8,13 6,20z"></path>
    <circle class="fil1" cx="250" cy="250" r="6"></circle>
   </g>
</svg>