<svg version="1.1" id="Layer_1" x="0px" y="0px" viewBox="0 0 70 70" style="enable-background:new 0 0 70 70;" xml:space="preserve" width="62" height="62">
<g>
	<path class="st0" d="M40.7,58.8h-2.5v-3.6c0-0.6-0.5-1-1-1s-1,0.5-1,1v3.6h-2.5v-3.6c0-0.6-0.5-1-1-1s-1,0.5-1,1v3.6h-2.5v-3.6   c0-0.6-0.5-1-1-1s-1,0.5-1,1v3.6h-1.6c-1.4-0.2-2.4-1.5-2.2-2.8l0-3.6c0-8.3-5.8-10.6-7.6-11.1l-0.3-0.1l0-6.9   c0-14.2,7.1-22.4,19.6-22.4c5.8,0,10.4,1.7,13.8,5.1c1,1.1,2,2.4,2.8,3.7c2.4,4.2,3.4,8.9,3.1,13.6v6.9l-0.3,0.1   c-1.8,0.5-7.6,2.8-7.6,11.1L46.7,56c0.1,1.3-0.8,2.6-2.2,2.8l-1.7,0v-3.5c0-0.6-0.5-1-1-1s-1,0.5-1,1V58.8z M16.1,40.7   c2.1,0.7,7.9,3.2,7.9,11.7V56c-0.1,1,0.6,2,1.6,2.1l0.9,0v-2.9c0-0.9,0.8-1.7,1.7-1.7c0.9,0,1.7,0.8,1.7,1.7v2.9H31v-2.9   c0-0.9,0.8-1.7,1.7-1.7s1.7,0.8,1.7,1.7v2.9h1.1v-2.9c0-0.9,0.8-1.7,1.7-1.7s1.7,0.8,1.7,1.7v2.9h1.1v-2.9c0-0.9,0.8-1.7,1.7-1.7   s1.7,0.8,1.7,1.7v2.9h1c0.9-0.2,1.7-1.1,1.6-2.1l0.1-3.7c0-8.4,5.7-11,7.8-11.6l0-6.4c0.4-4.6-0.7-9.2-3-13.3   c-0.8-1.3-1.7-2.5-2.7-3.5c-3.2-3.2-7.7-4.9-13.3-4.9c-12,0-18.9,7.9-18.9,21.7L16.1,40.7z"></path>
</g>
<g>
	<path class="st0" d="M32.9,48.8c-0.4,0-0.7-0.1-1-0.3c-1-0.6-1.3-1.8-0.7-2.8l2.1-3.5c0.2-0.3,0.4-0.5,0.7-0.7c1-0.6,2.3-0.3,3,0.7   l0,0l2.1,3.5c0.2,0.3,0.3,0.7,0.3,1c0,1.1-0.9,2.1-2.1,2.1c0,0,0,0,0,0H32.9C32.9,48.8,32.9,48.8,32.9,48.8z M35,41.8   c-0.3,0-0.5,0.1-0.8,0.2c-0.2,0.1-0.3,0.3-0.5,0.5L31.7,46c-0.4,0.7-0.2,1.5,0.5,1.9c0.2,0.1,0.4,0.2,0.7,0.2c0,0,0,0,0,0h4.2   c0,0,0,0,0,0c0.8,0,1.4-0.6,1.4-1.4c0-0.2-0.1-0.5-0.2-0.7l-2.1-3.5C36,42,35.5,41.8,35,41.8z"></path>
</g>
<g>
	<path class="st0" d="M25.9,41.1L25.9,41.1c-2.3,0-4.1-1.8-4.1-4.1s1.8-4.1,4.1-4.1s4.1,1.8,4.1,4.1C30,39.2,28.2,41,25.9,41.1z    M25.9,33.5c-1.9,0-3.4,1.5-3.4,3.4c0,1.9,1.5,3.4,3.4,3.4c1.9,0,3.4-1.5,3.4-3.4C29.3,35,27.8,33.5,25.9,33.5z"></path>
</g>
<g>
	<path class="st0" d="M44.1,41.1L44.1,41.1c-2.3,0-4.1-1.8-4.1-4.1s1.8-4.1,4.1-4.1s4.1,1.8,4.1,4.1C48.2,39.2,46.3,41,44.1,41.1z    M44.1,33.5c-1.9,0-3.4,1.5-3.4,3.4c0,1.9,1.5,3.4,3.4,3.4c1.9,0,3.4-1.5,3.4-3.4C47.5,35,46,33.5,44.1,33.5z"></path>
</g>
</svg>