<svg version="1.1" id="Layer_1" x="0px" y="0px" viewBox="0 0 70 70" style="enable-background:new 0 0 70 70;" xml:space="preserve" width="62" height="62">
<g>
	<path class="st0" d="M24.4,48c1,0,1.7-0.8,1.7-1.7s-0.8-1.7-1.7-1.7c-1,0-1.7,0.8-1.7,1.7S23.5,48,24.4,48z"></path>
	<path class="st0" d="M49.2,40.2l-1.1-0.7l1.7-1.7h0.8c0.3,0,0.5-0.2,0.5-0.5v-4.2c0-2.5-1.8-4.6-4.3-5c0,0-0.1,0-0.1,0v0   c-1.8-0.2-4-0.6-6-1.2c-2.8-0.9-4.8-3.4-5.1-6.3l-0.3-3.5c0-0.3-0.2-0.5-0.5-0.5H21.4c-0.1,0-0.3,0.1-0.4,0.1   c-0.1,0.1-0.1,0.2-0.1,0.4l0,3.7c0,2.2-0.3,4.5-0.9,6.7c-0.1,0.4-0.2,0.9-0.3,1.4l0,0.2l-0.1,0.1c0,0.1-0.1,0.2-0.1,0.2   c0,0,0,0.1,0,0.1l0,0.2l0,0.2c0,0.3,0,0.7,0,1l0,6.4c0,0,0,0.1,0,0.1c0,0.1,0.1,0.1,0.1,0.2l1.8,2.1l-1,0.6   c-1.9,1.3-3.1,3.5-3.1,5.8c0,3.9,3.1,7,7,7s7-3.1,7-7c0-2.2-1-4.3-2.8-5.6l-0.9-0.7l2-2h11.2l1.7,1.9l-0.9,0.6   c-1.9,1.3-3.1,3.5-3.1,5.8c0,3.9,3.1,7,7,7s7-3.1,7-7C52.6,43.8,51.3,41.5,49.2,40.2z M30.4,46.2c0,3.3-2.7,6-6,6c-3.3,0-6-2.7-6-6   s2.7-6,6-6C27.7,40.2,30.4,42.9,30.4,46.2z M20.5,36.9l0-6.9h6.4c0.3,0,0.5-0.2,0.5-0.5S27.2,29,26.9,29h-6.3l0.3-1.3   c0.4-1.4,0.6-2.9,0.8-4.4l0.1-0.9h5.8c0.3,0,0.5-0.2,0.5-0.5s-0.2-0.5-0.5-0.5h-5.8l0-3.7h12.4l0.3,3c0.3,3.4,2.6,6.2,5.8,7.2   c2.1,0.6,4.4,1,6.2,1.2l0.1,0l0,0c2,0.3,3.5,2,3.5,4v3.7H20.5z M45.6,52.2c-3.3,0-6-2.7-6-6s2.7-6,6-6s6,2.7,6,6   S48.9,52.2,45.6,52.2z"></path>
	<path class="st0" d="M45.5,44.5c-1,0-1.7,0.8-1.7,1.7s0.8,1.7,1.7,1.7s1.7-0.8,1.7-1.7S46.4,44.5,45.5,44.5z"></path>
</g>
</svg>