<svg version="1.1" id="Layer_1" x="0px" y="0px" viewBox="0 0 70 70" style="enable-background:new 0 0 70 70;" xml:space="preserve" width="62" height="62">
<g>
	<path class="st0" d="M36.2,16.4H19.4c-0.1,0-0.3,0.1-0.3,0.3s0.1,0.3,0.3,0.3h16.8c4.8,0,9.4,2,12.8,5.4s5.3,8,5.2,12.9   c-0.1,9.8-8.1,17.9-18,18H19.7V21h16.7c3.7,0,7.2,1.5,9.9,4.1c2.6,2.6,4.1,6.1,4.1,9.9c0,7.7-6.3,13.9-13.9,13.9H23.7V25.2h12.9   c5.4,0,9.8,4.4,9.8,9.8c0,5.4-4.4,9.8-9.8,9.8h-8.9V29.2c0-0.1-0.1-0.3-0.3-0.3s-0.3,0.1-0.3,0.3V45c0,0.1,0.1,0.3,0.3,0.3h9.1   c2.7,0,5.3-1.1,7.3-3s3-4.5,3-7.3c0-5.7-4.6-10.3-10.3-10.3H23.4c-0.1,0-0.3,0.1-0.3,0.3v24.2c0,0.1,0.1,0.3,0.3,0.3h13   c8,0,14.5-6.5,14.5-14.5s-6.5-14.5-14.5-14.5h-17c-0.1,0-0.3,0.1-0.3,0.3v32.6c0,0.1,0.1,0.3,0.3,0.3h16.8   c10.3-0.1,18.6-8.5,18.5-18.8C54.6,24.7,46.3,16.4,36.2,16.4z"></path>
</g>
</svg>