<svg version="1.1" id="Layer_1" x="0px" y="0px" viewBox="0 0 70 70" style="enable-background:new 0 0 70 70;" xml:space="preserve" width="62" height="62">
<g>
	<path class="st0" d="M53.7,33.7c-0.2-0.2-0.4-0.5-0.4-0.8V26c0-2.1-2.7-3.1-9.5-3.4c-0.3,0-0.5,0.2-0.5,0.5c0,0.3,0.2,0.5,0.5,0.5   c3.9,0.2,6.5,0.6,7.7,1.2c0.3,0.2,0.5,0.5,0.5,0.9c0,0.4-0.3,0.7-0.6,0.9c-0.9,0.4-2.6,0.9-6.2,1.3c-0.3,0-0.6-0.1-0.8-0.3   l-6.6-6.7c-0.1-0.1-0.2-0.1-0.4-0.1h-4.9c-0.1,0-0.3,0.1-0.4,0.1l-6.6,6.8c-0.2,0.2-0.5,0.3-0.8,0.3c-3.6-0.4-5.3-0.9-6.2-1.3   c-0.4-0.2-0.6-0.5-0.6-0.9c0-0.4,0.2-0.7,0.5-0.9c1.2-0.6,3.8-1,7.7-1.2c0.2,0,0.3-0.1,0.3-0.2c0.1-0.1,0.1-0.2,0.1-0.4   c0-0.3-0.2-0.5-0.5-0.5c-6.9,0.3-9.5,1.2-9.5,3.4v6.9c0,0.3-0.1,0.6-0.4,0.8c-0.8,0.7-1.4,1.8-1.5,3.3c-0.2,1.8,0.2,3.9,1,6   c0.9,2.1,2.1,3.8,3.5,4.9c1.5,1.2,2.9,1.6,4.3,1.1c0,0,0.1,0,0.1,0l4.8-1.9c0.7-0.3,1.2-0.8,1.6-1.6c0.2-0.4,0.6-0.6,1.1-0.5   c2.5,0.4,5.1,0.4,7.7,0c0.4-0.1,0.8,0.1,1.1,0.5c0.4,0.7,0.9,1.3,1.6,1.6c0,0,0,0,0.1,0l4.7,1.8c0,0,0.1,0,0.1,0   c0.4,0.2,0.8,0.2,1.2,0.2c1,0,2.1-0.4,3.1-1.3c1.4-1.1,2.7-2.9,3.5-5c0.9-2.1,1.2-4.2,1-6C55.1,35.5,54.6,34.3,53.7,33.7z    M46.8,29.3c0.1-0.4,0.4-0.6,0.8-0.7c1.4-0.2,2.6-0.5,3.4-0.8c0.3-0.1,0.6,0,0.9,0.1c0.3,0.2,0.4,0.5,0.4,0.8v2.7   c0,0.3-0.2,0.6-0.4,0.8c-0.2,0.1-0.4,0.2-0.6,0.2c-0.1,0-0.2,0-0.3-0.1l-2.8-1c-0.1-0.1-0.3-0.1-0.4-0.2l-0.8-0.8   C46.8,30,46.7,29.6,46.8,29.3z M17.6,28.8c0-0.3,0.2-0.6,0.4-0.8c0.3-0.2,0.6-0.2,0.9-0.1c0.9,0.3,2.1,0.6,3.4,0.8   c0.4,0.1,0.7,0.3,0.8,0.7c0.1,0.4,0,0.7-0.2,1l-0.8,0.8c-0.1,0.1-0.2,0.2-0.4,0.2l-2.8,1c-0.1,0-0.2,0.1-0.3,0.1   c-0.2,0-0.4-0.1-0.6-0.2c-0.3-0.2-0.4-0.5-0.4-0.8V28.8z M24.9,45.1c-0.2,1.5-0.8,2.6-1.7,3c-0.2,0.1-0.5,0.2-0.8,0.2   c-0.8,0-1.6-0.4-2.5-1.1c-1.3-1-2.5-2.7-3.2-4.6c0,0,0,0,0,0c-0.8-1.9-1.1-3.9-1-5.5c0.2-1.5,0.8-2.6,1.7-3   c1.6-0.7,4.7,1.1,6.5,5.4C24.7,41.5,25.1,43.5,24.9,45.1z M28.1,46.2C28.1,46.2,28.1,46.2,28.1,46.2l-0.9,0.4   c-0.1,0-0.2,0.1-0.4,0.1c-0.2,0-0.4-0.1-0.6-0.2c-0.3-0.2-0.4-0.6-0.4-0.9l0-0.3c0.2-1.8-0.2-3.9-1-6c-0.9-2.1-2.1-3.9-3.6-5   c-0.3-0.2-0.4-0.6-0.4-0.9c0.1-0.4,0.3-0.7,0.6-0.8l0.7-0.3c0,0,0,0,0.1,0c0.9-0.3,2.1,0,3.2,0.9c1.3,1,2.5,2.7,3.2,4.6   C30.5,41.9,29.8,45.4,28.1,46.2z M39.2,43c0,0.5-0.3,1-0.8,1.1c-1.1,0.2-2.2,0.3-3.4,0.3c-1.1,0-2.3-0.1-3.4-0.3   c-0.5-0.1-0.9-0.5-0.8-1.1c0.1-1.7-0.2-3.7-1.1-5.7c-0.9-2.1-2.1-3.8-3.5-4.9c-0.4-0.3-0.8-0.6-1.2-0.8c-0.3-0.1-0.5-0.4-0.5-0.7   c-0.1-0.3,0-0.6,0.3-0.9l7.8-7.9c0.2-0.2,0.4-0.3,0.7-0.3h3.6c0.3,0,0.5,0.1,0.7,0.3l7.8,7.9c0.2,0.2,0.3,0.6,0.3,0.9   c-0.1,0.3-0.3,0.6-0.5,0.7c-0.4,0.2-0.8,0.5-1.2,0.8c-1.4,1.1-2.7,2.9-3.5,4.9C39.5,39.3,39.1,41.3,39.2,43z M43.8,46.4   c-0.2,0.1-0.4,0.2-0.6,0.2c-0.1,0-0.2,0-0.4-0.1l-0.8-0.3c-1.8-0.7-2.5-4.3-0.7-8.5c0.8-1.9,2-3.5,3.2-4.6c1.2-0.9,2.3-1.3,3.2-0.9   c0,0,0,0,0,0l0.7,0.3c0.3,0.1,0.6,0.4,0.6,0.8c0.1,0.4-0.1,0.7-0.4,0.9c-1.4,1.1-2.7,2.9-3.6,5c-0.9,2.1-1.2,4.2-1,6l0,0.3   C44.2,45.8,44.1,46.1,43.8,46.4z M53.3,42.6c-0.8,1.9-2,3.5-3.2,4.6c-0.9,0.7-1.7,1.1-2.5,1.1c-0.3,0-0.6-0.1-0.8-0.2   c-0.9-0.4-1.5-1.4-1.7-3c-0.2-1.6,0.2-3.6,1-5.5c0.8-1.8,1.8-3.4,3.1-4.4c1.3-1.1,2.5-1.5,3.5-1.1c0.9,0.4,1.5,1.5,1.7,3   C54.5,38.7,54.1,40.7,53.3,42.6z"></path>
	<path class="st0" d="M30.2,31c3.1,0.7,6.5,0.7,9.6,0c0,0,0,0,0,0c0.2,0,0.3-0.2,0.3-0.2c0.1-0.1,0.1-0.2,0.1-0.4   c0-0.1-0.1-0.2-0.2-0.3c-0.1,0-0.2-0.1-0.4-0.1c-3,0.7-6.2,0.7-9.2,0c0,0-0.1,0-0.1,0c-0.1,0-0.2,0-0.3,0.1   c-0.1,0.1-0.2,0.2-0.2,0.3c0,0.2,0,0.3,0.1,0.4S30,30.9,30.2,31z"></path>
	<path class="st0" d="M38.1,34.4c-0.1,0-0.2-0.1-0.4-0.1c-1.8,0.4-3.7,0.4-5.6,0c0,0-0.1,0-0.1,0c-0.1,0-0.2,0-0.3,0.1   c-0.1,0.1-0.2,0.2-0.2,0.3c0,0.2,0,0.3,0.1,0.4c0.1,0.1,0.2,0.2,0.3,0.2c2,0.4,4,0.4,6,0c0.2,0,0.3-0.2,0.3-0.2s0.1-0.2,0.1-0.4   c0,0,0,0,0,0C38.3,34.6,38.3,34.5,38.1,34.4z"></path>
</g>
</svg>