<svg version="1.1" xml:space="preserve" width="62" height="62" viewBox="0 0 500 500">
  <g id="dub">
    <path class="fil1" d="M366 319c13,-21 19,-45 19,-69 0,-24 -6,-48 -19,-69l22 -22c14,-13 14,-34 0,-47 -6,-7 -14,-10 -23,-10 -9,0 -18,3 -24,10l-22 22c-21,-13 -45,-19 -69,-19 -24,0 -48,6 -69,19l-22 -22c-6,-7 -15,-10 -24,-10 -9,0 -17,3 -23,10 -14,13 -14,34 0,47l22 22c-13,21 -19,45 -19,69 0,24 6,48 19,69l-22 22c-14,13 -14,34 0,47 6,7 14,10 23,10 9,0 18,-3 24,-10l22 -22c21,13 45,19 69,19 24,0 48,-6 69,-19l22 22c6,7 15,10 24,10 9,0 17,-3 23,-10 14,-13 14,-34 0,-47l-22 -22zm16 63c-9,9 -26,9 -35,0l-24 -24c-1,-1 -2,-2 -3,-2 -1,0 -2,1 -3,1 -20,13 -43,19 -67,19 -24,0 -47,-6 -67,-19 -2,-1 -4,-1 -6,1l-24 24c-9,9 -26,9 -35,0 -9,-10 -9,-25 0,-35l25 -24c1,-2 2,-4 0,-6 -12,-20 -19,-43 -19,-67 0,-24 7,-47 19,-67 1,-2 1,-4 0,-6l-25 -24c-9,-10 -9,-25 0,-35 10,-9 26,-9 35,0l24 25c2,1 4,2 6,0 20,-12 43,-19 67,-19 24,0 47,7 67,19 2,2 4,1 6,0l24 -25c9,-9 26,-9 35,0 10,10 10,25 0,35l-24 24c-2,2 -2,4 -1,6 13,20 19,43 19,67 0,24 -6,47 -19,67 -1,2 -1,4 1,6l24 24c9,10 9,25 0,35z"></path>
    <path class="fil1" d="M250 141c-61,0 -110,49 -110,109 0,60 49,109 110,109 60,0 109,-49 109,-109 0,-60 -49,-109 -109,-109zm0 210c-55,0 -101,-45 -101,-101 0,-55 45,-101 101,-101 55,0 100,45 100,101 0,56 -45,101 -100,101z"></path>
    <path class="fil1" d="M250 211c-22,0 -39,17 -39,39 0,22 17,39 39,39 21,0 39,-17 39,-39 0,-22 -17,-39 -39,-39zm0 69c-17,0 -30,-13 -30,-30 0,-16 13,-30 30,-30 16,0 30,14 30,30 0,17 -14,30 -30,30z"></path>
    <path class="fil1" d="M364 148c7,0 12,-6 12,-12 0,-7 -5,-12 -12,-12 -6,0 -11,5 -11,12 0,6 5,12 11,12zm0 -15c2,0 3,1 3,3 0,1 -1,3 -3,3 -1,0 -3,-2 -3,-3 1,-2 2,-3 3,-3z"></path>
    <path class="fil1" d="M147 136c0,-7 -5,-12 -12,-12 -6,0 -11,5 -11,12 0,6 5,11 11,11 7,1 12,-5 12,-11zm-12 2c-1,0 -2,-1 -2,-3 0,-1 1,-3 2,-3 2,0 3,2 3,3 0,2 -1,3 -3,3z"></path>
    <path class="fil1" d="M364 353c-6,0 -11,6 -11,12 0,7 5,12 11,12 7,0 12,-5 12,-12 0,-6 -5,-12 -12,-12zm0 15c-1,0 -3,-1 -3,-3 0,-1 2,-3 3,-3 2,0 3,2 3,3 0,2 -1,3 -3,3z"></path>
    <path class="fil1" d="M135 353c-6,0 -11,6 -11,12 0,7 5,12 11,12 7,0 12,-5 12,-12 0,-6 -5,-12 -12,-12zm0 15c-1,0 -2,-1 -2,-3 0,-1 1,-3 2,-3 2,0 3,2 3,3 0,2 -1,3 -3,3z"></path>
   </g>
</svg>