<svg version="1.1" id="Layer_1" x="0px" y="0px" viewBox="0 0 70 70" style="enable-background:new 0 0 70 70;" xml:space="preserve" width="62" height="62">
<g>
	<path class="st0" d="M48.4,24.2H22.7c-1.8,0-6.1,0-8.8,3.1c-1.7,2-2.5,4.8-2.3,8.4c0.1,2.7,1.1,5.3,2.9,7.3   c1.8,1.9,4.3,2.9,6.8,2.8c2.8,0,5.7-0.4,8.1-3.1c1.8-2.1,3.1-4.6,3.9-7.2c0.1-0.7,0.6-1.3,1.3-1.7l0.2-0.1c0.2-0.1,0.5-0.1,0.7-0.1   c0.2,0,0.5,0,0.7,0.1l0.2,0.1c0.7,0.4,1.2,1,1.4,1.8c0.7,2.5,2.1,5,3.8,7.1c2.4,2.7,5.3,3.1,8.1,3.1c2.6,0.1,5.1-1,6.9-2.8   c1.8-2,2.8-4.5,2.9-7.2c0.2-3.6-0.5-6.4-2.3-8.4C54.5,24.2,50.2,24.2,48.4,24.2z M58.8,35.6c-0.1,2.5-1,4.9-2.7,6.8   c-1.7,1.7-3.9,2.7-6.3,2.7c-0.1,0-0.1,0-0.2,0c-3,0-5.5-0.5-7.6-2.9c-1.7-2-3-4.4-3.7-6.9c-0.2-1.1-1-1.9-2-2.2   c-0.2-0.1-0.5-0.1-0.8-0.1c-0.3,0-0.6,0-0.9,0.1c-1,0.3-1.7,1.1-1.9,2.2c-0.7,2.6-2,5-3.7,7c-2.1,2.4-4.6,2.9-7.6,2.9   c-0.1,0-0.1,0-0.2,0c-2.3,0-4.6-1-6.2-2.6c-1.7-1.9-2.7-4.4-2.7-6.9c-0.2-3.4,0.5-6,2.1-7.9c2.5-2.9,6.4-2.9,8.3-2.9h25.7   c1.9,0,5.8,0,8.3,2.9C58.3,29.6,59.1,32.2,58.8,35.6z"></path>
	<path class="st0" d="M54.5,39.4h-9.6c-0.2,0-0.3,0.1-0.3,0.3s0.1,0.3,0.3,0.3h9.6c0,0,0,0,0.1,0c0.1-0.1,0.2-0.2,0.2-0.4   C54.8,39.5,54.7,39.4,54.5,39.4z"></path>
	<path class="st0" d="M25.7,39.4h-8.4c-0.2,0-0.3,0.1-0.3,0.3s0.1,0.3,0.3,0.3h8.4c0.2,0,0.3-0.1,0.3-0.3S25.9,39.4,25.7,39.4z"></path>
	<path class="st0" d="M52.5,29.4H18.7c-0.2,0-0.3,0.1-0.3,0.3s0.1,0.3,0.3,0.3h33.8c0.2,0,0.3-0.1,0.3-0.3S52.6,29.4,52.5,29.4z"></path>
	<path class="st0" d="M28.6,34.4H15.5c-0.2,0-0.3,0.1-0.3,0.3s0.1,0.3,0.3,0.3h13.1c0.2,0,0.3-0.1,0.3-0.3S28.8,34.4,28.6,34.4z"></path>
	<path class="st0" d="M55.1,34.4H42.1c-0.2,0-0.3,0.1-0.3,0.3s0.1,0.3,0.3,0.3h13.1c0.2,0,0.3-0.1,0.3-0.3S55.3,34.4,55.1,34.4z"></path>
</g>
</svg>