<svg version="1.1" xml:space="preserve" width="62" height="62" viewBox="0 0 500 500">
  <g id="club">
   <path class="fil1" d="M375 329c0,0 0,0 0,0 6,-12 10,-24 12,-37l0 0c1,-7 1,-14 1,-22 0,-7 0,-15 -1,-21l0 0c-2,-14 -6,-26 -12,-38 0,0 0,0 0,0 -14,-30 -39,-54 -69,-68 0,0 0,0 0,0 -11,-5 -23,-8 -35,-10l-1 -5c-1,-3 -3,-4 -5,-3 -2,0 -4,2 -3,5l0 2c-3,0 -5,0 -8,-1l0 -35c0,-3 -2,-5 -4,-5 -2,0 -4,2 -4,5l0 36c-4,0 -8,0 -12,1 0,0 0,0 0,0 -14,2 -27,5 -40,11 0,0 0,0 0,0 -30,13 -55,37 -69,67 0,0 0,0 0,0 -6,12 -10,25 -12,38l0 0c-1,7 -1,14 -1,21 0,8 0,15 1,22l0 0c2,13 6,26 12,37 0,1 0,1 0,1 14,29 39,53 69,67 0,0 0,0 0,0 17,7 36,12 56,12 20,0 39,-5 56,-12 0,0 1,0 1,0 29,-14 54,-38 68,-68zm-104 69l8 -35 41 -8 -19 34c-9,5 -19,8 -30,9zm-21 -42l0 0 0 0 -22 0 -4 -48 26 0 0 0 26 0 -4 48 -22 0zm-51 33l-19 -34 40 8 9 36c-11,-2 -21,-5 -30,-10zm-76 -93l34 6 9 39 -34 -16c-4,-9 -7,-19 -9,-29zm9 -81l34 -16 -10 40 -34 5c3,-10 6,-19 10,-29zm97 -73l-9 35 -40 9 18 -35c10,-4 20,-7 31,-9zm21 43l0 0 0 0 23 0 3 43 0 4 -26 0 0 0 -26 0 4 -47 22 0 0 0zm127 59l-34 -5 -9 -40 34 16c4,10 7,19 9,29zm-96 110l3 -46 51 -5 -11 43 -43 8zm-31 -54l0 0 -26 0 0 -30 0 -29 26 0 0 0 26 0 0 21c0,2 1,4 3,4 -2,1 -3,3 -3,4l0 30 -26 0 0 0zm-74 45l-11 -42 51 5 3 46 -43 -9zm-55 -58c0,-5 -1,-11 -1,-17 0,-6 0,-11 1,-17l35 -6 0 23 0 0 0 0 0 23 -35 -6zm98 -101l-3 47 -51 5 11 -43 43 -9zm-55 84l0 0 0 -24 52 -5 0 29 0 29 -52 -5 0 -24 0 0zm172 0l0 0 0 24 -52 5 0 -29c0,-2 -1,-3 -2,-4 1,0 2,-2 2,-4l0 -21 52 5 0 24 0 0zm8 0l0 0 0 -23 35 6c0,6 1,11 1,17 0,6 -1,12 -1,17l-35 6 0 -23 0 0zm-20 -75l11 43 -51 -5 0 -5 -3 -42 43 9zm19 107l34 -6c-2,10 -5,20 -9,29l-34 16 9 -39zm18 -99l-30 -15 -17 -31c20,11 36,27 47,46zm-60 -52l19 34 -39 -8 -1 -5c0,0 0,0 0,0l-7 -30c10,2 19,5 28,9zm-29 22l0 3 -22 0 0 0 0 0 -21 0 9 -35c4,-1 8,-1 12,-1 5,0 9,1 14,1l8 32zm-87 -15l-16 30 -30 15c11,-19 27,-35 46,-45zm-46 180l30 14 17 31c-20,-11 -36,-27 -47,-45zm99 62l-9 -36 21 0 0 0 0 0 21 0 -9 36c-4,0 -8,0 -12,0 -4,0 -8,0 -12,0zm76 -17l17 -31 30 -15c-11,19 -27,35 -47,46z"></path>
  </g>
</svg>