<svg version="1.1" id="Layer_1" x="0px" y="0px" viewBox="0 0 70 70" style="enable-background:new 0 0 70 70;" xml:space="preserve" width="62" height="62">
<g>
	<path d="M26.6,52.3c-1.2,0-2.1-1-2.1-2.1c0-0.5,0.2-1.2,0.7-1.5l11-11h-7.8c-1.2,0-2.1-1-2.1-2.1c0-0.5,0.2-1.1,0.6-1.5l15.4-15.4   c0.4-0.4,1-0.6,1.5-0.5c0.6,0,1.1,0.2,1.5,0.7c0.7,0.8,0.7,2,0,2.9L33.4,33.5h7.8c1.2,0,2.1,1,2.1,2.1c0,0.5-0.2,1.1-0.6,1.5   L28.1,51.7C27.8,52.1,27.3,52.3,26.6,52.3z M43.7,18.4c-0.5,0-1,0.2-1.3,0.5L27,34.3c-0.4,0.4-0.6,0.8-0.6,1.3c0,1,0.8,1.9,1.9,1.9   h8.4l-0.2,0.2L25.3,48.9c-0.4,0.3-0.6,0.9-0.6,1.3c0,1,0.8,1.9,1.9,1.9c0.6,0,1-0.2,1.3-0.6l14.6-14.6c0.4-0.4,0.6-0.8,0.6-1.3   c0-1-0.8-1.9-1.9-1.9h-8.4L45,21.5c0.7-0.8,0.7-1.8,0-2.5C44.7,18.6,44.2,18.4,43.7,18.4C43.7,18.4,43.7,18.4,43.7,18.4z"></path>
</g>
<g>
	<path d="M35,60.7c-0.5,0-1.1-0.2-1.5-0.6l-4.2-4.2c-0.7-1-0.4-2.3,0.5-3c0.8-0.5,1.8-0.5,2.5,0l2.7,2.7L55.6,35l-8.9-8.9   c-0.4-0.4-0.6-0.9-0.6-1.5s0.2-1.1,0.6-1.5c0.4-0.4,0.9-0.6,1.5-0.6c0.5,0,1.1,0.2,1.5,0.6l10.4,10.4c0.8,0.8,0.8,2.1,0,3   L36.5,60.1C36.2,60.5,35.5,60.7,35,60.7z M31.1,52.8c-0.4,0-0.8,0.1-1.1,0.4c-0.8,0.6-1,1.8-0.5,2.6l4.2,4.2   c0.4,0.4,0.8,0.6,1.3,0.6c0.4,0,1-0.2,1.3-0.5l23.6-23.6c0.7-0.7,0.7-1.9,0-2.6L49.5,23.3c-0.4-0.4-0.8-0.6-1.3-0.6   c-0.5,0-0.9,0.2-1.3,0.6c-0.7,0.7-0.7,1.9,0,2.6L56,35L35.1,56l-2.9-2.9C31.9,52.9,31.5,52.8,31.1,52.8z"></path>
</g>
<g>
	<path d="M22.3,48c-0.5,0-1.1-0.2-1.5-0.6L9.9,36.5c-0.8-0.8-0.8-2.1,0-3L33.5,9.9c0.8-0.8,2.1-0.8,3,0l4.2,4.2   c0.4,0.4,0.6,0.9,0.6,1.5s-0.2,1.1-0.6,1.5c-0.8,0.8-2.1,0.8-3,0L35,14.4L14.4,35l9.4,9.4c0.8,0.8,0.8,2.1,0,3   C23.4,47.8,22.8,48,22.3,48z M35,9.5c-0.5,0-0.9,0.2-1.3,0.6L10.1,33.7c-0.7,0.7-0.7,1.9,0,2.6L21,47.2c0.4,0.4,0.8,0.6,1.3,0.6   s0.9-0.2,1.3-0.6c0.4-0.4,0.6-0.8,0.6-1.3c0-0.5-0.2-0.9-0.6-1.3L14,35l21-21l2.9,2.9c0.7,0.7,1.9,0.7,2.6,0   c0.4-0.4,0.6-0.8,0.6-1.3s-0.2-0.9-0.6-1.3l-4.2-4.2C35.9,9.7,35.5,9.5,35,9.5z"></path>
</g>
</svg>