<svg version="1.1" id="Layer_1" x="0px" y="0px" viewBox="0 0 70 70" style="enable-background:new 0 0 70 70;" xml:space="preserve" width="62" height="62">
<g>
	<path d="M24.8,53.5L24.8,53.5L24.8,53.5L24.8,53.5l0.2,0.2c0,0,0,0,0,0c0,0,0,0,0.1,0c0.1,0,0.1,0,0.2,0h12.5   c10.3,0,18.7-8.4,18.7-18.7c0-10.3-8.4-18.7-18.7-18.7H18c-0.3,0-0.5,0.2-0.5,0.5v36.4c0,0.2,0.1,0.4,0.3,0.5   c0.2,0.1,0.4,0,0.6-0.2l13.2-18.2c0.1-0.2,0.1-0.4,0-0.6L26.8,28l7.9,2.6c0.2,0.1,0.4,0,0.6-0.2l4.9-6.7v8.3c0,0.2,0.1,0.4,0.3,0.5   l7.9,2.6l-7.9,2.6c-0.2,0.1-0.3,0.3-0.3,0.5v8.3l-5-6.9c0,0,0,0,0,0L35,39.5l-0.2,0l-0.1,0l-0.2,0.1l-0.1,0.1l-9.7,13.5l0,0l0,0   l0,0.1l0,0L24.8,53.5z M34.8,40.8l5.4,7.4c0.1,0.2,0.4,0.2,0.6,0.2c0.2-0.1,0.4-0.3,0.4-0.5v-9.5l9-2.9c0.2-0.1,0.3-0.3,0.3-0.5   c0-0.2-0.1-0.4-0.3-0.5l-9-2.9v-9.5c0-0.2-0.1-0.4-0.3-0.5c-0.2-0.1-0.4,0-0.6,0.2l-5.6,7.7l-9-2.9c-0.2-0.1-0.4,0-0.6,0.2   c-0.1,0.2-0.1,0.4,0,0.6l5.6,7.7L18.5,51.7V17.3h19.2c9.8,0,17.7,7.9,17.7,17.7s-7.9,17.7-17.7,17.7H26.2L34.8,40.8z"></path>
</g>
</svg>