<?xml version="1.0" encoding="UTF-8" standalone="no"?>
<svg
   xmlns:dc="http://purl.org/dc/elements/1.1/"
   xmlns:cc="http://creativecommons.org/ns#"
   xmlns:rdf="http://www.w3.org/1999/02/22-rdf-syntax-ns#"
   xmlns:svg="http://www.w3.org/2000/svg"
   xmlns="http://www.w3.org/2000/svg"
   xmlns:sodipodi="http://sodipodi.sourceforge.net/DTD/sodipodi-0.dtd"
   xmlns:inkscape="http://www.inkscape.org/namespaces/inkscape"
   version="1.1"
   id="Layer_1"
   x="0px"
   y="0px"
   viewBox="0 0 70 70"
   enable-background="new 0 0 70 70"
   xml:space="preserve"
   width="62"
   height="62"
   sodipodi:docname="Future Bass.svg"
   inkscape:version="0.92.4 (5da689c313, 2019-01-14)"><metadata
   id="metadata19"><rdf:RDF><cc:Work
       rdf:about=""><dc:format>image/svg+xml</dc:format><dc:type
         rdf:resource="http://purl.org/dc/dcmitype/StillImage" /></cc:Work></rdf:RDF></metadata><defs
   id="defs17" /><sodipodi:namedview
   pagecolor="#ffffff"
   bordercolor="#666666"
   borderopacity="1"
   objecttolerance="10"
   gridtolerance="10"
   guidetolerance="10"
   inkscape:pageopacity="0"
   inkscape:pageshadow="2"
   inkscape:window-width="1868"
   inkscape:window-height="1016"
   id="namedview15"
   showgrid="false"
   inkscape:zoom="3.8064516"
   inkscape:cx="41.508475"
   inkscape:cy="20.491525"
   inkscape:window-x="52"
   inkscape:window-y="27"
   inkscape:window-maximized="1"
   inkscape:current-layer="Layer_1" />
<g
   id="g12">
	<path
   fill="none"
   stroke-width="1.5"
   stroke-linecap="round"
   stroke-linejoin="round"
   stroke-miterlimit="10"
   d="   M44.7,10.9l-26.6,9.4c-0.7,0.2-1.2,0.9-1.2,1.7l0,23.4c0,0.7,0.4,1.3,1.1,1.6l27.6,12.1V24.9l-13.7,4.7v8.8l4.9,2"
   id="path2" />
	<path
   fill="none"
   stroke-width="1.5"
   stroke-linecap="round"
   stroke-linejoin="round"
   stroke-miterlimit="10"
   d="   M45.6,59.1l7.3-4c0.1,0,0.1-0.1,0.1-0.2V15c0-0.5-0.5-0.8-0.9-0.7l-26.7,9.3c-0.3,0.1-0.5,0.4-0.5,0.7v16.1c0,0.3,0.2,0.5,0.4,0.6   l11.3,5c0.1,0.1,0.3,0,0.3-0.2V27.9"
   id="path4" />
	
		<line
   fill="none"
   stroke-width="1.5"
   stroke-linecap="round"
   stroke-linejoin="round"
   stroke-miterlimit="10"
   x1="44.7"
   y1="10.9"
   x2="52.8"
   y2="14.4"
   id="line6" />
	
		<line
   fill="none"
   stroke-width="1.5"
   stroke-linecap="round"
   stroke-linejoin="round"
   stroke-miterlimit="10"
   x1="17.6"
   y1="20.8"
   x2="25"
   y2="24"
   id="line8" />
	
		<line
   fill="none"
   stroke-width="1.5"
   stroke-linecap="round"
   stroke-linejoin="round"
   stroke-miterlimit="10"
   x1="25.1"
   y1="40.8"
   x2="31.9"
   y2="38.4"
   id="line10" />
</g>
<rect
   style="fill:#000000;fill-opacity:1;stroke-width:1.12903225"
   id="rect826"
   width="4.1525426"
   height="37.076271"
   x="14.237288"
   y="16.31356" /><rect
   style="fill:#000000;fill-opacity:1;stroke-width:0.83273304"
   id="rect826-3"
   width="4.1525426"
   height="20.169491"
   x="16.045877"
   y="-34.707802"
   transform="rotate(91.06595)" /><rect
   style="fill:#000000;fill-opacity:1;stroke-width:0.69290668"
   id="rect826-3-6"
   width="4.1521683"
   height="13.965998"
   x="26.40626"
   y="-28.861992"
   transform="matrix(-0.01288023,0.99991705,-0.99963903,-0.02686656,0,0)" /><rect
   style="fill:#000000;fill-opacity:1;stroke-width:1.12903225"
   id="rect826-7"
   width="4.1525426"
   height="37.076271"
   x="38.559322"
   y="16.758474" /><rect
   style="fill:#000000;fill-opacity:1;stroke-width:0.69290668"
   id="rect826-3-6-5"
   width="4.1521683"
   height="13.965998"
   x="15.718007"
   y="-52.741768"
   transform="matrix(-0.01288023,0.99991705,-0.99963903,-0.02686656,0,0)" /><rect
   style="fill:#000000;fill-opacity:1;stroke-width:0.69290668"
   id="rect826-3-6-3"
   width="4.1521683"
   height="13.965998"
   x="-52.966827"
   y="-30.423407"
   transform="matrix(-0.99991705,-0.01288023,0.02686656,-0.99963903,0,0)" /><rect
   style="fill:#000000;fill-opacity:1;stroke-width:0.83273304"
   id="rect826-3-5"
   width="4.1525426"
   height="20.169491"
   x="29.640263"
   y="-59.327366"
   transform="rotate(91.06595)" /><rect
   style="fill:#000000;fill-opacity:1;stroke-width:0.83273304"
   id="rect826-3-62"
   width="4.1525426"
   height="20.169491"
   x="55.174824"
   y="29.640263"
   transform="rotate(1.06595)" /><rect
   style="fill:#000000;fill-opacity:1;stroke-width:0.83273304"
   id="rect826-3-62-9"
   width="4.1525426"
   height="20.169491"
   x="48.955559"
   y="-59.72364"
   transform="rotate(91.06595)" /></svg>