<svg version="1.1" id="Layer_1" x="0px" y="0px" viewBox="0 0 500 500" enable-background="new 0 0 500 500" xml:space="preserve" width="62" height="62">
<g>
	<path d="M368.1,179.1c-19.4-31.9-50-54.4-86.3-63.3c-4.6-1.1-9.2-2-13.9-2.7c-2.3-0.4-4.5,1.3-4.8,3.6   c-0.4,2.3,1.3,4.5,3.6,4.8c4.4,0.6,8.7,1.5,13.1,2.5c70.3,17.3,113.5,88.5,96.2,158.8c-6.1,24.9-19.2,47.3-37.9,64.7   c-1.7,1.6-1.8,4.3-0.2,6c0.9,0.9,2,1.4,3.1,1.4c1.1,0,2.1-0.4,2.9-1.2c19.9-18.5,33.8-42.4,40.4-68.9   C393.2,248.6,387.5,211.1,368.1,179.1z"></path>
	<path d="M191.2,369.8c-45.6-22.1-74.1-67.4-74.1-118.2c0-36.3,15.2-71.3,41.8-96.1c1.7-1.6,1.8-4.3,0.2-6   s-4.3-1.8-6-0.2c-13.9,13-24.9,28.3-32.5,45.6c-7.9,17.9-12,37-12,56.7c0,26.8,7.6,52.8,21.9,75.2c14,21.8,33.6,39.4,56.9,50.7   c0.6,0.3,1.3,0.5,1.9,0.5c1.6,0,3.1-0.9,3.9-2.4C194.2,373.4,193.4,370.8,191.2,369.8z"></path>
	<path d="M338.9,325.8c0.1-0.1,0.2-0.2,0.2-0.3c0.4-0.5,0.8-1,1.2-1.5c0.3-0.4,0.6-0.7,0.8-1.1   c0.2-0.2,0.3-0.4,0.4-0.5c11-14.4,18.5-31.1,21.8-48.9c4.4-22.8,1.9-46.5-7.5-68.2c-10.1-23.6-27.3-42.7-49.2-55.2l-0.1-0.1   c-17.6-10.1-37.7-15.4-58.1-15.4c-27.8,0-54.7,9.9-75.9,28c-20.8,17.8-34.9,42.4-39.4,69.4c-0.4,2.3,1.2,4.5,3.5,4.9   c0.3,0.1,0.5,0.1,0.7,0.1c2.1,0,3.9-1.5,4.2-3.6c8.8-52.3,53.7-90.3,106.8-90.3c13.7,0,27.2,2.6,39.8,7.5c0.1,0.1,0.2,0.1,0.3,0.2   c42.4,16.9,68.2,57.7,68.3,100.7c0,6.5-0.6,12.9-1.7,19c-0.1,0.5-0.2,0.9-0.3,1.3c-0.1,0.4-0.2,0.9-0.3,1.3   c-1.3,6.2-3.1,12.3-5.5,18.3c-0.1,0.3-0.2,0.6-0.3,0.8c-0.2,0.5-0.4,1-0.6,1.5c-16.5,38.8-55,66.1-99.8,66.1   c-26.9,0-52.7-9.9-72.7-28c-1.8-1.6-4.5-1.5-6,0.3c-1.6,1.8-1.5,4.5,0.3,6c21.5,19.4,49.4,30.2,78.4,30.2   c26.5,0,51.6-8.7,72.1-24.8C327.3,338.4,333.4,332.3,338.9,325.8z"></path>
	<path d="M329.2,288.8c0.5,0.2,1.1,0.3,1.6,0.3c1.7,0,3.3-1,4-2.7c4.5-11,6.7-22.8,6.7-34.9c0-51.3-41.7-93-93-93   c-13.3,0-26.2,2.8-38.3,8.2c-2.2,1-3.1,3.5-2.1,5.6c1,2.2,3.5,3.1,5.6,2.1c10.9-4.9,22.6-7.4,34.7-7.4c46.6,0,84.5,37.9,84.5,84.5   c0,10.9-2.1,21.6-6.1,31.6C325.9,285.4,327,287.9,329.2,288.8z"></path>
	<path d="M166.4,285.5c-2.1,1-3.1,3.6-2.1,5.7c7.4,15.7,19.1,29.1,33.7,38.5c15,9.7,32.5,14.9,50.5,14.9   c20,0,39.1-6.3,55.1-18.1c1.9-1.4,2.3-4.1,0.9-6c-1.4-1.9-4.1-2.3-6-0.9c-14.6,10.7-31.9,16.4-50.1,16.4c-32.5,0-62.6-19-76.4-48.5   C171,285.4,168.5,284.5,166.4,285.5z"></path>
	<path d="M179.1,251.5c0,38.3,31.1,69.4,69.4,69.4s69.4-31.1,69.4-69.4c0-6.8-1-13.6-2.9-20   c-0.7-2.3-3.1-3.5-5.3-2.9c-2.3,0.7-3.5,3.1-2.9,5.3c1.7,5.7,2.6,11.6,2.6,17.6c0,33.5-27.3,60.9-60.9,60.9s-60.9-27.3-60.9-60.9   s27.3-60.9,60.9-60.9c12.2,0,24,3.6,34,10.4c2,1.3,4.6,0.8,5.9-1.2c1.3-2,0.8-4.6-1.2-5.9c-11.5-7.7-24.9-11.9-38.8-11.9   C210.2,182.1,179.1,213.3,179.1,251.5z"></path>
</g>
</svg>