<svg version="1.1" id="Layer_1" x="0px" y="0px" viewBox="0 0 180 180" style="enable-background:new 0 0 180 180;" xml:space="preserve" width="62" height="62">
<g>
	<path d="M158.1,107c0-0.1-4.9-6.2-14.5-15.9c-3.5-3.5-7-6.1-10.5-8.1c2.2-3.3,4.2-7.3,5.8-12c4.3-13,5.9-20.6,5.9-20.7   c0-0.1,0-0.2-0.1-0.3c0,0,0-0.1-0.1-0.1c-0.1-0.1-0.2-0.2-0.4-0.2c-0.1,0-7.9-0.2-21.5,1.1c-5.2,0.5-9.8,1.7-13.7,3.2   c-1.2-4.1-3.2-8.5-6.1-12.9c-7.5-11.4-12.5-17.4-12.5-17.5c-0.1-0.1-0.1-0.1-0.2-0.1c-0.1,0-0.1-0.1-0.2-0.1   c-0.1,0-0.3,0.1-0.4,0.2c0,0.1-5.1,6-12.5,17.5c-2.9,4.4-4.8,8.8-6,12.8c-3.8-1.5-8.3-2.6-13.4-3.1c-13.6-1.3-21.4-1.1-21.5-1.1   c-0.1,0-0.2,0-0.3,0.1c-0.1,0-0.1,0.1-0.2,0.1c-0.1,0.1-0.1,0.3-0.1,0.4c0,0.1,1.6,7.7,5.9,20.7c1.6,4.7,3.6,8.6,5.8,12   c-3.4,2-7,4.6-10.5,8.1c-9.6,9.7-14.4,15.9-14.5,15.9c-0.1,0.1-0.1,0.2-0.1,0.3c0,0.1,0,0.1,0,0.2c0,0.1,0.1,0.3,0.3,0.3   c0.1,0,7,3.7,19.7,8.6c4.9,1.9,9.6,2.8,13.7,3.2c-0.6,4.1-0.8,8.9-0.1,14.1c1.7,13.6,3.6,21.1,3.7,21.2c0,0.1,0.1,0.2,0.1,0.2   c0,0.1,0.1,0.1,0.2,0.1c0.1,0,0.1,0.1,0.2,0.1c0.1,0,0.1,0,0.2,0c0.1,0,7.2-3.2,18.9-10.3c4.5-2.7,8.2-5.8,11-8.9   c2.9,3.1,6.5,6.2,11,8.9c11.7,7,18.8,10.3,18.9,10.3c0,0,0.1,0,0.2,0c0.1,0,0.1,0,0.2,0c0,0,0.1,0,0.1,0c0.1-0.1,0.2-0.2,0.3-0.3   c0-0.1,1.9-7.6,3.7-21.2c0.7-5.2,0.5-9.9-0.1-14.1c4.2-0.4,8.8-1.3,13.7-3.2c12.8-4.9,19.7-8.6,19.7-8.6c0.1-0.1,0.2-0.2,0.2-0.3   c0,0,0-0.1,0-0.1C158.2,107.3,158.2,107.2,158.1,107z M122.9,51.7c11.5-1.1,18.9-1.1,20.8-1.1c-0.4,1.9-2.1,9.1-5.8,20   c-1.5,4.6-3.5,8.5-5.7,11.8c-6.2-3.5-12-4.9-15.6-5.5c-3.5-0.6-6.9,0.7-9.6,2.2c1.9-2.3,3.9-5.4,4.1-8.9c0.2-3.5,0-9-1.8-15.4   C113.2,53.4,117.7,52.2,122.9,51.7z M109.4,96.8c-1.7-0.6-2.9-0.8-3.1-0.8l-14.8-3.3l11.7-9.6c0.1-0.1,6.9-6.1,13.3-5.1   c3.5,0.6,9.1,2,15.2,5.3c-3.9,5.7-8.3,9.4-11.2,11.5C117.2,97.2,112.5,97.1,109.4,96.8z M118.3,104.3c1.6,3,3.8,8,5,14.5   c-6.5,0.4-11.9-0.5-15.2-1.4c-6.3-1.7-10-10-10.1-10.1l-6.7-13.6l14.8,3.5c0.1,0,1.4,0.4,3.1,0.6   C112.1,98.8,116.4,100.8,118.3,104.3z M110.2,70.2c-0.3,6.5-7.7,11.9-7.7,12l-11.6,9.2l0-14.6c0-0.1-0.3-9.2,4.6-13.5   c2.6-2.3,6.9-5.5,13-8C110.2,61.5,110.4,66.8,110.2,70.2z M77.9,41.5c6.3-9.7,10.9-15.4,12.1-17c1.2,1.5,5.8,7.3,12.1,17   c2.9,4.4,4.8,8.7,6,12.7c-6.3,2.6-10.8,5.9-13.4,8.2c-2.8,2.5-4,6.3-4.5,9.4c-0.5-3.1-1.7-6.9-4.5-9.4c-2.7-2.4-7.3-5.8-13.7-8.4   C73.2,50.2,75.1,45.9,77.9,41.5z M71.7,55.1c6.3,2.5,10.7,5.8,13.3,8.1c4.9,4.3,4.6,13.4,4.6,13.5l0,14.9L81,84.8l-3.1-2.6   c-0.1-0.1-0.8-0.7-1.9-1.5c-2.2-2-5.9-6-6.1-10.6C69.7,66.8,69.9,61.4,71.7,55.1z M71.2,97.8c1.8-0.2,3-0.6,3.1-0.6l14.8-3.5   l-6.7,13.6c0,0.1-3.8,8.4-10.1,10.1c-3.3,0.9-8.6,1.8-15.2,1.4c1.1-6.5,3.3-11.5,5-14.5C64.1,100.8,68.3,98.8,71.2,97.8z M60,94.8   c-2.9-2.1-7.3-5.8-11.2-11.5c6.1-3.4,11.7-4.8,15.2-5.3c4.4-0.7,9,1.9,11.4,3.6c0.9,0.8,1.6,1.3,1.6,1.4l3.4,2.7l8.5,7l-14.8,3.3   c-0.1,0-1.4,0.3-3.1,0.8C68,97.1,63.3,97.2,60,94.8z M42.5,70.7c-3.6-11-5.3-18.1-5.8-20c2,0,9.3,0,20.8,1.1c5,0.5,9.4,1.6,13.2,3   c-1.9,6.5-2,12-1.9,15.5c0.2,3.3,2,6.3,3.8,8.6c-2.6-1.3-5.7-2.3-8.9-1.8c-3.6,0.6-9.3,2-15.6,5.5C46,79.2,44,75.3,42.5,70.7z    M42.6,115.5c-10.8-4.2-17.4-7.4-19.1-8.3c1.2-1.5,5.9-7.2,14.1-15.4c3.4-3.4,6.9-6,10.3-8c4,5.9,8.5,9.7,11.5,11.8   c2.6,1.8,5.8,2.3,8.6,2.3c0,0,0,0,0,0c-2.5,1.2-5.3,3.1-6.8,5.9c-1.7,3.1-4,8.2-5.1,14.9C52,118.3,47.4,117.4,42.6,115.5z    M78.7,144.2c-9.9,5.9-16.5,9.1-18.3,10c-0.4-1.9-2-9.1-3.5-20.6c-0.7-5.1-0.5-9.8,0.1-13.9c1.2,0.1,2.4,0.1,3.5,0.1   c5.1,0,9.3-0.8,12.1-1.5c4-1.1,6.9-4.4,8.7-7.1c-1,3-1.7,7.3-0.2,11c1.4,3.2,3.9,8.1,8.4,13.1C86.7,138.5,83.2,141.5,78.7,144.2z    M82.1,121.9c-2.5-6,1.7-14,1.8-14.1l6.4-13.3l6.4,13.3c0,0.1,4.3,8.1,1.7,14.1c-1.3,3.1-3.8,7.9-8.2,12.8   C85.9,129.8,83.4,125,82.1,121.9z M123.6,133.6c-1.5,11.5-3.1,18.7-3.5,20.6c-1.8-0.8-8.4-4-18.3-10c-4.5-2.7-8-5.7-10.9-8.8   c4.5-5,7.1-9.9,8.4-13.1c1.6-3.7,0.8-8-0.2-11c1.8,2.7,4.7,6,8.7,7.1c2.8,0.7,7,1.5,12.1,1.5c1.1,0,2.3,0,3.5-0.1   C124.1,123.9,124.3,128.5,123.6,133.6z M137.9,115.5c-4.8,1.9-9.4,2.8-13.5,3.2c-1.1-6.7-3.4-11.8-5.1-14.9   c-1.5-2.8-4.2-4.6-6.8-5.9c0,0,0,0,0,0c2.8,0,6-0.5,8.6-2.3c3-2.1,7.4-5.9,11.5-11.8c3.4,2,6.9,4.6,10.3,8   c8.2,8.2,12.8,13.9,14.1,15.4C155.2,108.1,148.6,111.4,137.9,115.5z"></path>
</g>
</svg>