<svg version="1.1" xml:space="preserve" width="62" height="62" viewBox="0 0 500 500">
  <g id="deep">
    <circle class="fil1" cx="251" cy="250" r="6"></circle>
    <path class="fil1" d="M250 113c-76,0 -137,61 -137,137 0,76 61,137 137,137 76,0 137,-61 137,-137 0,-76 -61,-137 -137,-137zm0 266c-71,0 -129,-58 -129,-129 0,-71 58,-129 129,-129 71,0 129,58 129,129 0,71 -58,129 -129,129z"></path>
    <path class="fil1" d="M250 211c-22,0 -39,17 -39,39 0,22 17,39 39,39 22,0 39,-17 39,-39 0,-22 -17,-39 -39,-39zm0 70c-17,0 -31,-14 -31,-31 0,-17 14,-31 31,-31 17,0 31,14 31,31 0,17 -14,31 -31,31z"></path>
    <path class="fil1" d="M362 225c-10,-44 -45,-78 -89,-87 -2,-1 -5,1 -5,3 0,2 1,4 3,5 41,8 74,40 83,81 0,2 2,3 4,3 0,0 0,0 1,0 2,0 4,-3 3,-5z"></path>
    <path class="fil1" d="M268 163c-2,0 -4,1 -5,3 0,3 1,5 4,5 31,7 55,31 62,62 0,1 2,3 4,3 0,0 1,0 1,0 2,0 4,-3 3,-5 -8,-34 -35,-61 -69,-68z"></path>
    <path class="fil1" d="M263 188c-2,0 -4,1 -5,3 0,3 2,5 4,5 21,5 38,21 42,42 1,2 2,4 5,4 0,0 0,0 0,0 3,-1 4,-3 4,-5 -6,-25 -25,-44 -50,-49z"></path>
    <path class="fil1" d="M229 352c-41,-9 -73,-41 -82,-82 0,-2 -2,-4 -5,-4 -2,1 -3,3 -3,5 9,45 43,80 88,89 0,0 0,0 0,0 2,0 4,-1 5,-3 0,-2 -1,-4 -3,-5z"></path>
    <path class="fil1" d="M234 327c-31,-7 -55,-31 -61,-62 -1,-2 -3,-4 -5,-3 -2,0 -4,2 -3,4 7,35 33,62 67,69 0,0 1,0 1,0 2,0 4,-1 4,-3 1,-2 -1,-5 -3,-5z"></path>
    <path class="fil1" d="M240 303c-21,-5 -38,-22 -42,-43 -1,-2 -3,-4 -5,-3 -3,0 -4,2 -4,5 5,24 24,43 49,49 0,0 0,0 1,0 1,0 3,-1 4,-4 0,-2 -1,-4 -3,-4z"></path>
   </g>
</svg>