<svg version="1.1" id="Layer_1" x="0px" y="0px" viewBox="0 0 70 70" enable-background="new 0 0 70 70" xml:space="preserve" width="62" height="62">
<g>
<path d="M57.614,31.368c-0.167-0.143-0.387-0.203-0.604-0.171l-11.65,1.845c-0.364,0.059-0.633,0.372-0.633,0.741v6.399  c0,0.22,0.096,0.428,0.263,0.57s0.388,0.201,0.604,0.171l1.669-0.265v3.394l-7.434,1.178v-9.234v-3.912V24.45l7.434-1.178v5.897  c0,0.219,0.095,0.426,0.261,0.568c0.165,0.143,0.384,0.209,0.601,0.173l6.519-0.98c0.367-0.055,0.639-0.37,0.639-0.741V14.285  c0-0.22-0.096-0.428-0.263-0.57c-0.167-0.144-0.387-0.203-0.604-0.171l-41.658,6.598c-0.364,0.059-0.633,0.372-0.633,0.741v7.076  c0,0.22,0.096,0.428,0.263,0.57s0.388,0.201,0.604,0.171l5.652-0.896v11.312v13.858c0,0.227,0.103,0.44,0.277,0.583l3.38,2.739  c0.14,0.112,0.307,0.167,0.473,0.167c0.215,0,0.428-0.092,0.576-0.271l3.14-3.771c0.112-0.135,0.174-0.304,0.174-0.479V38.032  v-3.886v-7.61l5.148-0.816v7.677v3.602v13.925l-0.061,3.29c-0.004,0.222,0.091,0.434,0.258,0.579  c0.138,0.12,0.313,0.185,0.492,0.185c0.039,0,0.078-0.003,0.117-0.009l22.031-3.489c0.364-0.059,0.633-0.372,0.633-0.741V39.388  l1.963-0.311c0.364-0.059,0.633-0.372,0.633-0.741v-6.398C57.877,31.718,57.781,31.51,57.614,31.368z M56.377,37.696l-1.963,0.311  c-0.364,0.059-0.633,0.372-0.633,0.741v11.349l-20.515,3.249l0.036-16.308c0.001-0.014,0.008-0.026,0.008-0.04V24.841  c0-0.22-0.096-0.428-0.263-0.57s-0.389-0.201-0.604-0.171l-6.648,1.054c-0.364,0.059-0.633,0.372-0.633,0.741v8.251v3.886v13.64  l-2.492,2.994l-2.527-2.048V39.117V26.927c0-0.22-0.096-0.428-0.263-0.57s-0.388-0.205-0.604-0.171l-5.652,0.896v-5.558l40.158-6.36  v12.38l-5.019,0.755v-5.904c0-0.22-0.096-0.428-0.263-0.57s-0.389-0.203-0.604-0.171l-8.934,1.415  c-0.364,0.059-0.633,0.372-0.633,0.741v8.274v3.912v10.112c0,0.22,0.096,0.428,0.263,0.57c0.167,0.144,0.388,0.204,0.604,0.171  l8.934-1.415c0.364-0.059,0.633-0.372,0.633-0.741v-4.912c0-0.22-0.096-0.428-0.263-0.57s-0.389-0.203-0.604-0.171l-1.669,0.265  v-4.881l10.15-1.607V37.696z"></path>
	</g>
</svg>