<svg version="1.1" xml:space="preserve" width="62" height="62" viewBox="0 0 500 500">
  <g id="teo">
   <path class="fil1" d="M424 235l-122 -51 -11 -22 79 32c1,0 1,0 2,0 1,0 3,-1 3,-2 1,-2 0,-5 -2,-6l-94 -39 0 0 -129 -54c-2,-1 -4,-1 -5,1l-24 31c0,1 -1,3 0,4l4 10 -11 1c-1,0 -2,0 -3,1l-20 30c-1,1 -1,3 0,4l7 14 -21 23c-1,1 -2,3 -1,4l5 26 -7 19c-1,1 -1,2 0,3l13 30c1,2 2,2 3,3l27 4 5 32c0,1 0,2 1,3l57 37 19 33c1,1 2,2 4,2l148 0c2,0 3,-1 4,-2 1,-2 1,-3 0,-5l-58 -84 13 -75 66 27c1,0 1,0 2,0 1,0 3,-1 3,-3 1,-2 0,-4 -2,-5l-67 -28 3 -20c1,-1 0,-2 0,-3l-7 -14 113 47c0,0 1,0 2,0 1,0 3,-1 3,-3 1,-2 0,-4 -2,-5zm-342 28l6 -16 73 23 -4 19 -18 7 -18 -3 -27 -4 -12 -26zm208 57l54 79 -64 0 -29 -42c-1,-2 -4,-2 -6,-1 -2,2 -2,4 -1,6l26 38 -17 0 -35 -53c-2,-2 -4,-3 -6,-2 -2,2 -2,4 -1,6l31 48 -37 0 -19 -31c0,-1 -1,-1 -1,-1l-56 -37 -4 -27 13 2c0,0 0,0 0,0 1,0 1,0 2,0l21 -9c1,0 2,-1 2,-3l7 -24 21 -40c1,-3 0,-5 -2,-6 -2,-1 -5,0 -6,2l-20 37 -74 -23 -5 -22 19 -22 33 17c1,0 2,0 2,0 2,0 3,-1 4,-2 1,-2 0,-5 -2,-6l-35 -17 -6 -13 17 -25 14 -1 24 13c0,0 1,0 2,0 2,0 3,0 4,-2 1,-2 0,-4 -2,-5l-24 -13 -5 -12 20 -26 46 19 -46 66c-1,1 -1,3 -1,4l11 27c1,1 3,3 5,2l58 -14c2,0 2,-1 3,-2l7 -14 9 5 -16 26c0,1 -1,1 -1,2l-4 42 -6 -23c0,-2 -3,-4 -5,-3 -2,0 -3,3 -3,5l12 45c1,2 2,3 4,3l1 0c2,0 3,-2 3,-4l7 -63 18 -28c1,-2 1,-5 -1,-6l-17 -11c-1,0 -2,-1 -3,0 -1,0 -3,1 -3,2l-8 17 -53 12 -9 -21 46 -66 76 32 28 56 -18 104c0,1 0,2 1,3z"></path>
  </g>
</svg>