<svg version="1.1" id="Layer_1" data-name="Layer 1" viewBox="0 0 70 70" width="62" height="62">
<g>
<path d="M35,16.1A21,21,0,0,0,14.57,41.88V47.3a.77.77,0,0,0,1.53,0v-5.5a.77.77,0,0,0,0-.18,19.45,19.45,0,1,1,37.83,0,.77.77,0,0,0,0,.18v5.5a.77.77,0,0,0,1.53,0V41.88A21,21,0,0,0,35,16.1Zm0,0"></path><path d="M27,37.75H23.93a2.3,2.3,0,0,0-2.18,1.58A4.77,4.77,0,0,0,17.64,44v6.5a4.77,4.77,0,0,0,4.08,4.71,2.3,2.3,0,0,0,2.21,1.67H27a2.3,2.3,0,0,0,2.3-2.3V40.05a2.3,2.3,0,0,0-2.3-2.3Zm-7.83,12.8V44a3.23,3.23,0,0,1,2.46-3.14V53.69a3.23,3.23,0,0,1-2.46-3.14Zm8.59,4.09a.77.77,0,0,1-.77.77H23.93a.77.77,0,0,1-.77-.77V40.05a.77.77,0,0,1,.77-.77H27a.77.77,0,0,1,.77.77Zm0,0"></path><path d="M48.25,39.33a2.3,2.3,0,0,0-2.18-1.58H43a2.3,2.3,0,0,0-2.3,2.3V54.64a2.3,2.3,0,0,0,2.3,2.3h3.07a2.3,2.3,0,0,0,2.21-1.67,4.77,4.77,0,0,0,4.08-4.71V44a4.77,4.77,0,0,0-4.11-4.72Zm2.58,11.22a3.23,3.23,0,0,1-2.46,3.14v-7.5a.77.77,0,0,0-1.53,0v8.45a.77.77,0,0,1-.77.77H43a.77.77,0,0,1-.77-.77V40.05a.77.77,0,0,1,.77-.77h3.07a.77.77,0,0,1,.77.77v3.07a.77.77,0,0,0,1.53,0V40.91A3.23,3.23,0,0,1,50.83,44Zm0,0"></path><path d="M15.52,24.35a.77.77,0,0,0,1.07-.18,22.88,22.88,0,0,1,2.51-3,22.48,22.48,0,0,1,31.8,0,22.87,22.87,0,0,1,2.51,3,.77.77,0,1,0,1.25-.88A24.41,24.41,0,0,0,52,20.1a24,24,0,0,0-34,0,24.41,24.41,0,0,0-2.68,3.18.77.77,0,0,0,.18,1.07Zm0,0"></path>
</g>
</svg>