<svg version="1.1" id="Layer_1" data-name="Layer 1" viewBox="0 0 70 70" width="62" height="62"><defs></defs>
<g>
<path class="cls-1" d="M52.64,30.08a2,2,0,0,0,1.27-1.86V15.11a2,2,0,0,0-2.35-2L38.17,15.5a2,2,0,0,0-1.66,2v7.39L20.09,30.94V22.75l9.4-1.66v2.45a2,2,0,0,0,4,0V18.71a2,2,0,0,0-2.35-2L17.74,19.1a2,2,0,0,0-1.65,2V33.81A2,2,0,0,0,17,35.45a2,2,0,0,0,1.84.24l20.42-7.56a2,2,0,0,0,1.3-1.87V19.15l9.4-1.66v9.37L17.36,39.63a2,2,0,0,0-1.27,1.86v13.4a2,2,0,0,0,2,2,2.07,2.07,0,0,0,.35,0L31.83,54.5a2,2,0,0,0,1.66-2V44.9l16.42-6.44v8.79l-9.4,1.65V45.8a2,2,0,0,0-4,0v5.49a2,2,0,0,0,2.35,2l13.4-2.36a2,2,0,0,0,1.65-2V35.53a2,2,0,0,0-2.73-1.86l-20.42,8a2,2,0,0,0-1.27,1.87v7.31l-9.4,1.66V42.86Z"></path>
</g>
</svg>