<svg version="1.1" id="Layer_1" x="0px" y="0px" viewBox="0 0 70 70" style="enable-background:new 0 0 70 70;" xml:space="preserve" width="62" height="62">
<g>
	<path class="st0" d="M45.5,15.2C45.5,15.2,45.5,15.1,45.5,15.2L45.5,15.2C45.3,15,45.3,15,45.3,15c0,0,0,0-0.1,0l-0.2,0H25.3   c-0.1,0-0.2,0.1-0.3,0.2L11.4,38.8c0,0,0,0,0,0.1l0,0.2l0.1,0.2l9.9,17.1c0.1,0.1,0.2,0.2,0.3,0.2h27.2l0.2-0.1c0,0,0,0,0.1,0   l0.1-0.2l9.9-17.1c0-0.1,0-0.2,0-0.4L45.5,15.2z M44.6,15.7L40,23.6h-9.2l4.6-7.9H44.6z M31.8,39.3h16.5l-4.6,7.9H27.2L31.8,39.3z    M26.6,46.9L22,38.9l8.2-14.3l4.6,7.9L26.6,46.9z M39.1,38.6l-8.2-14.3l9.2,0l8.2,14.3H39.1z M25.5,15.7h9.2L21.4,38.6h-9.2   L25.5,15.7z M12.3,39.3h9.2l4.6,7.9h-9.2L12.3,39.3z M21.8,55.8l-4.6-7.9h26.4l4.6,7.9H21.8z M48.9,55.5l-4.6-7.9l4.6-7.9l4.6,7.9   L48.9,55.5z M53.8,46.9L40.6,24l4.6-7.9l13.2,22.9L53.8,46.9z"></path>
</g>
</svg>