<svg version="1.1" id="Layer_1" x="0px" y="0px" viewBox="0 0 70 70" style="enable-background:new 0 0 70 70;" xml:space="preserve" width="62" height="62">
<g>
	<path class="st0" d="M57.3,33.6c-0.1,0-0.1,0.1-0.1,0.2C56.9,46,46.7,56,34.4,56c-5.9,0-11.4-2.3-15.5-6.5   c-4.1-4.2-6.2-9.8-6.1-15.7l0-0.2C13.2,22.8,22.3,14,33.1,14c5.3,0,10.2,2.1,13.8,5.8c3.6,3.7,5.5,8.7,5.4,14   C52,43.3,44.1,51,34.5,51c-4.6,0-8.9-1.8-12-5c-3.2-3.3-4.8-7.6-4.7-12.2C18,25.6,24.8,19,32.9,19c3.9,0,7.6,1.5,10.3,4.3   c2.7,2.8,4.1,6.5,4,10.4C47.1,40.5,41.5,46,34.7,46c-3.3,0-6.3-1.3-8.6-3.6c-2.3-2.3-3.4-5.4-3.4-8.7l0-0.2   c0.2-5.4,4.8-9.7,10.1-9.7c2.6,0,5.1,1,6.9,2.9c1.8,1.9,2.8,4.3,2.7,7l0,0.1c-0.2,4.1-3.6,7.4-7.7,7.4c-2,0-3.8-0.8-5.2-2.2   c-1.4-1.4-2.1-3.3-2-5.3c0.1-2.7,2.3-4.9,5.1-4.9c1.3,0,2.5,0.5,3.4,1.4c0.9,0.9,1.4,2.2,1.3,3.5c0,1.3-1.1,2.4-2.4,2.4   c-0.6,0-1.2-0.2-1.6-0.7c-0.4-0.4-0.7-1-0.6-1.7c0-0.1-0.1-0.3-0.2-0.3c-0.1,0-0.1,0-0.2,0.1c0,0-0.1,0.1-0.1,0.2   c0,0.8,0.3,1.5,0.8,2c0.5,0.5,1.2,0.8,2,0.8c1.5,0,2.7-1.2,2.9-2.6l0-0.2c0-1.4-0.5-2.8-1.5-3.8c-1-1-2.3-1.6-3.8-1.6   c-3,0-5.5,2.4-5.6,5.4c-0.1,2.1,0.7,4.1,2.2,5.6c1.5,1.5,3.4,2.3,5.6,2.3c4.4,0,8.1-3.6,8.2-8l0-0.1c0.1-2.8-1-5.3-2.8-7.3   c-1.9-2-4.5-3-7.3-3c-5.7,0-10.5,4.7-10.7,10.4l0,0.3c0,3.3,1.2,6.4,3.5,8.7c2.3,2.4,5.5,3.7,8.9,3.7c7,0,12.9-5.7,13.1-12.8   c0.1-4.1-1.4-7.9-4.2-10.8c-2.8-2.9-6.6-4.5-10.7-4.5c-8.4,0-15.4,6.8-15.7,15.3c-0.1,4.7,1.6,9.2,4.9,12.5   c3.3,3.4,7.7,5.2,12.4,5.2c9.8,0,17.9-8,18.2-17.7c0.1-5.4-1.8-10.5-5.5-14.3c-3.7-3.8-8.7-5.9-14.1-5.9   c-11.2,0-20.5,9.1-20.8,20.2l0,0.3c-0.1,5.9,2.1,11.5,6.2,15.7c4.2,4.3,9.8,6.6,15.9,6.6c12.5,0,23-10.2,23.3-22.7   c0-0.1,0-0.1-0.1-0.2c0,0-0.1-0.1-0.2-0.1l0,0C57.4,33.5,57.3,33.5,57.3,33.6z"></path>
</g>
</svg>