<svg version="1.1" id="Layer_1" x="0px" y="0px" viewBox="0 0 70 70" style="enable-background:new 0 0 70 70;" xml:space="preserve" width="62" height="62">
<g>
	<path class="st0" d="M35.2,59.8c-13.5,0-24.4-11-24.4-24.4s11-24.4,24.4-24.4s24.4,11,24.4,24.4S48.7,59.8,35.2,59.8z M35.2,11.4   c-13.2,0-23.9,10.7-23.9,23.9c0,13.2,10.7,23.9,23.9,23.9c13.2,0,23.9-10.7,23.9-23.9C59.1,22.1,48.4,11.4,35.2,11.4z"></path>
</g>
<g>
	<g>
		<path class="st0" d="M32.7,54.3l-0.3,0c-8.4-1.2-14.8-7.6-16.2-16l0-0.3h16.5V54.3z M16.8,38.5c1.4,7.9,7.5,13.9,15.4,15.2V38.5    H16.8z"></path>
	</g>
	<g>
		<path class="st0" d="M32.7,33.2H16.1l0-0.3c1.1-8.5,7.8-15.3,16.2-16.5l0.3,0V33.2z M16.7,32.6h15.4V16.9    C24.2,18.2,17.9,24.6,16.7,32.6z"></path>
	</g>
	<g>
		<path class="st0" d="M37.5,54.4V38h16.6l0,0.3c-1.3,8.3-8,14.9-16.3,16L37.5,54.4z M38.1,38.5v15.2c7.8-1.2,14.1-7.4,15.5-15.2    H38.1z"></path>
	</g>
	<g>
		<path class="st0" d="M54.3,33.2H37.5V16.3l0.3,0c8.6,1.2,15.3,8,16.4,16.6L54.3,33.2z M38.1,32.6h15.6    c-1.2-8.1-7.5-14.5-15.6-15.8V32.6z"></path>
	</g>
</g>
</svg>