<svg version="1.1" id="Layer_1" x="0px" y="0px" viewBox="0 0 70 70" style="enable-background:new 0 0 70 70;" xml:space="preserve" width="62" height="62">
<g>
	<path d="M54.6,23.7l-5.4-3.1c-0.1-0.1-0.2-0.1-0.3,0c-0.1,0.1-0.2,0.2-0.2,0.3v22.3l-2.9,1.7l-0.1-0.1l-10.6-6.1c0,0-0.1,0-0.2,0   c-0.1,0-0.1,0-0.2,0l-5.5,3.2c-0.1,0.1-0.2,0.2-0.2,0.3c0,0.1,0.1,0.2,0.2,0.3l16.2,9.4c0.1,0.1,0.2,0.1,0.3,0l8.6-5   c0.1-0.1,0.2-0.2,0.2-0.3V23.9C54.8,23.8,54.7,23.7,54.6,23.7z M54.2,46.3l-8.3,4.8L45.7,51l-15.5-9l4.8-2.8l0.1,0.1l10.6,6.1   c0.1,0.1,0.2,0.1,0.3,0l3.2-1.8c0.1-0.1,0.2-0.2,0.2-0.3V21.4l4.8,2.7V46.3z"></path>
	<path d="M15.7,30.4L35,19.3l2.9,1.6v12.4c0,0.1,0.1,0.2,0.2,0.3l5.5,3.1c0.1,0.1,0.2,0.1,0.3,0c0.1-0.1,0.2-0.2,0.2-0.3V17.7   c0-0.1-0.1-0.2-0.2-0.3l-8.6-5c-0.1-0.1-0.2-0.1-0.3,0L15.4,23.7c-0.1,0.1-0.2,0.2-0.2,0.3v6.2c0,0.1,0.1,0.2,0.2,0.3   S15.6,30.5,15.7,30.4z M15.8,24.1l0.1-0.1l19-11l8.3,4.8v18.1l-4.8-2.8V20.7c0-0.1-0.1-0.2-0.2-0.3l-3.2-1.8   c-0.1-0.1-0.2-0.1-0.3,0l-19,11V24.1z"></path>
	<path d="M40.5,54.3L21.2,43.1v-3.3l10.7-6.2c0.1-0.1,0.2-0.2,0.2-0.3v-6.3c0-0.1-0.1-0.2-0.2-0.3c0,0-0.1,0-0.2,0s-0.1,0-0.2,0   l-16.2,9.4c-0.1,0.1-0.2,0.2-0.2,0.3v10c0,0.1,0.1,0.2,0.2,0.3L34.8,58c0.1,0.1,0.2,0.1,0.3,0l5.4-3.1c0.1-0.1,0.2-0.2,0.2-0.3   C40.7,54.5,40.6,54.4,40.5,54.3z M35,57.3L15.8,46.3v-9.6l0.1-0.1l15.5-9v5.6l-10.7,6.2c-0.1,0.1-0.2,0.2-0.2,0.3v3.7   c0,0.1,0.1,0.2,0.2,0.3l19,11L35,57.3z"></path>
</g>
</svg>