<svg version="1.1" id="Layer_1" x="0px" y="0px" viewBox="0 0 70 70" style="enable-background:new 0 0 70 70;" xml:space="preserve" width="62" height="62">
<g>
	<path class="st0" d="M36.3,34.7L36.3,34.7c0-0.1-0.1-0.1-0.2-0.1l-0.2-0.1c-0.1,0-0.1-0.1-0.2-0.1c0,0,0,0,0,0   c-0.2,0-0.3,0.1-0.4,0.2c-0.1,0.1-0.2,0.4-0.1,0.5l0.1,0.2c0,0.1,0,0.2,0.1,0.2c0.1,0.1,0.2,0.2,0.3,0.2l0,0l0,0l0,0l0.3,0l0,0   l0.1,0c0.1,0,0.2-0.1,0.2-0.1c0.1-0.1,0.1-0.1,0.1-0.2c0,0,0-0.1,0-0.1l0-0.1l0-0.1C36.4,34.9,36.4,34.7,36.3,34.7z"></path>
	<path class="st0" d="M44.7,29.5c-0.7-0.9-2-1.2-3-0.8c-0.1,0-0.1,0.1-0.2,0.1c-0.2,0.1-0.3,0.2-0.4,0.3l-0.2,0.1   c-1.8,1-4.1,0.5-5.4-1.1c-0.1-0.2-0.3-0.4-0.4-0.6l-0.1-0.3c-0.1-0.3-0.3-0.5-0.5-0.7c-0.9-1.1-2.3-1.8-3.7-1.9c-0.1,0-0.2,0-0.3,0   c-1.3,0-2.6,0.5-3.6,1.5c-1,0.9-1.5,2.2-1.5,3.6c0,1.4,0.5,2.7,1.5,3.6c0.2,0.2,0.5,0.4,0.8,0.6l0.1,0.1c0.4,0.2,0.7,0.5,0.9,0.9   c1.1,1.3,1.3,3.3,0.5,4.8C29.1,39.9,29,40,29,40.1c-0.7,1.3-0.5,2.9,0.4,4c0.7,0.8,1.7,1.3,2.8,1.3c0.8,0,1.6-0.3,2.3-0.8   c0.3-0.2,0.5-0.5,0.7-0.8l0.1-0.1c0.1-0.1,0.1-0.2,0.2-0.3l0.1-0.2c0.2-0.3,0.5-0.6,0.8-0.9c1.3-1.1,3.3-1.3,4.8-0.5   c0.2,0.1,0.3,0.2,0.5,0.3c0.1,0.1,0.1,0.1,0.2,0.1c0.7,0.3,1.6,0.2,2.2-0.3c0.4-0.3,0.6-0.7,0.7-1.2c0.1-0.6,0-1.2-0.3-1.7   l-0.2-0.3c-1.3-1.7-1.2-4.1,0.3-5.6l0.1-0.1c0.2-0.3,0.4-0.5,0.6-0.9C45.5,31.2,45.3,30.2,44.7,29.5z M44.4,31.8   c-0.1,0.2-0.2,0.4-0.3,0.5l-0.2,0.2C42.2,34.3,42,37,43.4,39l0.1,0.1c0,0.1,0.1,0.1,0.1,0.2l0.1,0.1l0.1,0.2   c0.1,0.3,0.1,0.6,0.1,0.8c-0.1,0.3-0.2,0.6-0.5,0.8c-0.3,0.2-0.7,0.4-1,0.3l-0.3,0l-0.2-0.2c-0.1-0.1-0.3-0.2-0.4-0.3   c-1.8-1-4-0.8-5.6,0.5c-0.4,0.3-0.7,0.7-1,1.1c0,0.1,0,0.1-0.1,0.1c0,0.1-0.1,0.1-0.1,0.2l-0.2,0.3c-0.1,0.2-0.3,0.3-0.5,0.5   c-0.5,0.4-1.2,0.7-1.8,0.7c-0.1,0-0.2,0-0.3,0c-0.8-0.1-1.4-0.4-1.9-1c-0.7-0.9-0.8-2.1-0.3-3.1l0.2-0.3c1-1.8,0.9-4.2-0.5-5.8   c-0.3-0.4-0.7-0.7-1-1l-0.2-0.1c-0.2-0.2-0.4-0.3-0.6-0.5c-0.8-0.8-1.3-1.9-1.3-3.1c0-1.2,0.4-2.3,1.3-3.1c0.9-0.9,2.1-1.4,3.3-1.3   c1.2,0.1,2.4,0.6,3.1,1.6c0.1,0.1,0.2,0.3,0.3,0.5l0.1,0.1c0,0.1,0.1,0.2,0.1,0.2c0.2,0.3,0.3,0.5,0.5,0.7c1.6,1.9,4.3,2.4,6.5,1.2   c0,0,0,0,0.1,0c0.1,0,0.1-0.1,0.1-0.1c0.1,0,0.1-0.1,0.2-0.1l0.1-0.1c0.8-0.3,1.7-0.1,2.2,0.5C44.5,30.5,44.7,31.2,44.4,31.8z"></path>
	<path class="st0" d="M53.1,24.3c-1.4-1.7-3.7-2.3-5.7-1.4c-0.1,0-0.1,0.1-0.2,0.1L47.1,23c-0.3,0.1-0.5,0.3-0.8,0.5l-0.1,0.1   c-3.8,2.1-8.5,1.2-11.2-2.1c-0.3-0.4-0.6-0.8-0.8-1.2c0-0.1-0.2-0.3-0.3-0.5c-0.3-0.5-0.6-0.9-0.9-1.3c-1.7-2.1-4.3-3.4-7-3.5   c-0.1,0-0.3,0-0.4,0c-2.6,0-5.1,1-6.9,2.8c-1.8,1.8-2.8,4.2-2.8,6.8c0,2.6,1,5.1,2.8,6.9c0.4,0.4,0.9,0.8,1.4,1.1l0.4,0.3   c0.6,0.5,1.2,1,1.7,1.6c2.3,2.8,2.7,6.8,0.9,10l-0.1,0.1c-0.1,0.2-0.2,0.3-0.3,0.5l0,0.1c-1.3,2.4-1,5.3,0.8,7.4   c1.1,1.4,2.8,2.2,4.5,2.4c1.8,0.2,3.5-0.4,4.9-1.5c0.5-0.4,0.9-0.9,1.3-1.4l0.1-0.1c0.2-0.2,0.3-0.5,0.4-0.8l0.1-0.2   c0.5-0.8,1.1-1.4,1.8-2c2.8-2.3,6.7-2.7,9.9-1c0.4,0.2,0.7,0.4,1,0.6c0.1,0.1,0.1,0.1,0.2,0.1c1.3,0.5,2.9,0.3,4-0.6   c0.7-0.6,1.1-1.3,1.3-2.2c0.2-1.1,0-2.2-0.6-3c0,0,0,0,0,0l-0.3-0.4c-0.1-0.1-0.1-0.1-0.1-0.1L52,42.5c-2.6-3.5-2.3-8.4,0.7-11.5   l0.2-0.2c0.5-0.5,0.8-1,1-1.6C54.5,27.5,54.2,25.6,53.1,24.3z M53.2,28.9c-0.2,0.5-0.4,0.9-0.8,1.3l-0.1,0.1c0,0-0.1,0.1-0.1,0.1   c-3.3,3.4-3.7,8.6-0.9,12.4l0.1,0.1c0.1,0.2,0.2,0.3,0.3,0.4l0.2,0.3c0.4,0.7,0.5,1.5,0.4,2.3c-0.2,0.7-0.5,1.3-1.1,1.8   c-0.8,0.7-1.9,0.9-2.9,0.6L48,48.2l-0.1-0.1c-0.3-0.2-0.6-0.4-1-0.6c-3.5-1.9-7.7-1.5-10.7,1c-0.7,0.6-1.4,1.3-1.9,2.1   c-0.1,0.1-0.1,0.1-0.1,0.1c-0.1,0.2-0.2,0.4-0.3,0.6l-0.2,0.2l-0.1,0.2c-0.3,0.4-0.7,0.8-1.1,1.2c-1.1,0.9-2.4,1.4-3.8,1.4   c-0.2,0-0.4,0-0.6,0c-1.6-0.2-3-0.9-4-2.1c-1.5-1.9-1.8-4.4-0.7-6.6l0-0.1c0.1-0.1,0.2-0.3,0.3-0.4c2-3.5,1.6-7.9-0.9-11   c-0.6-0.7-1.3-1.4-2.1-1.9c-0.1-0.1-0.1-0.1-0.2-0.1c-0.5-0.3-0.9-0.7-1.3-1.1c-1.7-1.7-2.6-3.9-2.6-6.4c0-2.4,0.9-4.6,2.6-6.3   c1.8-1.8,4.2-2.8,6.8-2.6c2.5,0.1,4.9,1.3,6.5,3.2c0.3,0.3,0.5,0.7,0.7,1.1l0.1,0.1c0.1,0.2,0.2,0.4,0.3,0.5   c0.3,0.5,0.6,0.9,0.9,1.3c3,3.7,8.2,4.6,12.3,2.3c0,0,0.1-0.1,0.1-0.1c0.2-0.1,0.4-0.3,0.6-0.4c0.1,0,0.1-0.1,0.2-0.1l0.1-0.1   c1.7-0.8,3.7-0.3,4.9,1.1C53.5,25.9,53.7,27.5,53.2,28.9z"></path>
</g>
</svg>