<svg version="1.1" xml:space="preserve" width="62" height="62" viewBox="0 0 500 500">
  <g>
  <path id="mix" class="fil1" d="M127 341c0,-61 0,-121 0,-182 0,-1 1,-3 1,-4 4,-14 13,-23 27,-27 1,0 3,-1 4,-1 61,0 121,0 182,0 1,0 1,0 1,0 11,2 20,8 26,17 3,6 5,13 5,20 0,57 0,115 0,172 0,2 0,4 -1,6 -1,9 -4,16 -10,21 -7,7 -16,10 -25,10 -58,0 -116,0 -174,0 -3,0 -6,0 -8,-1 -14,-4 -23,-13 -27,-27 0,-1 -1,-3 -1,-4zm219 -35c2,-1 4,-2 6,-3 3,-1 6,1 7,4 0,2 -1,4 -3,6 -1,0 -3,1 -4,1 -1,1 -1,1 -2,1 2,10 0,19 -6,27 -5,5 -11,8 -18,10 -14,2 -29,-6 -34,-20 -4,-13 1,-28 13,-36 13,-7 31,-5 41,10zm-6 13c0,1 -1,1 -1,1 -4,2 -8,3 -11,5 -4,1 -8,-1 -8,-6 1,-2 2,-3 4,-4 1,0 2,-1 4,-2 3,-1 5,-2 8,-3 -5,-8 -16,-10 -25,-5 -8,4 -13,15 -9,25 4,9 15,14 25,11 10,-3 15,-13 13,-22zm-118 -11c-1,-1 -3,-2 -5,-3 -1,-1 -2,-2 -2,-4 0,-2 1,-4 3,-5 1,-1 3,-1 5,0 1,1 2,2 4,3 0,1 1,1 1,1 1,0 1,0 1,-1 7,-5 15,-7 23,-7 14,1 24,11 27,24 3,16 -7,31 -22,35 -17,5 -33,-5 -37,-22 -2,-7 -1,-13 2,-19 0,0 0,-1 0,-1 0,0 0,0 0,-1zm15 -1c1,1 2,2 4,3 2,1 5,3 7,5 2,2 3,4 2,6 -1,2 -4,4 -6,3 -1,0 -2,-1 -3,-1 -3,-2 -5,-4 -8,-7 -1,0 -2,-1 -2,-1 -4,8 -1,19 8,24 8,5 20,3 26,-5 6,-8 5,-19 -2,-26 -8,-7 -19,-7 -26,-1zm-33 29c2,2 3,3 5,4 2,2 2,3 1,6 0,2 -2,3 -4,3 -1,0 -3,0 -4,-1 -1,-1 -3,-2 -4,-4 -8,7 -17,10 -27,8 -7,-2 -13,-6 -17,-11 -10,-12 -9,-28 1,-39 9,-11 26,-13 38,-5 11,6 19,22 11,39zm-9 -6c4,-7 2,-18 -6,-24 -8,-6 -20,-5 -27,3 -7,8 -6,20 1,27 8,8 20,7 26,2 -1,-1 -1,-1 -2,-2 -3,-2 -6,-4 -9,-7 -2,-1 -2,-4 -1,-6 1,-2 3,-3 5,-3 1,1 3,1 4,2 3,3 6,5 9,8zm-23 -111c-5,-2 -9,-4 -12,-9 -2,-3 -3,-7 -3,-11 0,-9 5,-16 15,-20 0,0 0,-1 0,-2 0,-7 0,-15 0,-23 0,-1 0,-2 1,-3 0,-2 2,-3 4,-3 2,0 4,1 5,3 0,1 0,2 0,3 0,8 0,15 0,23 0,1 0,1 0,2 10,3 16,10 16,21 -1,10 -6,16 -16,19 0,1 0,2 0,3 0,14 0,28 0,42 0,1 0,2 0,3 -1,2 -2,4 -5,4 -2,0 -4,-2 -5,-4 0,-1 0,-2 0,-3 0,-14 0,-28 0,-42 0,-1 0,-2 0,-3zm5 -10c5,1 11,-4 11,-10 0,-5 -5,-10 -11,-10 -6,0 -10,4 -10,10 0,6 5,11 10,10zm77 -9c11,4 16,11 15,20 0,10 -5,16 -15,20 0,0 0,1 0,2 0,8 0,15 0,23 0,2 0,4 -2,5 -2,1 -3,1 -5,0 -2,-1 -3,-2 -3,-4 0,-6 0,-11 0,-17 0,-3 0,-6 0,-9 -1,0 -1,-1 -2,-1 -7,-3 -12,-8 -13,-16 -2,-11 4,-19 13,-22 0,-1 1,-1 2,-1 0,-1 0,-2 0,-3 0,-14 0,-28 0,-42 0,-1 0,-2 0,-2 0,-3 2,-5 5,-5 2,0 5,2 5,4 0,1 0,2 0,2 0,15 0,29 0,43 0,1 0,2 0,3zm-5 10c-5,-1 -10,4 -10,10 0,6 5,10 11,10 5,0 9,-4 9,-11 0,-5 -5,-10 -10,-9zm77 -51c10,3 16,11 15,22 -1,9 -6,15 -15,18 0,0 0,1 0,2 0,20 0,41 0,62 0,1 0,2 0,3 0,3 -2,5 -5,5 -3,0 -5,-2 -5,-5 0,-1 0,-1 0,-2 0,-21 0,-42 0,-63 0,-1 0,-2 0,-2 -10,-4 -16,-11 -16,-22 1,-7 4,-15 16,-18 0,-2 0,-4 0,-6 0,-2 1,-4 3,-5 4,-1 7,2 7,4 0,1 0,2 0,4 0,1 0,2 0,3zm-5 30c5,0 10,-5 10,-10 0,-6 -5,-11 -10,-11 -6,0 -11,5 -11,11 0,5 5,10 11,10zm42 61c0,-28 0,-56 0,-84 0,-2 0,-4 -1,-6 0,-8 -4,-14 -10,-18 -5,-3 -10,-5 -16,-5 -57,0 -114,0 -170,0 -2,0 -4,0 -6,1 -10,1 -17,6 -21,16 -1,3 -2,7 -2,10 0,57 0,114 0,171 0,2 0,3 0,5 1,8 5,14 12,18 4,4 10,5 15,5 56,0 113,0 169,0 3,0 5,0 7,-1 6,0 11,-3 16,-8 5,-5 7,-11 7,-18 0,-29 0,-57 0,-86z"></path>
</g>
  </svg>