<svg version="1.1" id="Layer_1" x="0px" y="0px" viewBox="0 0 70 70" style="enable-background:new 0 0 70 70;" xml:space="preserve" width="62" height="62">
<g>
	<path d="M58.6,53.2h-7.9c-0.1,0-0.2,0-0.3-0.1c-0.1,0-0.1,0-0.2,0l-0.2,0c-0.1,0-0.1-0.1-0.2-0.1c-0.1,0-0.1-0.1-0.2-0.1l-0.1,0   c-0.2-0.1-0.3-0.2-0.4-0.3L49,52.5c0-0.1-0.1-0.1-0.1-0.2c0-0.1,0-0.1-0.1-0.2l0,0l-7.8-16c-0.3-0.5-0.3-1.1-0.1-1.6   c0.2-0.5,0.6-1,1.1-1.2c1.1-0.5,2.3-0.1,2.9,1l7.3,14.9h3L42.8,23.8L37.3,35l7.4,15.1c0.1,0.1,0.1,0.1,0.1,0.3v1.2l0,0   c0,0-0.1,0.1-0.1,0.1c0,0,0,0,0,0c0,0.1-0.1,0.2-0.1,0.2v0l0,0l-0.1,0.2c0,0.1-0.1,0.2-0.1,0.2l-0.1,0.2l-0.1,0.1h-0.1   c0,0-0.1,0.1-0.2,0.1c0,0-0.1,0.1-0.1,0.1L43.7,53h-0.1c0,0-0.1,0-0.1,0c-0.1,0-0.1,0.1-0.2,0.1H26.6c-0.1,0-0.1,0-0.2-0.1   c0,0-0.1,0-0.1,0h-0.1l-0.1-0.1c-0.1,0-0.1-0.1-0.1-0.1H26l-0.3-0.3l-0.1-0.3c0,0-0.1-0.1-0.1-0.2L25.4,52   c-0.1-0.1-0.1-0.1-0.1-0.2c-0.1-0.1-0.1-0.1-0.1-0.3v-1.1c0-0.1,0.1-0.2,0.1-0.2v0l0,0L32.7,35l-5.5-11.4L14.9,48.9H18l7.4-14.9   c0.5-1.1,1.8-1.5,2.9-1c0.5,0.3,0.9,0.7,1.1,1.2c0.2,0.5,0.1,1.1-0.1,1.6l-8,16.2c0,0.1-0.1,0.4-0.2,0.5l-0.1,0.1   c-0.1,0.1-0.1,0.1-0.2,0.2c-0.1,0-0.1,0.1-0.2,0.1l0,0h-0.1c-0.1,0.1-0.3,0.2-0.4,0.2h-0.1c-0.2,0.1-0.3,0.1-0.5,0.1h-7.9   c-0.3,0-0.6-0.1-0.9-0.2c-0.5-0.3-0.9-0.7-1.1-1.2c-0.2-0.5-0.1-1.1,0.1-1.6l15.7-32.2c0.2-0.4,0.5-0.7,1-1c1.1-0.5,2.3-0.1,2.9,1   l6,12.2l6-12.2c0.2-0.4,0.5-0.7,1-1c1.1-0.5,2.3-0.1,2.9,1l15.7,32.2c0.1,0.3,0.2,0.6,0.2,1C60.7,52.3,59.8,53.2,58.6,53.2z    M50.1,52.9L50.1,52.9c0.2,0,0.3,0,0.4,0.1c0.1,0,0.1,0,0.2,0h7.9c1,0,1.9-0.8,1.9-1.9c0-0.4-0.1-0.7-0.2-0.8v0L44.6,18.1   c-0.2-0.5-0.6-0.8-1.1-0.9c-0.5-0.2-1-0.1-1.4,0.1c-0.4,0.2-0.7,0.5-0.8,0.8L35,30.7l-6.2-12.6c-0.5-0.9-1.6-1.3-2.5-0.8   c-0.4,0.2-0.7,0.5-0.8,0.8L9.7,50.3c-0.5,0.9-0.1,2.1,0.8,2.5c0.3,0.1,0.6,0.2,0.8,0.2h7.9c0.2,0,0.3,0,0.4-0.1l0.1,0h0.1   c0.1,0,0.2-0.1,0.3-0.2l0,0h0.1c0.1,0,0.1-0.1,0.2-0.1c0.1,0,0.1-0.1,0.2-0.1l0.1-0.1c0.1-0.1,0.2-0.3,0.2-0.3l0-0.1l8-16.2   c0.2-0.5,0.3-1,0.1-1.4s-0.5-0.9-0.9-1.1c-0.9-0.5-2.1-0.1-2.5,0.8l-7.4,15.1h-3.7L27.2,23l5.7,12l-7.4,15.2c0,0.1-0.1,0.1-0.1,0.2   l0,1.1c0,0,0,0,0,0c0,0,0,0,0.1,0.1l0,0v0.1c0,0,0,0,0,0c0,0,0,0,0.1,0.1l0,0l0.1,0.3c0,0,0.1,0.1,0.1,0.2l0.1,0.2l0.2,0.2   c0.1,0,0.1,0.1,0.1,0.1h0.1l0.1,0.1c0.1,0,0.1,0,0.1,0.1c0,0,0.1,0,0.1,0h16.7c0,0,0.1,0,0.1,0c0,0,0.1,0,0.1-0.1l0.1-0.1h0.1   c0,0,0.1-0.1,0.2-0.1c0,0,0.1-0.1,0.1-0.1l0.1-0.1l0.1-0.2c0,0,0.1-0.1,0.1-0.1l0-0.1l0.1-0.2c0-0.1,0.1-0.1,0.1-0.2   c0-0.1,0-0.2,0.1-0.3v-1c0,0,0,0,0,0c0,0,0,0-0.1-0.1l0,0L37.1,35l0-0.1l5.7-11.7l12.7,26.1h-3.6l-7.3-15.1   c-0.2-0.5-0.6-0.8-1.1-0.9c-0.5-0.2-1-0.1-1.4,0.1c-0.5,0.2-0.8,0.6-1,1.1c-0.2,0.5-0.1,1,0.1,1.4l7.8,16c0.1,0.1,0.1,0.2,0.1,0.2   c0,0,0,0.1,0.1,0.2l0.1,0.1c0.1,0.1,0.2,0.2,0.3,0.3h0.1l0,0c0,0,0.1,0.1,0.2,0.1C50,52.8,50.1,52.8,50.1,52.9z M39.9,49.2h-9.7   l4.9-9.9L39.9,49.2z M30.6,49h8.9l-4.4-9.1L30.6,49z"></path>
</g>
</svg>