<svg version="1.1" id="Layer_1" x="0px" y="0px" viewBox="0 0 500 500" enable-background="new 0 0 500 500" xml:space="preserve" width="62" height="62">
<g>
	<circle cx="128.8" cy="373" r="8.1"></circle>
	<circle cx="128.8" cy="347.7" r="8.1"></circle>
	<circle cx="128.8" cy="322.3" r="8.1"></circle>
	<circle cx="128.8" cy="296.9" r="8.1"></circle>
	<circle cx="158" cy="373" r="8.1"></circle>
	<circle cx="158" cy="347.7" r="8.1"></circle>
	<circle cx="158" cy="322.3" r="8.1"></circle>
	<circle cx="158" cy="296.9" r="8.1"></circle>
	<circle cx="158" cy="271.5" r="8.1"></circle>
	<circle cx="158" cy="220.7" r="8.1"></circle>
	<circle cx="158" cy="195.4" r="8.1"></circle>
	<circle cx="158" cy="246.1" r="8.1"></circle>
	<circle cx="187.3" cy="373" r="8.1"></circle>
	<circle cx="187.3" cy="347.7" r="8.1"></circle>
	<circle cx="216.5" cy="373" r="8.1"></circle>
	<circle cx="216.5" cy="347.7" r="8.1"></circle>
	<circle cx="216.5" cy="322.3" r="8.1"></circle>
	<circle cx="216.5" cy="296.9" r="8.1"></circle>
	<circle cx="216.5" cy="271.5" r="8.1"></circle>
	<circle cx="245.8" cy="373" r="8.1"></circle>
	<circle cx="245.8" cy="347.7" r="8.1"></circle>
	<circle cx="245.8" cy="322.3" r="8.1"></circle>
	<circle cx="245.8" cy="296.9" r="8.1"></circle>
	<circle cx="216.5" cy="246.1" r="8.1"></circle>
	<circle cx="216.5" cy="220.7" r="8.1"></circle>
	<circle cx="245.8" cy="271.5" r="8.1"></circle>
	<circle cx="245.8" cy="246.1" r="8.1"></circle>
	<circle cx="275" cy="373" r="8.1"></circle>
	<circle cx="275.2" cy="347.7" r="8.1"></circle>
	<circle cx="275.2" cy="322.3" r="8.1"></circle>
	<circle cx="275.2" cy="296.9" r="8.1"></circle>
	<circle cx="304.4" cy="373" r="8.1"></circle>
	<circle cx="304.4" cy="347.7" r="8.1"></circle>
	<circle cx="304.4" cy="322.3" r="8.1"></circle>
	<circle cx="275.1" cy="271.5" r="8.1"></circle>
	<circle cx="275.1" cy="220.7" r="8.1"></circle>
	<circle cx="275.1" cy="170" r="8.1"></circle>
	<circle cx="275.1" cy="144.6" r="8.1"></circle>
	<circle cx="275.1" cy="119.2" r="8.1"></circle>
	<circle cx="275.1" cy="195.4" r="8.1"></circle>
	<circle cx="275.1" cy="246.1" r="8.1"></circle>
	<circle cx="333.6" cy="373" r="8.1"></circle>
	<circle cx="333.6" cy="347.7" r="8.1"></circle>
	<circle cx="333.6" cy="322.3" r="8.1"></circle>
	<circle cx="333.6" cy="296.9" r="8.1"></circle>
	<circle cx="333.6" cy="271.5" r="8.1"></circle>
	<circle cx="362.9" cy="373" r="8.1"></circle>
	<circle cx="362.9" cy="347.7" r="8.1"></circle>
	<circle cx="362.9" cy="322.3" r="8.1"></circle>
	<circle cx="362.9" cy="296.9" r="8.1"></circle>
	<circle cx="362.9" cy="271.5" r="8.1"></circle>
	<circle cx="362.9" cy="220.7" r="8.1"></circle>
	<circle cx="362.9" cy="195.4" r="8.1"></circle>
	<circle cx="362.9" cy="246.1" r="8.1"></circle>
</g>
</svg>