<svg version="1.1" id="Layer_1" x="0px" y="0px" viewBox="0 0 70 70" style="enable-background:new 0 0 70 70;" xml:space="preserve" width="62" height="62">
<g>
	<path d="M28.8,34.2l-0.1,0.1v0.8l0.1,0.4c1.4,2.3,3.4,4.2,5.7,5.6l0.1,0.1h1l0.3-0.1c2.4-1.5,4.3-3.3,5.7-5.7l0.1-0.1v-0.8   l-0.1-0.3l-0.1-0.1c-1.3-2.1-3.2-3.9-5.6-5.4l-0.5-0.1l-0.7,0l-0.4,0.1C32,30.1,30.2,32,28.8,34.2z M34.5,29l0.8,0l0.2,0.1   c2.2,1.3,3.9,3,5.4,5.2l0,0.1v0.8l0,0.1c-1.3,2.2-3.2,4-5.5,5.4l-0.1,0l-0.8,0c-2.2-1.2-4-3.1-5.3-5.4l0-0.1v-0.8l0-0.1   C30.5,32.3,32.3,30.4,34.5,29L34.5,29z"></path>
	<path d="M48.9,34.6C44.8,27.7,38.6,23,36.1,21.4l-0.3-0.2l0.4-0.2c7.3-3.9,16.2-4.3,17.2-4.4l0.3,0l0,0.3c0,0.3-0.1,0.8-0.1,1.3   c-0.1,1.3-0.2,3-0.4,4.5c-0.4,2.8-1.7,6.2-1.7,6.3c0,0.1,0,0.1,0,0.1c0,0,0.1,0.1,0.2,0.1c0.1,0,0.1,0,0.2,0c0,0,0.1,0,0.1-0.1   c0-0.1,0.1-0.3,0.2-0.7c0.4-1.2,1.2-3.6,1.5-5.7c0.3-2.9,0.5-6.3,0.5-6.4V16h-0.3c-0.1,0-10.9,0.2-19.1,5.1   c-7,4.1-11.6,10.3-13.3,12.8l-0.2,0.3l-0.2-0.4c-3.9-7.4-4.4-16.3-4.5-17.3l0-0.3l0.3,0c0.3,0,0.8,0.1,1.3,0.1   c1.2,0.1,3,0.2,4.5,0.4c2.8,0.4,6.2,1.7,6.3,1.7c0.1,0,0.1,0,0.1,0c0,0,0.1-0.1,0.1-0.2c0-0.1,0-0.1,0-0.2c0,0,0-0.1-0.1-0.1   c-0.1,0-0.3-0.1-0.7-0.2c-1.2-0.4-3.6-1.2-5.7-1.5c-2.9-0.3-6.3-0.5-6.4-0.5l-0.2,0v0.3c0,0.1,0.2,10.9,5.1,19.1   c4.2,7,10.4,11.7,12.9,13.3l0.3,0.2l-0.4,0.2c-7.4,4-16.4,4.5-17.4,4.5l-0.3,0l0-0.3c0-0.3,0.1-0.8,0.1-1.3c0.1-1.2,0.2-3,0.4-4.5   c0.4-2.8,1.7-6.2,1.7-6.3c0-0.1,0-0.1,0-0.1c0,0-0.1-0.1-0.2-0.1c-0.1,0-0.1,0-0.2,0c0,0-0.1,0-0.1,0.1c0,0.1-0.1,0.3-0.2,0.7   c-0.4,1.2-1.2,3.6-1.5,5.7c-0.3,2.9-0.5,6.3-0.5,6.4v0.1l0.3-0.1c0.1,0,10.4-0.2,18.6-4.8l0.6-0.4c7-4.2,11.6-10.4,13.2-12.9   l0.2-0.3l0.2,0.4c4,7.4,4.5,16.5,4.6,17.5l0,0.3l-0.3,0c-0.3,0-0.8-0.1-1.3-0.1c-1.2-0.1-3-0.2-4.5-0.4c-2.8-0.4-6.2-1.7-6.3-1.7   c-0.1,0-0.1,0-0.1,0c0,0-0.1,0.1-0.1,0.2c0,0.1,0,0.1,0,0.2c0,0,0,0.1,0.1,0.1c0.1,0,0.3,0.1,0.7,0.2c1.2,0.4,3.6,1.2,5.7,1.5   c2.9,0.3,6.3,0.5,6.4,0.5H54L54,53.7C54,53.6,53.7,42.8,48.9,34.6z M48.3,35.1C46.6,37.7,42,44,34.9,48.3l-0.1,0.1l-0.1-0.1   c-2.5-1.7-8.9-6.3-13.2-13.5l-0.1-0.1l0.1-0.2c0.2-0.3,5.2-8.2,13.5-13l0.3-0.2l0.1,0.1c0.8,0.5,8.1,5.3,12.9,13.4l0.1,0.1   L48.3,35.1z"></path>
</g>
</svg>