<svg version="1.1" id="Layer_1" x="0px" y="0px" viewBox="0 0 70 70" style="enable-background:new 0 0 70 70;" xml:space="preserve" width="62" height="62">
<g>
	<path class="st0" d="M48.2,15.2L48.2,15.2L48,15.1c-1.2-1.2-4.6-4.2-9.7-5.2c-0.2,0-0.4,0.1-0.4,0.3L35,19.3l-2.8-9.1   c0,0,0,0-0.1-0.1L32.1,10c-0.1-0.1-0.2-0.2-0.4-0.1c-5,0.9-8.4,3.8-9.6,5.1l-0.1,0.1l-0.2,0.2c-3.3,3.4-4.9,6.5-5.1,9.4   c-0.2,3.9-0.3,9.6-0.1,17c0,0.1,0,0.1,0.1,0.2L29,59.5c0.1,0.1,0.2,0.2,0.3,0.2c0.1,0,0.2,0,0.3-0.1l0.3-0.3C30,59.1,30,59,30,58.9   V48.2l0.2-0.3c1.7-2.9,2.7-4.7,3.3-5.8c0.3-0.6,0.9-0.9,1.5-0.9c0.6,0,1.2,0.4,1.5,0.9c0.6,1.1,1.6,3,3.3,5.8l0.2,0.3v10.7   c0,0.1,0,0.2,0.1,0.3l0.3,0.3c0.1,0.1,0.2,0.1,0.3,0.1c0.1,0,0.3-0.1,0.3-0.2l12.3-17.6c0-0.1,0.1-0.1,0.1-0.2   c0.2-7.4,0.1-13.1-0.1-17l0.1,0l0,0l-0.1,0C53.1,21.8,51.4,18.7,48.2,15.2z M32.1,41.3c-1.2,0.6-2.4,0.9-3.6,0.9   c-0.9,0-1.8-0.2-2.6-0.6c-2.3-1.1-3.8-3.7-4.1-6.9l0-0.3l1.1-2.9l1.5,1.2c3,2.3,7.7,6.1,7.9,6.3l1.7,1.3L32.1,41.3z M35.9,40.3   l1.7-1.3c0.8-0.7,5.2-4.1,7.9-6.3l1.5-1.2l1.1,2.9l0,0.3c-0.3,3.2-1.8,5.8-4.1,6.9c-0.8,0.4-1.7,0.6-2.6,0.6   c-1.2,0-2.4-0.3-3.6-0.9L35.9,40.3z M52.6,41.1l0,0.4l0,0.1L40.8,58.4V48.1c0-0.1,0-0.1-0.1-0.2c-0.6-1-1.2-2-1.7-2.9l-1.4-2.5   l2.8,0.4c1.4,0.2,2.7,0,3.9-0.6c2.6-1.3,4.4-4.4,4.6-8c0-0.1,0-0.1,0-0.2l-1.3-3.4c0-0.1-0.1-0.2-0.3-0.2c-0.1,0-0.2,0-0.3,0.1   c-1.8,1.3-9.6,7.5-11.1,8.8L35,40.1l-0.9-0.7c-6-4.8-9.9-7.9-11.1-8.8c-0.1-0.1-0.2-0.1-0.3-0.1c-0.1,0-0.2,0.1-0.3,0.2l-1.3,3.4   c0,0,0,0.1,0,0.2c0.2,3.6,1.9,6.7,4.6,8c1.2,0.6,2.5,0.8,3.9,0.6l2.8-0.4L31,45.1c-0.5,0.9-1.1,1.9-1.7,2.9c0,0.1-0.1,0.1-0.1,0.2   v10.3L17.4,41.5l0-0.4c-0.2-8.8-0.1-13.8,0.1-16.4c0.2-2.7,1.8-5.7,5-9c1-1,3.6-3.4,7.7-4.6l1.3-0.4l3.1,10.1c0,0,0,0,0.1,0.1   c0,0.1,0.1,0.1,0.1,0.1c0.1,0,0.1,0.1,0.1,0.1l0.1,0c0.1,0,0.2,0,0.2,0c0.1,0,0.1,0,0.1-0.1c0.1,0,0.1-0.1,0.1-0.1   c0.1-0.1,0.1-0.1,0.1-0.1l3.1-10.1l1.3,0.4c4.2,1.3,6.9,3.8,7.7,4.6c3.2,3.3,4.9,6.4,5,9.1C52.6,27.3,52.8,32.3,52.6,41.1z"></path>
</g>
</svg>