<svg version="1.1" id="Layer_1" x="0px" y="0px" viewBox="0 0 180 180" style="enable-background:new 0 0 180 180;" xml:space="preserve" width="62" height="62">
<g>
	<path d="M146.8,47.8h-117c-3.9,0-7,3.1-7,7v69.8c0,3.9,3.1,7,7,7h14.2H45h28.6h1.1h29h1.1h29.8h1.1h11.2c3.9,0,7-3.1,7-7V54.8   C153.8,50.9,150.6,47.8,146.8,47.8z M75,130.5l1.7-4.7c0.8-2.2,3-3.8,5.4-3.8h14.1c2.4,0,4.5,1.5,5.4,3.8l1.7,4.7H75z M104.3,130.5   l-1.8-5.1c-1-2.6-3.5-4.4-6.3-4.4H82.1c-2.8,0-5.3,1.8-6.3,4.4l-1.8,5.1H45.3l5.1-15.7c0.7-2.3,2.9-3.8,5.3-3.8h68.2   c2.4,0,4.5,1.5,5.3,3.8l5.1,15.7H104.3z M152.8,124.5c0,3.3-2.7,6-6,6h-11.5l-5.2-16c-0.9-2.7-3.4-4.5-6.2-4.5H55.6   c-2.8,0-5.3,1.8-6.2,4.5l-5.2,16H29.8c-3.3,0-6-2.7-6-6V54.8c0-3.3,2.7-6,6-6h117c3.3,0,6,2.7,6,6V124.5z"></path>
	<path d="M136.8,58.3H41.3c-3.2,0-5.8,2.6-5.8,5.8v32.8c0,3.2,2.6,5.8,5.8,5.8h95.5c3.2,0,5.8-2.6,5.8-5.8V64   C142.5,60.8,139.9,58.3,136.8,58.3z M141.5,96.8c0,2.6-2.1,4.8-4.8,4.8H41.3c-2.6,0-4.8-2.1-4.8-4.8V64c0-2.6,2.1-4.8,4.8-4.8h95.5   c2.6,0,4.8,2.1,4.8,4.8V96.8z"></path>
	<path d="M98,71.5H80.3c-2.6,0-4.8,2.1-4.8,4.8v7c0,2.6,2.1,4.8,4.8,4.8H98c2.6,0,4.8-2.1,4.8-4.8v-7C102.8,73.6,100.6,71.5,98,71.5   z M101.8,83.3c0,2.1-1.7,3.8-3.8,3.8H80.3c-2.1,0-3.8-1.7-3.8-3.8v-7c0-2.1,1.7-3.8,3.8-3.8H98c2.1,0,3.8,1.7,3.8,3.8V83.3z"></path>
	<path d="M60.7,70.9c-4.9,0-8.8,4-8.8,8.8s4,8.8,8.8,8.8s8.8-4,8.8-8.8S65.5,70.9,60.7,70.9z M60.7,87.6c-4.3,0-7.8-3.5-7.8-7.8   s3.5-7.8,7.8-7.8s7.8,3.5,7.8,7.8S65,87.6,60.7,87.6z"></path>
	<path d="M117.7,70.9c-4.9,0-8.8,4-8.8,8.8s4,8.8,8.8,8.8s8.8-4,8.8-8.8S122.5,70.9,117.7,70.9z M117.7,87.6c-4.3,0-7.8-3.5-7.8-7.8   s3.5-7.8,7.8-7.8s7.8,3.5,7.8,7.8S122,87.6,117.7,87.6z"></path>
</g>
</svg>