<svg version="1.1" xml:space="preserve" width="62" height="62" viewBox="0 0 500 500">
  <g id="ps">
    <path class="fil1" d="M319 330c-2,0 -4,1 -4,3 -5,23 -12,43 -19,60 -3,3 -7,7 -11,10 0,1 -1,1 -1,1 -9,15 -21,24 -34,24 -13,0 -25,-9 -34,-24 0,0 -1,0 -1,-1 -4,-3 -8,-7 -11,-10 -7,-18 -14,-38 -19,-60 0,-2 -2,-3 -5,-3 -2,1 -3,3 -3,5 6,23 12,44 19,62 1,0 1,1 1,1 4,3 8,7 12,11 10,17 25,27 41,27l0 0 0 0c16,0 31,-10 41,-27 4,-4 7,-7 11,-11 1,0 1,-1 1,-1 8,-19 14,-39 19,-62 1,-2 -1,-4 -3,-5z"></path>
    <path class="fil1" d="M339 223c6,-15 8,-33 7,-54 -1,-16 -9,-34 -19,-46 -10,-12 -33,-31 -77,-31 -44,0 -67,19 -77,31 -10,12 -18,30 -19,46 -1,21 1,39 7,54 8,22 36,42 51,46 4,1 9,2 13,3l-23 8c-25,-12 -35,-33 -40,-44 -1,-2 -3,-3 -5,-2 -1,0 -3,2 -2,4 3,18 4,35 2,48 0,0 0,1 0,1 0,1 0,2 1,3l0 1c1,0 1,0 1,0 1,1 2,3 3,4l4 6c12,13 25,23 36,30 0,0 0,0 0,0l13 59c0,2 2,3 4,3 0,0 0,0 1,0 2,-1 3,-3 3,-5l-12 -52c1,1 3,1 3,2 1,0 2,0 2,0 2,0 3,-1 4,-2 1,-2 0,-4 -2,-5 -11,-5 -31,-17 -46,-35l-4 -6c-1,-1 -2,-3 -3,-4 1,-8 1,-18 1,-28 7,10 18,22 34,30 1,0 2,0 3,0l37 -13c1,-1 2,-2 2,-4 0,-2 -1,-3 -3,-4 -3,0 -7,-2 -11,-2 -4,-2 -9,-3 -14,-4 -13,-4 -39,-22 -46,-41 -5,-14 -7,-31 -5,-51 1,-14 7,-31 17,-41 8,-11 30,-28 70,-28 41,0 62,17 71,28 10,11 16,27 17,41 1,20 0,37 -6,51 -7,19 -32,37 -46,41 -4,2 -9,3 -14,4 -4,1 -8,2 -11,2 -1,1 -3,2 -3,4 0,2 2,3 3,4l37 13c1,0 1,0 3,0 16,-8 27,-20 34,-30 -1,10 -1,20 0,28 -1,1 -1,2 -2,4l-5 6c-15,18 -35,29 -45,34 -2,1 -3,4 -2,6 0,1 2,2 3,2 1,0 1,0 2,0 1,-1 2,-1 3,-2l-11 52c-1,2 1,4 3,5 0,0 0,0 1,0 2,0 3,-1 4,-3l13 -59c0,0 0,0 0,0 11,-7 24,-17 35,-30l5 -6c1,-1 2,-3 3,-4 0,0 0,0 1,-1l0 0c1,-1 1,-3 1,-4 -2,-14 -1,-30 2,-48 0,-2 -1,-3 -3,-4 -2,-1 -4,1 -5,2 -4,10 -14,31 -39,44l-23 -8c4,-1 8,-2 12,-3 15,-4 43,-24 51,-46z"></path>
    <path class="fil1" d="M410 210c0,-26 -6,-55 -17,-79 -17,-33 -40,-51 -77,-60 -19,-4 -44,-7 -66,-7l0 0 0 0c-23,0 -47,3 -66,7 -38,10 -61,27 -77,60 -12,24 -18,53 -17,79 0,1 0,1 0,2 0,0 0,0 0,1 0,1 0,3 0,4 1,15 5,32 12,46 5,10 30,22 38,25 1,0 1,0 2,0 0,0 1,0 2,0 1,-1 1,-2 1,-3 0,-1 3,-25 -3,-66 -5,-33 0,-55 0,-55 1,-2 0,-3 0,-4 -1,-1 -3,-1 -4,-1 -13,1 -28,7 -38,19 3,-15 8,-30 14,-44 16,-30 37,-47 72,-55 18,-5 42,-7 64,-7l0 0 0 0 0 0c22,0 46,2 64,7 35,8 56,25 71,55 7,14 12,29 15,44 -10,-12 -25,-18 -38,-19 -2,0 -3,0 -4,1 -1,1 -1,2 -1,4 0,0 6,22 1,55 -6,41 -4,65 -4,66 1,1 1,2 2,2 1,1 2,1 3,1 0,0 0,0 1,0 8,-3 33,-15 38,-25 7,-14 11,-31 12,-46 0,-2 0,-3 0,-5 0,0 0,0 0,-1 0,0 0,0 0,-1zm-277 -43c-1,9 -3,29 1,53 4,29 4,50 4,59 -11,-5 -27,-14 -29,-19 -7,-13 -11,-29 -12,-43 0,-2 0,-5 0,-7 1,-26 19,-39 36,-43zm269 50c-1,14 -5,30 -11,43 -3,5 -19,14 -29,18 0,-9 -1,-29 4,-58 4,-25 2,-44 0,-53 17,4 36,17 36,43 0,2 0,5 0,7z"></path>
   </g>
</svg>