<svg version="1.1" id="Layer_1" data-name="Layer 1" viewBox="0 0 70 70" width="62" height="62"><defs></defs>
<g>
<path class="cls-1" d="M33.7,32.32l-6,10.37a1.54,1.54,0,0,0,0,1.5,1.52,1.52,0,0,0,1.3.75H41a1.52,1.52,0,0,0,1.3-.75,1.54,1.54,0,0,0,0-1.5l-6-10.37a1.5,1.5,0,0,0-2.6,0Zm4.69,9.62H31.61L35,36.07Z"></path><path class="cls-1" d="M22.33,50.82H16.45l2.94-5.1a1.5,1.5,0,0,0-2.6-1.5l-4.24,7.35,0,.07a1,1,0,0,0-.07.15.74.74,0,0,0,0,.14.58.58,0,0,0,0,.14.88.88,0,0,0,0,.16s0,.06,0,.09a.43.43,0,0,1,0,0c0,.05,0,.1,0,.15l0,.14a.74.74,0,0,0,0,.14.78.78,0,0,0,.05.14l.07.13.07.11.1.12.09.1.11.09.13.1,0,0,.06,0,.25.1.09,0a1.34,1.34,0,0,0,.35,0h8.48a1.5,1.5,0,1,0,0-3Z"></path><path class="cls-1" d="M57.44,53.06a.75.75,0,0,0,.07-.12.78.78,0,0,0,.05-.14.74.74,0,0,0,0-.14l0-.14c0-.05,0-.1,0-.15a.43.43,0,0,1,0,0s0-.06,0-.09a.88.88,0,0,0,0-.16.58.58,0,0,0,0-.14.74.74,0,0,0,0-.14,1,1,0,0,0-.07-.15l0-.07-4.24-7.35a1.5,1.5,0,0,0-2.6,1.5l2.94,5.1H47.67a1.5,1.5,0,0,0,0,3h8.48a1.34,1.34,0,0,0,.35,0l.09,0,.25-.1.06,0,0,0,.13-.1.11-.09.09-.1.1-.12Z"></path><path class="cls-1" d="M30.07,24.39a1.47,1.47,0,0,0,.73.19,1.49,1.49,0,0,0,1.31-.77L35,18.68l3,5.06a1.49,1.49,0,0,0,1.29.74,1.54,1.54,0,0,0,.77-.21,1.5,1.5,0,0,0,.52-2.06l-4.32-7.29s0,0,0-.07a1.13,1.13,0,0,0-.1-.13l-.1-.11-.11-.09-.13-.1-.07,0,0,0a.47.47,0,0,0-.15-.06l-.14-.06-.11,0-.18,0h-.29l-.1,0-.18,0-.1,0-.17.08,0,0-.06,0-.14.1-.1.1a.52.52,0,0,0-.1.11l-.09.13-.05.07L29.5,22.34A1.51,1.51,0,0,0,30.07,24.39Z"></path><path class="cls-1" d="M35,22.16a1.49,1.49,0,0,0-1.3.75L19.56,47.4a1.49,1.49,0,0,0,0,1.5,1.52,1.52,0,0,0,1.3.75H49.14a1.52,1.52,0,0,0,1.3-.75,1.49,1.49,0,0,0,0-1.5L36.3,22.91A1.49,1.49,0,0,0,35,22.16ZM23.46,46.65,35,26.66l11.54,20Z"></path>
</g>
</svg>