<svg version="1.1" x="0px" y="0px" width="62" height="62" viewBox="-53.9 -10 500 500" enable-background="new -53.9 -10 500 500" xml:space="preserve">
<defs>
</defs>
<g>
<path d="M231,317.8h-59.6c-0.8,0-2.4,0-2.4-0.8C135.2,264.7,65.2,218.8,1.6,181.8C0,181,0,179.3,0,177.7c0.8-1.6,2.4-1.6,4-1.6  C25,185,41.9,193,58.8,200.3c30.6,14.5,59.6,27.4,107.1,43.5l17.7-17.7c0.8,0,1.6-0.8,2.4-0.8l0,0h29.8c0.8,0,1.6,0.8,2.4,0.8  l16.9,17.7c48.3-16.1,77.3-29.8,108.7-43.5c16.9-8.1,33.8-16.1,54.7-24.1c1.6-0.8,2.4,0,4,1.6c0,1.6,0,2.4-1.6,4  c-4,2.4-8,4-12.1,6.4c-48.3,28.2-115.1,66-155.4,128C232.7,317.8,231.8,317.8,231,317.8z M173.1,312.2h56.4  c32.2-49.1,81.3-83.7,124-109.5c-2.4,0.8-4.8,1.6-7.3,3.2c-31.4,14.5-61.2,28.2-110.3,44.3c-1.6,0-2.4,0-3.2-0.8l-17.7-17.7h-28.2  l-18.5,17.7c-0.8,1.6-1.6,1.6-2.4,0.8c-49.1-16.1-78.1-29.8-109.5-44.3c-4.8-1.6-8.9-4-12.9-5.6C95.8,232.5,145.7,270.3,173.1,312.2  z M199.7,291.2c-4,0-8.9-3.2-12.1-8.9c-4-4.8-6.4-12.9-7.2-18.5c0,0,0-0.8,0-1.6c0-9.7,8.9-18.5,20.1-18.5l0,0  c5.6,0,10.4,1.6,13.7,5.6c4,3.2,5.6,8,5.6,13.7c0,5.6-2.4,13.7-6.4,19.3c-4,5.6-8.1,8.9-12.9,8.9H199.7z M200.5,247v3.2  c-7.3,0-13.7,5.6-13.7,12.1c0,0.8,0,0.8,0,0.8c0.8,4.8,2.4,12.1,5.6,16.1c2.4,3.2,5.6,5.6,8.1,5.6c2.4,0,5.6-2.4,8.1-6.4  c3.2-4.8,5.6-11.3,5.6-16.1c0-3.2-1.6-6.5-4-8.9c-2.4-2.4-5.6-3.2-9.7-3.2V247z"></path>
	</g>
</svg>