<svg version="1.1" id="Layer_1" x="0px" y="0px" viewBox="0 0 70 70" style="enable-background:new 0 0 70 70;" xml:space="preserve" width="62" height="62">
<g>
	<path class="st0" d="M57,28.5l-4.8-4.4c-0.1-0.1-0.2-0.1-0.3-0.1c-0.1,0-0.2,0.1-0.3,0.1c-0.3,0.3-6.7,7.8-5.8,17.7l0.3,2.8l-7.8-7   l0.4-0.8c5.6-9.8,11.8-16.2,12-16.5c0.1-0.1,0.1-0.2,0.1-0.3c0-0.1-0.1-0.2-0.2-0.3l-7.4-4.5c-0.1-0.1-0.3-0.1-0.4,0   c-0.1,0.1-0.2,0.2-0.2,0.3c0,4.2-2.2,8.7-6.4,13.3l-0.8,0.9L34.5,29c-4.3-4.7-6.4-9.2-6.4-13.3c0-0.1-0.1-0.3-0.2-0.3   c-0.1-0.1-0.3-0.1-0.4,0l-7.4,5.5c-0.1,0.1-0.2,0.2-0.2,0.3c0,0.1,0.1,0.2,0.2,0.3c0,0,3.3,2.5,7.2,7.5l4.3,5.5L17.3,25   c-0.1-0.1-0.3-0.1-0.4,0L13,28c-0.2,0.1-0.2,0.4-0.1,0.5c0.4,0.6,10.4,13.8,3.3,20.6c-0.1,0.1-0.1,0.2-0.1,0.3   c0,0.1,0.1,0.2,0.2,0.3L24,54c0.1,0.1,0.2,0.1,0.3,0c0.1,0,0.2-0.1,0.2-0.2c0.1-0.3,2.4-7.8,0.4-15l-0.8-2.9l9,5.9L33,42.5   c-0.5,3.2-1.5,7.7-3.1,11.6c-0.1,0.1,0,0.3,0.1,0.4c0.1,0.1,0.2,0.1,0.4,0.1c0,0,5-1.4,9.1,0c0.1,0,0.3,0,0.4-0.1   c0.1-0.1,0.1-0.2,0.1-0.4c0,0-0.6-2.1-1.2-5l-0.8-3.8l9.3,9.3c0.1,0.1,0.2,0.1,0.3,0.1c0.1,0,0.2,0,0.2-0.1l7.1-6.3   c0.1-0.1,0.2-0.3,0.1-0.5c-0.2-0.4-5.9-10,2.1-18.8C57.1,28.9,57.1,28.7,57,28.5z M55.5,29.6c-5.6,7.1-3.1,14.7-1.8,17.6l0.3,0.8   l-6.6,5.9L37.6,44c-0.1-0.1-0.3-0.1-0.4-0.1C37,44,37,44.1,37,44.3c0.6,3,1.2,5.8,1.6,7.6l0.4,1.6l-1.6-0.2c-1.4-0.2-3.1-0.2-4.7,0   l-1.8,0.2l0.6-1.7c1.2-3.7,2-7.6,2.4-10.2c0-0.1,0-0.3-0.2-0.4l-10.9-7.2c-0.1-0.1-0.3-0.1-0.5,0c-0.1,0.1-0.2,0.3-0.1,0.5   c3.6,5.8,2.8,13.2,2,17L24,53.1l-6.7-3.7l0.7-1c4.4-6.3-1.6-16.2-3.6-19.1l-0.6-0.9l3.3-2.7l0.1,0l14.5,9.6c0.1,0.1,0.3,0.1,0.5,0   c0.1-0.1,0.2-0.3,0.1-0.5c-4-6.7-8.2-10.9-10.3-12.9l-1-0.9l6.3-4.7l0.3,1.8c0.7,3.9,3.2,7.9,7.2,12.1c0.2,0.2,0.3,0.3,0.3,0.3   c0.1,0.1,0.2,0.1,0.3,0.1h0c0.1,0,0.2,0,0.3-0.1c0,0,0.1-0.1,0.2-0.2l0.1-0.1c4.1-4.2,6.5-8.4,7.2-12.3l0.3-1.6l6.4,3.9l-0.9,1   c-2.4,2.7-7.1,8.5-11.5,16.3c-0.2,0.3-0.1,0.5,0,0.6c0,0,0.1,0.1,0.2,0.1l0.2,0.1l8.9,8c0.1,0.1,0.3,0.1,0.5,0   c0.1-0.1,0.2-0.3,0.2-0.4c-2.8-9.1,1.8-17,3.8-20l0.7-1L52,25l4.1,3.8L55.5,29.6z"></path>
</g>
</svg>