<svg version="1.1" id="Layer_1" x="0px" y="0px" viewBox="0 0 70 70" style="enable-background:new 0 0 70 70;" xml:space="preserve" width="62" height="62">
<g>
	<path class="st0" d="M39.6,25.5c-0.1-0.1-0.2-0.1-0.3-0.1h-8.3c-0.3,0-0.5,0.2-0.5,0.5v5.9c0,0.3,0.2,0.5,0.5,0.5h8.3   c0.1,0,0.2,0,0.3-0.1l0.9-0.8l0,0l0.3-0.3c0.1-0.1,0.2-0.2,0.2-0.4v-3.8c0-0.1-0.1-0.3-0.2-0.4L39.6,25.5z M40,30.5L39,31.3h-7.6   v-4.9H39l0.9,0.8V30.5z"></path>
	<path class="st0" d="M52.6,44.7h-1.8L46.6,38l4.7-4c0.1-0.1,0.2-0.2,0.2-0.4V22.9c0-0.1-0.1-0.3-0.2-0.4l-6.9-5.8   c-0.1-0.1-0.2-0.1-0.3-0.1H18.4c-0.3,0-0.5,0.2-0.5,0.5v7.8c0,0.3,0.2,0.5,0.5,0.5h2.8v19.3h-2.8c-0.3,0-0.5,0.2-0.5,0.5v7.8   c0,0.3,0.2,0.5,0.5,0.5h15.4c0.3,0,0.5-0.2,0.5-0.5v-7.8c0-0.3-0.2-0.5-0.5-0.5h-2.4v-5.2h3.9l8.1,13.8c0.1,0.2,0.3,0.2,0.4,0.2   h8.7c0.2,0,0.3-0.1,0.4-0.1s0.1-0.2,0.1-0.4v-7.8C53.1,44.9,52.8,44.7,52.6,44.7z M52.1,52.4h-8L36,38.7c-0.1-0.2-0.3-0.2-0.4-0.2   h-4.7c-0.3,0-0.5,0.2-0.5,0.5v6.2c0,0.3,0.2,0.5,0.5,0.5h2.4v6.8H18.9v-6.8h2.8c0.3,0,0.5-0.2,0.5-0.5V24.9c0-0.3-0.2-0.5-0.5-0.5   h-2.8v-6.8h25l6.6,5.6v10.3l-4.9,4.2c-0.2,0.2-0.2,0.4-0.1,0.6l4.6,7.2c0.1,0.1,0.3,0.2,0.4,0.2h1.5V52.4z"></path>
</g>
</svg>