<svg version="1.1" x="0px" y="0px" width="62" height="62" viewBox="-8 -2.1 500 500" enable-background="new -8 -2.1 500 500" xml:space="preserve">
<defs>
</defs>
<g>
<circle display="none" cx="138" cy="137" r="6"></circle>
<path display="none" d="M137,0C61,0,0,61,0,137s61,137,137,137s137-61,137-137S213,0,137,0z M137,266C66,266,8,208,8,137S66,8,137,8  s129,58,129,129S208,266,137,266z"></path>
<path display="none" d="M137,98c-22,0-39,17-39,39s17,39,39,39s39-17,39-39S159,98,137,98z M137,168c-17,0-31-14-31-31s14-31,31-31  s31,14,31,31S154,168,137,168z"></path>
<path display="none" d="M249,112c-10-44-45-78-89-87c-2-1-5,1-5,3s1,4,3,5c41,8,74,40,83,81c0,2,2,3,4,3c0,0,0,0,1,0  C248,117,250,114,249,112z"></path>
<path display="none" d="M155,50c-2,0-4,1-5,3c0,3,1,5,4,5c31,7,55,31,62,62c0,1,2,3,4,3h1c2,0,4-3,3-5C216,84,189,57,155,50z"></path>
<path display="none" d="M150,75c-2,0-4,1-5,3c0,3,2,5,4,5c21,5,38,21,42,42c1,2,2,4,5,4l0,0c3-1,4-3,4-5C194,99,175,80,150,75z"></path>
<path display="none" d="M116,239c-41-9-73-41-82-82c0-2-2-4-5-4c-2,1-3,3-3,5c9,45,43,80,88,89l0,0c2,0,4-1,5-3  C119,242,118,240,116,239z"></path>
<path display="none" d="M121,214c-31-7-55-31-61-62c-1-2-3-4-5-3c-2,0-4,2-3,4c7,35,33,62,67,69h1c2,0,4-1,4-3  C125,217,123,214,121,214z"></path>
<path display="none" d="M127,190c-21-5-38-22-42-43c-1-2-3-4-5-3c-3,0-4,2-4,5c5,24,24,43,49,49c0,0,0,0,1,0s3-1,4-4  C130,192,129,190,127,190z"></path>
<path d="M354.6,251.9h-84.1c-2.5,0-4.5-2-4.5-4.5c0-8.4-4.5-16.2-11.8-20.4c-2.1-1.2-2.9-4-1.6-6.1l42.1-72.8c0.6-1,1.6-1.8,2.7-2.1  c1.2-0.3,2.4-0.1,3.4,0.5c35.9,20.8,58.3,59.4,58.3,101C359.1,249.9,357.1,251.9,354.6,251.9z M274.7,242.9H350  c-1.5-35.1-20.2-67.5-49.9-86.4l-37.7,65.2C269.1,226.9,273.5,234.5,274.7,242.9z"></path>
<path d="M214.5,251.9h-84.1c-2.5,0-4.5-2-4.5-4.5c0-41.5,22.3-80.2,58.3-101c1-0.6,2.3-0.8,3.4-0.5c1.2,0.3,2.1,1.1,2.7,2.1  l42.1,72.8c1.2,2.2,0.5,4.9-1.6,6.1c-7.2,4.2-11.7,11.9-11.8,20.1v0.2C219,249.9,216.9,251.9,214.5,251.9z M134.9,242.9h75.3  c1.2-8.4,5.6-16,12.2-21.2l-37.6-65.2C155.2,175.4,136.4,207.7,134.9,242.9z"></path>
<path d="M242.5,364c-20.5,0-40.7-5.4-58.4-15.6c-2.2-1.2-2.9-4-1.6-6.1l42.1-72.8c0.6-1,1.6-1.8,2.7-2.1c1.2-0.3,2.4-0.1,3.4,0.5  c3.5,2,7.5,3.1,11.6,3.2h0.2c4.1,0,8.2-1.1,11.8-3.2c1-0.6,2.3-0.8,3.4-0.5c1.2,0.3,2.1,1.1,2.7,2.1l42.1,72.8  c1.2,2.2,0.5,4.9-1.6,6.1C283.2,358.6,262.9,364,242.5,364z M192.6,342.7c15.4,8,32.5,12.3,49.9,12.3c17.5,0,34.6-4.2,49.9-12.3  l-37.7-65.2c-3.9,1.6-8,2.4-12.2,2.4h-0.3c-4.1,0-8.2-0.9-11.9-2.4L192.6,342.7z"></path>
<path d="M242.5,263.4h-0.2c-8.9-0.1-16.1-7.4-16-16.3c0.1-8.8,7.3-16,16.2-16h0.2c4.3,0,8.4,1.8,11.4,4.8c3,3.1,4.7,7.2,4.6,11.5  C258.5,256.4,251.2,263.4,242.5,263.4z M242.6,240.2c-4,0-7.2,3.2-7.2,7.1s3.1,7.2,7.1,7.2h0.1c3.9,0,7.1-3.2,7.2-7.1  c0-1.9-0.7-3.7-2-5.1C246.3,241,244.5,240.2,242.6,240.2z"></path>
<path d="M242.5,384.9c-75.8,0-137.5-61.7-137.5-137.5s61.7-137.5,137.5-137.5S380,171.6,380,247.4S318.3,384.9,242.5,384.9z   M242.5,118.9c-70.9,0-128.5,57.6-128.5,128.5c0,70.9,57.6,128.5,128.5,128.5c70.9,0,128.5-57.7,128.5-128.5  S313.3,118.9,242.5,118.9z"></path>
	</g>
</svg>