<svg version="1.1" xml:space="preserve" width="62" height="62" viewBox="20 00 500 500">
  <g id="rock">
    <path class="fil1" d="M346 123c-14,0 -25,11 -25,25l0 63c-4,-4 -10,-7 -17,-7 -8,0 -16,5 -20,11 -4,-6 -12,-11 -21,-11 -6,0 -12,3 -16,7l0 -63c0,-14 -11,-25 -25,-25 -13,0 -24,11 -24,25l0 115 -27 -26c-4,-5 -10,-8 -17,-8 -6,0 -13,3 -17,8 -10,9 -10,25 0,35l60 60c1,1 1,1 1,1l0 18c0,3 2,5 4,5l164 0c3,0 5,-2 5,-5l0 -203c-1,-14 -12,-25 -25,-25zm16 224l-156 0 0 -16c0,-1 -1,-3 -2,-3l0 -1c0,0 -1,0 -1,0l-61 -61c-6,-6 -6,-17 0,-23 6,-6 17,-6 24,0l33 33c1,1 3,2 4,1 2,0 3,-2 3,-4l0 -125c0,-9 7,-17 16,-17 10,0 17,7 17,17l0 80c0,2 2,4 4,4 2,0 4,-2 4,-4 1,-8 8,-15 16,-15 9,0 16,7 17,15 0,2 2,4 4,4 2,0 4,-2 4,-4 1,-8 8,-15 17,-15 8,0 15,7 16,15 0,2 2,4 4,4 2,0 4,-2 4,-4l0 -80c0,-9 8,-17 17,-17 9,0 16,7 16,17l0 199 0 0 0 0z"></path>
    <path class="fil1" d="M366 369l-164 0c-2,0 -4,2 -4,4 0,2 2,4 4,4l164 0c3,0 5,-2 5,-4 0,-2 -2,-4 -5,-4z"></path>
   </g>
</svg>