<svg version="1.1" xml:space="preserve" width="62" height="62" viewBox="-20 -20 500 500">
  <g id="rus">
    <circle class="fil1" cx="164" cy="102" r="6"></circle>
    <circle class="fil1" cx="182" cy="120" r="6"></circle>
    <circle class="fil1" cx="102" cy="164" r="6"></circle>
    <circle class="fil1" cx="120" cy="182" r="6"></circle>
    <path class="fil1" d="M400 253l-157 -42 -61 -61c1,-5 0,-12 -5,-16l-27 -28c-7,-6 -19,-6 -26,0l-18 18c-3,3 -5,8 -5,13 0,5 2,9 5,13l28 27c3,4 8,6 13,6 1,0 2,0 3,0l61 60 42 157c1,2 2,3 3,3 1,0 1,1 1,1 2,0 3,-1 4,-1l142 -142c0,-1 1,-3 1,-4 -1,-2 -2,-4 -4,-4zm-260 -81l-28 -28c-2,-2 -3,-4 -3,-7 0,-3 1,-5 3,-7l18 -18c1,-2 4,-3 7,-3 2,0 5,1 7,3l28 28c4,4 4,11 0,15l-18 17c-4,4 -10,4 -14,0zm18 7c1,-1 1,-1 2,-2l17 -17c1,-1 1,-1 2,-2l48 49 -21 -6c-1,-1 -3,0 -4,1 -1,1 -1,3 -1,4l6 21 -49 -48zm101 212l-48 -180 180 48 -132 132z"></path>
    <path class="fil1" d="M265 295c0,8 3,16 9,22 5,5 13,8 21,8 8,0 16,-3 21,-8 12,-12 12,-31 0,-43 -5,-6 -13,-9 -21,-9 -8,0 -16,3 -21,9 -6,5 -9,13 -9,21zm30 -22c6,0 11,2 16,7 8,8 8,22 0,31 -9,8 -23,8 -31,0 -5,-5 -7,-10 -7,-16 0,-6 2,-11 7,-16 4,-4 9,-6 15,-6z"></path>
    <path class="fil1" d="M240 283c1,1 2,1 3,1 2,0 3,0 3,-1l38 -37c1,-2 1,-4 0,-6 -2,-1 -5,-1 -6,0l-37 37c-2,2 -2,4 -1,6z"></path>
   </g>
</svg>