<svg version="1.1" id="Layer_1" x="0px" y="0px" viewBox="0 -1 70 70" enable-background="new 0 -1 70 70" xml:space="preserve" width="62" height="62">
<g>
<path fill="" d="M48.622,27.143c-0.798-0.834-1.66-1.624-2.564-2.348c-6.945-5.556-6.169-12.792-6.133-13.095  c0.047-0.371-0.118-0.737-0.427-0.949c-0.31-0.212-0.71-0.231-1.039-0.056C25.558,17.643,25.388,31.207,26.01,37.151  c-3.214-4.087-2.601-10.404-2.593-10.479c0.045-0.421-0.182-0.825-0.563-1.008c-0.384-0.183-0.839-0.104-1.138,0.195  c-4.201,4.202-6.272,10.025-5.684,15.976c0.824,8.32,7.118,15.414,15.307,17.251c0.032,0.007,0.064-0.004,0.097,0  c0.042,0.005,0.079,0.025,0.122,0.025c0.044,0,0.082-0.02,0.125-0.025c0.059-0.008,0.113-0.016,0.169-0.034  c0.087-0.027,0.163-0.067,0.238-0.115c0.029-0.019,0.065-0.023,0.093-0.045c0.013-0.01,0.018-0.027,0.03-0.038  c0.075-0.067,0.133-0.146,0.185-0.233c0.021-0.034,0.049-0.061,0.066-0.097c0.058-0.126,0.094-0.264,0.094-0.412v-0.472  c0-0.097-0.016-0.191-0.042-0.282c-0.004-0.013-0.012-0.024-0.016-0.038c-0.003-0.009-0.008-0.017-0.011-0.026  c-0.011-0.03-0.023-0.057-0.037-0.085c-0.026-0.055-0.057-0.106-0.093-0.155c-0.018-0.025-0.036-0.048-0.057-0.072  c-0.006-0.007-0.01-0.014-0.017-0.021c-0.01-0.011-0.017-0.024-0.027-0.034c-0.067-0.066-0.143-0.124-0.228-0.169  c-2.073-1.107-3.447-3.142-3.675-5.441c-0.119-1.206,0.069-2.396,0.532-3.473c0.311,1.274,0.971,2.675,2.342,3.59  c0.343,0.229,0.791,0.224,1.128-0.013c0.338-0.236,0.496-0.655,0.398-1.056c-0.017-0.069-1.489-6.394,3.027-9.996  c0.258,1.399,0.999,3.332,3.029,4.956c0.333,0.266,0.652,0.559,0.951,0.87c1.616,1.688,2.254,3.954,1.75,6.214  c-0.49,2.196-1.963,3.964-3.94,4.729c-0.005,0.002-0.009,0.006-0.014,0.008c-0.025,0.01-0.045,0.027-0.069,0.04  c-0.08,0.04-0.154,0.087-0.219,0.145c-0.012,0.01-0.026,0.017-0.037,0.028c-0.018,0.018-0.028,0.042-0.045,0.061  c-0.052,0.059-0.095,0.123-0.132,0.193c-0.011,0.021-0.03,0.039-0.039,0.061c-0.006,0.015-0.007,0.031-0.013,0.047  c-0.031,0.083-0.049,0.17-0.057,0.26c-0.002,0.025-0.01,0.048-0.011,0.073c0,0.006-0.003,0.011-0.003,0.017v0.354  c0,0.143,0.032,0.278,0.086,0.401c0.014,0.032,0.041,0.056,0.058,0.087c0.05,0.087,0.104,0.171,0.177,0.239  c0.007,0.007,0.01,0.017,0.017,0.023c0.048,0.042,0.108,0.065,0.162,0.098c0.044,0.026,0.081,0.059,0.129,0.078  c0.117,0.047,0.242,0.075,0.37,0.075c0.041,0,0.083-0.003,0.125-0.008c6.791-0.854,12.487-5.544,14.866-12.242  C55.405,40.185,53.757,32.51,48.622,27.143z M51.039,46.505c-1.634,4.602-5.011,8.141-9.231,9.874  c0.083-0.106,0.153-0.223,0.231-0.333c0.086-0.121,0.174-0.239,0.253-0.365c0.104-0.164,0.196-0.337,0.289-0.509  c0.068-0.126,0.141-0.247,0.203-0.377c0.094-0.196,0.173-0.4,0.254-0.604c0.045-0.115,0.098-0.226,0.139-0.344  c0.113-0.326,0.21-0.66,0.287-1.003c0.651-2.924-0.171-5.852-2.258-8.033c-0.359-0.375-0.745-0.728-1.146-1.049  c-2.686-2.147-2.409-4.936-2.396-5.047c0.047-0.371-0.118-0.737-0.427-0.949c-0.081-0.055-0.169-0.096-0.26-0.125  c-0.033-0.011-0.067-0.012-0.101-0.019c-0.059-0.012-0.117-0.025-0.177-0.026c-0.009,0-0.018-0.004-0.028-0.004  c-0.051,0-0.102,0.011-0.152,0.019c-0.025,0.004-0.049,0.003-0.074,0.009c-0.085,0.02-0.168,0.049-0.247,0.091  c-3.894,2.097-5.203,5.526-5.559,8.355c-0.033-0.58,0.005-0.984,0.006-0.995c0.045-0.422-0.181-0.826-0.563-1.009  c-0.382-0.182-0.838-0.104-1.139,0.195c-1.907,1.91-2.848,4.555-2.58,7.256c0.038,0.382,0.102,0.758,0.187,1.126  c0.028,0.121,0.072,0.237,0.104,0.356c0.068,0.244,0.134,0.488,0.221,0.724c0.052,0.139,0.118,0.271,0.177,0.407  c0.089,0.208,0.176,0.417,0.281,0.617c0.072,0.138,0.158,0.269,0.237,0.403c0.111,0.188,0.221,0.376,0.346,0.556  c0.022,0.032,0.039,0.068,0.062,0.1c-5.442-2.652-9.352-8.038-9.958-14.164c-0.44-4.451,0.773-8.823,3.367-12.341  c0.175,3.248,1.171,8.478,5.488,11.357c0.343,0.229,0.79,0.223,1.128-0.013c0.338-0.236,0.496-0.655,0.398-1.056  c-0.044-0.182-4.1-17.594,9.499-26.249c0.145,2.872,1.219,8.472,6.904,13.021c0.836,0.668,1.633,1.397,2.369,2.168  C51.856,33.417,53.3,40.137,51.039,46.505z"></path>
</g>
</svg>