<svg version="1.1" id="Layer_1" x="0px" y="0px" viewBox="0 0 70 70" style="enable-background:new 0 0 70 70;" xml:space="preserve" width="62" height="62">
<g>
	<path class="st0" d="M40.3,16H27.4c-0.2,0-0.4,0.2-0.4,0.4l0,24.1h-3.7c-0.2,0-0.4,0.2-0.4,0.4V48c0,0.2,0.2,0.4,0.4,0.4H27v5   c0,0.2,0.2,0.4,0.4,0.4h7.3c0.2,0,0.4-0.2,0.4-0.4v-5h3.9c0.2,0,0.4-0.2,0.4-0.4v-7.1c0-0.2-0.2-0.4-0.4-0.4h-3.9v-4.9h5.1   c5.4,0,9.8-4.4,9.8-9.8S45.7,16,40.3,16z M40.3,34.7h-5.5c-0.2,0-0.4,0.2-0.4,0.4v5.8c0,0.2,0.2,0.4,0.4,0.4h3.9v6.2h-3.9   c-0.2,0-0.4,0.2-0.4,0.4v5h-6.5v-5c0-0.2-0.2-0.4-0.4-0.4h-3.7v-6.2h3.7c0.2,0,0.4-0.2,0.4-0.4l0-24.1l12.4,0c4.9,0,8.9,4,8.9,8.9   C49.2,30.7,45.2,34.7,40.3,34.7z"></path>
</g>
</svg>