<svg version="1.1" id="Layer_1" data-name="Layer 1" viewBox="0 0 70 70" width="62" height="62"><defs></defs>
<g>
<path class="cls-1" d="M53.8,44.91a.5.5,0,0,0,0-.13,1.85,1.85,0,0,0,.07-.48V35s0-.06,0-.08a1.5,1.5,0,0,0,0-.22,1.16,1.16,0,0,0,0-.18,1.21,1.21,0,0,0-.05-.18c0-.07,0-.13-.08-.19a.65.65,0,0,0-.09-.16.86.86,0,0,0-.1-.16l-.12-.15a1.85,1.85,0,0,0-.14-.14.81.81,0,0,0-.14-.12l-.18-.13-.07,0L44.42,28.6,36,24A2,2,0,1,0,34,27.45l8.45,4.65,7.42,4.08v4.74l-5.49-3L36,33.25,27.51,28.6l-5.27-2.9,12.76-7,15.94,8.77A2,2,0,1,0,52.87,24L36,14.64a2,2,0,0,0-1.92,0L17.13,24l-.05,0a1.87,1.87,0,0,0-.35.26l0,0a1.82,1.82,0,0,0-.29.38l-.06.1a1.43,1.43,0,0,0-.14.34.5.5,0,0,0,0,.13,1.85,1.85,0,0,0-.07.48V35s0,.06,0,.08a1.5,1.5,0,0,0,0,.22,1.16,1.16,0,0,0,0,.18,1.21,1.21,0,0,0,.05.18c0,.07.05.13.08.19a.65.65,0,0,0,.09.16l.1.17.12.14.14.15.14.11.18.13.07,0,8.45,4.65L34,46.05a1.94,1.94,0,0,0,1,.25,2,2,0,0,0,1-3.75L27.51,37.9l-7.42-4.08V29.08l5.49,3L34,36.75l8.45,4.65,5.27,2.9L35,51.32,19.06,42.55a2,2,0,1,0-1.93,3.5L34,55.35a2,2,0,0,0,1.92,0l16.91-9.3.05,0a1.87,1.87,0,0,0,.35-.26l0,0a1.82,1.82,0,0,0,.29-.38l.06-.1A1.43,1.43,0,0,0,53.8,44.91Z"></path>
</g>
</svg>