<svg version="1.1" id="Layer_1" x="0px" y="0px" viewBox="0 0 70 70" style="enable-background:new 0 0 70 70;" xml:space="preserve" width="62" height="62">
<g>
	<path d="M57.6,21.2l-6.9-4h-0.3L35.1,26l-15.3-8.8h-0.5l-6.8,3.9c-0.2,0.1-0.2,0.2-0.2,0.3v8.3l0.1,0.1l15.2,8.8v17.8l0.1,0.1h0.1   l0.2,0.2l6.9,4c0.2,0.1,0.2,0.1,0.3,0l7-4.1v-18l0.1-0.1l15.3-8.9c0-0.1,0.1-0.1,0.1-0.1v-8.1L57.6,21.2   C57.7,21.3,57.7,21.3,57.6,21.2z M35.3,26.7l0.1-0.1L50,18.1v7.4l0,0l-14.6,8.4v-7.2H35.3z M19.9,18.1l14.7,8.6v7.2l-14.7-8.5   C19.9,25.4,19.9,18.1,19.9,18.1z M12.9,21.8l6.3-3.7v7.4l-6.3,3.7C12.9,29.2,12.9,21.8,12.9,21.8z M13.2,29.6l6.3-3.7l14.7,8.5   L28,38.1L13.2,29.6z M28.3,38.7l6.3-3.7v17l-6.3,3.7V38.7z M35,60.1l-6.3-3.7l6.3-3.7l6.3,3.7L35,60.1z M41.7,55.8l-6.3-3.7V35.2   l6.3,3.7V55.8z M42,38.2l-6.3-3.7L50.4,26l6.3,3.7L42,38.2z M57.1,29l-6.3-3.7V18l6.3,3.7V29z"></path>
</g>
</svg>