<svg version="1.1" xml:space="preserve" width="62" height="62" viewBox="0 0 500 500">
  <g id="techno">
   <g id="_586468096">
    <path class="fil1" d="M250 344c-70,0 -127,-57 -127,-126 0,-70 57,-127 127,-127 70,0 126,57 126,127 1,69 -56,126 -126,126zm0 -244c-65,0 -118,53 -118,118 0,65 53,118 118,118 65,0 118,-53 118,-118 0,-65 -53,-118 -118,-118z"></path>
    <g>
     <path class="fil1" d="M263 98c-2,0 -4,-2 -4,-4l0 -25c0,-6 -5,-11 -11,-11 -6,0 -11,5 -11,11l0 25c0,2 -2,4 -4,4 -3,0 -4,-2 -4,-4l0 -25c0,-11 8,-20 19,-20 11,0 20,9 20,20l0 25c0,2 -2,4 -5,4z"></path>
    </g>
    <g>
     <path class="fil1" d="M126 235l-25 0c-11,0 -20,-9 -20,-20 0,-11 9,-20 20,-20l25 0c2,0 4,2 4,5 0,2 -2,4 -4,4l-25 0c-6,0 -11,5 -11,11 0,6 5,11 11,11l25 0c2,0 4,2 4,4 0,3 -2,5 -4,5z"></path>
    </g>
    <g>
     <path class="fil1" d="M399 233l-25 0c-2,0 -4,-2 -4,-4 0,-3 2,-4 4,-4l25 0c6,0 11,-5 11,-11 0,-7 -5,-11 -11,-11l-25 0c-2,0 -4,-2 -4,-5 0,-2 2,-4 4,-4l25 0c11,0 20,9 20,20 0,10 -9,19 -20,19z"></path>
    </g>
    <g>
     <path class="fil1" d="M142 338c-5,0 -10,-2 -14,-6 -3,-4 -5,-9 -5,-14 0,-5 2,-10 5,-14l18 -18c2,-2 5,-2 6,0 2,2 2,5 0,6l-18 18c-2,2 -3,5 -3,8 0,3 1,6 3,8 5,4 12,4 16,0l18 -18c2,-2 4,-2 6,0 2,2 2,5 0,6l-18 18c-4,4 -9,6 -14,6z"></path>
    </g>
    <g>
     <path class="fil1" d="M343 141c-1,0 -2,-1 -3,-1 -2,-2 -2,-5 0,-7l18 -18c4,-4 4,-11 0,-15 -5,-4 -12,-4 -16,0l-18 18c-2,2 -4,2 -6,0 -2,-2 -2,-5 0,-6l18 -18c8,-8 20,-8 28,0 8,7 8,20 0,28l-18 18c-1,0 -2,1 -3,1z"></path>
    </g>
    <g>
     <path class="fil1" d="M354 340c-5,0 -10,-2 -14,-6l-18 -18c-2,-2 -2,-4 0,-6 2,-2 5,-2 6,0l18 18c4,4 11,4 16,0 4,-4 4,-11 0,-15l-18 -18c-2,-2 -2,-5 0,-7 1,-1 4,-1 6,0l18 18c7,8 7,21 0,28 -4,4 -9,6 -14,6z"></path>
    </g>
    <g>
     <path class="fil1" d="M153 143c-1,0 -2,0 -3,-1l-18 -18c-3,-4 -5,-9 -5,-14 0,-6 2,-11 5,-14 8,-8 21,-8 28,0l18 18c2,1 2,4 0,6 -2,2 -4,2 -6,0l-18 -18c-4,-5 -11,-5 -15,0 -2,2 -4,5 -4,8 0,3 2,5 4,8l18 18c2,1 2,4 0,6 -1,0 -2,1 -4,1z"></path>
    </g>
    <g>
     <path class="fil1" d="M372 221l-243 0c-3,0 -5,-2 -5,-4 0,-3 2,-5 5,-5l243 0c2,0 4,2 4,5 0,2 -2,4 -4,4z"></path>
    </g>
    <g>
     <path class="fil1" d="M204 182c-13,0 -23,-10 -23,-23 0,-12 10,-22 23,-22 12,0 23,10 23,22 0,13 -10,23 -23,23zm0 -37c-8,0 -14,6 -14,14 0,8 6,15 14,15 8,0 14,-7 14,-15 0,-8 -6,-14 -14,-14z"></path>
    </g>
    <g>
     <path class="fil1" d="M295 182c-12,0 -23,-10 -23,-23 0,-12 11,-22 23,-22 13,0 23,10 23,22 0,13 -10,23 -23,23zm0 -37c-8,0 -14,6 -14,14 0,8 6,15 14,15 8,0 15,-7 15,-15 0,-8 -7,-14 -15,-14z"></path>
    </g>
    <g>
     <path class="fil1" d="M206 300c-13,0 -23,-10 -23,-23 0,-12 10,-23 23,-23 12,0 22,11 22,23 0,13 -10,23 -22,23zm0 -37c-8,0 -15,6 -15,14 0,8 7,14 15,14 8,0 14,-6 14,-14 0,-8 -6,-14 -14,-14z"></path>
    </g>
    <g>
     <path class="fil1" d="M297 300c-12,0 -23,-10 -23,-23 0,-12 11,-23 23,-23 12,0 23,11 23,23 0,13 -10,23 -23,23zm0 -37c-8,0 -14,6 -14,14 0,8 6,14 14,14 8,0 14,-6 14,-14 0,-8 -6,-14 -14,-14z"></path>
    </g>
    <g>
     <g>
      <g>
       <path class="fil1" d="M247 403c-2,-2 -3,-5 -3,-8 0,-1 0,-1 1,-1 6,-3 12,-3 18,1 6,4 9,10 10,17 1,6 1,13 0,20 -1,8 -7,16 -15,19 -8,2 -16,-1 -20,-8 -3,-4 -5,-9 -5,-14 0,-5 0,-10 0,-15 0,-2 1,-5 2,-7 0,0 0,0 0,1 2,2 4,4 6,6 1,1 1,1 1,1 0,5 0,9 0,14 0,4 1,7 4,10 4,4 10,4 14,0 3,-3 4,-6 5,-10 0,-5 0,-10 0,-15 0,-4 -2,-8 -5,-10 -3,-4 -8,-4 -12,-2 -1,0 -1,0 -1,1z"></path>
      </g>
      <g>
       <g>
        <path class="fil1" d="M242 340c0,4 0,8 0,13 0,1 -1,1 -1,2 -3,1 -5,3 -6,6 -1,0 -1,1 -1,1 0,0 0,0 0,0 -1,-2 -2,-5 -2,-7 0,-5 0,-11 0,-15l10 0zm0 0l0 0 0 0z"></path>
       </g>
      </g>
      <g>
       <g>
        <path class="fil1" d="M273 340c0,5 0,10 0,15 -1,9 -5,16 -13,20 -6,3 -11,2 -16,0 -1,-1 -1,-1 -1,-2 1,-3 2,-5 4,-7 1,1 3,2 5,2 4,0 6,-2 9,-4 2,-3 3,-6 3,-9 0,-5 0,-11 0,-16l9 1zm0 0l0 0 0 0z"></path>
       </g>
      </g>
      <g>
       <path class="fil1" d="M259 363c-6,-4 -13,-1 -15,4 -2,2 -2,5 -2,8 0,6 0,12 0,19 0,4 1,8 4,10 4,4 8,4 12,2 1,0 1,0 2,0 1,2 2,5 2,7 0,1 0,1 -1,1 -6,3 -12,3 -18,-1 -6,-4 -9,-9 -10,-16 0,-5 0,-9 0,-14 0,-3 0,-7 0,-11 1,-9 7,-17 15,-19 5,-1 9,-1 14,1 0,1 1,1 0,2 0,3 -1,5 -3,7z"></path>
      </g>
      <g>
       <path class="fil1" d="M272 368c1,4 1,29 0,33 -1,0 -1,-1 -2,-1 -1,-3 -3,-5 -5,-6 -1,-1 -1,-1 -1,-1 0,-6 0,-11 0,-17 0,0 0,0 1,-1 3,-2 5,-4 7,-7 0,0 0,0 0,0z"></path>
      </g>
     </g>
    </g>
   </g>
  </g>
</svg>