<svg version="1.1" id="Layer_1" x="0px" y="0px" viewBox="0 0 70 70" style="enable-background:new 0 0 70 70;" xml:space="preserve" width="63" height="63">
<g>
	<g>
		<path class="st0" d="M35.8,59.7c-0.4,0-0.7-0.3-0.8-0.6l-2.2-7.5c-0.1-0.2-0.2-0.4-0.4-0.4c-0.2-0.1-0.4,0-0.6,0.1l-2.8,2.3    c-0.3,0.2-0.7,0.3-1,0.1c-0.3-0.2-0.5-0.6-0.4-0.9l1-4.5c0-0.2,0-0.3-0.1-0.5c-0.1-0.1-0.2-0.2-0.4-0.3c-5.4-1.1-9-3-10.6-5.7    c-1.4-2.3-0.9-4.3-0.8-4.6c0.1-0.4,0.4-0.6,0.8-0.6c0,0,0,0,0,0c0.4,0,0.7,0.2,0.8,0.6c0.4,1.1,2.1,1.9,3.4,2.4    c0.2,0.1,0.5,0,0.7-0.2c0.2-0.2,0.2-0.4,0.1-0.7c-0.3-0.6-1-2.1-2.5-2.9c0,0-0.1,0-0.1-0.1c-0.1,0-0.1-0.1-0.2-0.1    c-5.2-3.5-4.8-7.7-4.8-7.9c0-0.4,0.4-0.7,0.8-0.8c0.4,0,0.8,0.2,0.9,0.6c0.8,2.3,4.2,3.3,5.7,3.7c0.2,0,0.4,0,0.5-0.1    c0.1-0.1,0.2-0.3,0.3-0.4c0.2-1.7-0.9-3.2-3.5-4.5c-3.7-1.9-5.5-8.7-5.7-9.4c-0.1-0.4,0.1-0.8,0.5-1c0.4-0.2,0.8,0,1.1,0.3    c0,0,0,0.1,0.1,0.1c0.3,0.3,2,1.9,7,3c5.2,1.1,7.1,3.4,7.8,5c0.7,1.6,0.5,3.4-0.4,4.9c-0.8,1.3-1.3,3.9-0.7,5.4    c0.2,0.6,0.6,0.9,1.1,1c1.3,0.3,2.3,0.1,3.1-0.7c0.2-0.2,0.2-0.5,0.1-0.7c-0.5-0.8-1.9-1.2-2-1.3c-0.4-0.1-0.6-0.4-0.7-0.8    c0-0.4,0.2-0.7,0.5-0.9c0.6-0.2,1.1-0.5,1.5-0.8c0.3-0.2,0.4-0.5,0.2-0.8c-0.1-0.2-0.1-0.5,0-0.7c0.1-0.3,0.4-0.4,0.6-0.5l4.9-0.8    c0.4-0.1,0.7,0.1,0.9,0.4c0.2,0.3,0.1,0.7-0.1,1c-0.7,0.8-1,2.3-0.9,4.1c0.1,0.8,0.5,1.5,1.1,2c0.3,0.2,1.1,0.7,2,0.4    c0.3-0.1,0.8-0.3,1.1-1c0.6-1.5,0.1-4.1-0.7-5.4c-1-1.5-1.1-3.3-0.4-4.9c0.7-1.7,2.6-3.9,7.8-5c5.3-1.1,6.8-2.8,7.1-3.1    c0.2-0.3,0.6-0.4,0.9-0.3c0.3,0.1,0.6,0.4,0.6,0.8c0,0.2,0.2,5.7-3.7,7.7c-3.5,1.8-4.6,3.5-5,4.4c-0.1,0.2-0.1,0.4,0.1,0.6    c0.1,0.2,0.3,0.3,0.6,0.2c1.7-0.2,4.6-0.8,5.3-2.8c0.1-0.4,0.5-0.6,0.9-0.6c0.4,0.1,0.7,0.4,0.8,0.8c0,0.2,0.5,5.3-4.9,8.9    c0,0-0.1,0.1-0.1,0.1c0,0-0.1,0-0.1,0.1c0,0-0.1,0-0.1,0c-1.4,0.8-2.1,2.2-2.4,2.8c-0.1,0.2,0,0.5,0.1,0.7    c0.2,0.2,0.4,0.2,0.7,0.2c1.1-0.4,2.9-1.2,3.4-2.4c0.1-0.4,0.5-0.6,0.9-0.5c0.4,0,0.7,0.3,0.8,0.6c0.1,0.2,0.6,2.2-0.8,4.6    c-1.7,2.7-5.3,4.6-10.7,5.7c-0.2,0-0.3,0.1-0.4,0.3s-0.1,0.3-0.1,0.5l1,4.5c0.1,0.4-0.1,0.7-0.4,0.9c-0.3,0.2-0.7,0.2-1-0.1    l-2.8-2.3c-0.2-0.1-0.4-0.2-0.6-0.1c-0.2,0.1-0.4,0.2-0.4,0.4l-2.2,7.5C36.5,59.4,36.1,59.7,35.8,59.7z M32.1,50.8    c0.1,0,0.2,0,0.3,0c0.3,0.1,0.5,0.3,0.6,0.6l2.2,7.5c0.1,0.3,0.3,0.4,0.6,0.4c0.3,0,0.5-0.2,0.6-0.4l2.2-7.5    c0.1-0.3,0.3-0.5,0.6-0.6c0.3-0.1,0.6,0,0.8,0.1l2.8,2.3c0.2,0.2,0.5,0.2,0.7,0c0.2-0.1,0.3-0.4,0.3-0.7l-1-4.5    c0-0.2,0-0.5,0.1-0.7c0.1-0.2,0.3-0.3,0.6-0.4c5.3-1.1,8.9-2.9,10.5-5.6c1.4-2.3,0.9-4.2,0.8-4.4c-0.1-0.3-0.3-0.4-0.6-0.4    c-0.3,0-0.5,0.1-0.6,0.4c-0.5,1.2-2.4,2.1-3.5,2.5c-0.3,0.1-0.7,0-0.9-0.2c-0.2-0.3-0.3-0.6-0.2-0.9c0.3-0.6,1.1-2.2,2.5-3l0,0    c0,0,0.1,0,0.1-0.1c0,0,0.1,0,0.1,0c0,0,0.1,0,0.1-0.1c5.2-3.5,4.8-8.5,4.8-8.7c0-0.3-0.3-0.5-0.5-0.6c-0.3,0-0.6,0.1-0.7,0.4    c-0.8,2.2-3.8,2.8-5.5,3c-0.3,0-0.6-0.1-0.8-0.3c-0.2-0.2-0.2-0.6-0.1-0.9c0.4-0.9,1.5-2.6,5.1-4.5c3.8-1.9,3.6-7.2,3.6-7.4    c0-0.3-0.2-0.5-0.4-0.6c-0.3-0.1-0.5,0-0.7,0.2c-0.3,0.3-1.9,2-7.3,3.2c-5.1,1.1-6.9,3.3-7.6,4.9c-0.6,1.5-0.5,3.2,0.4,4.7    c0.9,1.4,1.4,4.1,0.7,5.7c-0.3,0.8-0.9,1.1-1.3,1.2c-1.1,0.3-1.9-0.2-2.3-0.4c-0.7-0.5-1.2-1.3-1.2-2.2c-0.1-1.9,0.2-3.4,0.9-4.3    c0.2-0.2,0.2-0.5,0.1-0.7c-0.1-0.2-0.4-0.4-0.6-0.3l-4.9,0.8c-0.2,0-0.4,0.2-0.5,0.3c-0.1,0.2-0.1,0.4,0,0.5    c0.2,0.4,0,0.9-0.3,1.1c-0.5,0.3-1,0.6-1.6,0.8c-0.3,0.1-0.4,0.4-0.4,0.6c0,0.3,0.2,0.5,0.5,0.6c0,0,1.6,0.4,2.1,1.4    c0.2,0.3,0.1,0.7-0.1,1c-0.8,0.9-1.9,1.2-3.3,0.8c-0.6-0.2-1-0.5-1.2-1.2c-0.6-1.6-0.1-4.3,0.8-5.7c0.9-1.5,1.1-3.2,0.4-4.7    c-0.7-1.6-2.6-3.8-7.6-4.9c-5.1-1.1-6.8-2.7-7.1-3c0,0-0.1-0.1-0.1-0.1c-0.2-0.3-0.5-0.3-0.8-0.2c-0.3,0.1-0.4,0.4-0.3,0.7    c0.2,0.8,2,7.4,5.6,9.3c2.6,1.3,3.8,2.9,3.6,4.7c0,0.2-0.2,0.5-0.4,0.6c-0.2,0.1-0.5,0.2-0.7,0.1c-1.5-0.3-5-1.4-5.9-3.8    C16,27.2,15.8,27,15.5,27c-0.3,0-0.5,0.3-0.5,0.5c0,0.2-0.4,4.2,4.7,7.7c0.1,0.1,0.1,0.1,0.2,0.1c0,0,0.1,0,0.1,0    c1.5,0.8,2.3,2.4,2.6,3c0.1,0.3,0.1,0.7-0.2,0.9c-0.2,0.3-0.6,0.3-0.9,0.2c-1.4-0.5-3.1-1.3-3.5-2.5c-0.1-0.3-0.3-0.4-0.6-0.4    c0,0,0,0,0,0c-0.3,0-0.5,0.2-0.6,0.4c-0.1,0.2-0.6,2.1,0.8,4.4c1.6,2.6,5.2,4.5,10.5,5.6c0.2,0,0.4,0.2,0.6,0.4    c0.1,0.2,0.2,0.4,0.1,0.7l-1,4.5c-0.1,0.3,0.1,0.5,0.3,0.7c0.2,0.1,0.5,0.1,0.7,0l2.8-2.3C31.7,50.9,31.9,50.8,32.1,50.8z"></path>
	</g>
</g>
</svg>