<svg version="1.1" xml:space="preserve" width="62" height="62" viewBox="0 0 500 500">
  <g id="tm">
   <path class="fil1" d="M379 252c3,-2 5,-4 6,-6 6,-7 7,-17 3,-29 0,0 0,0 -1,0 0,-1 0,-1 0,-1 -3,-11 -9,-21 -15,-31 1,-21 -8,-37 -16,-45 0,0 0,0 -1,0 0,0 0,0 0,0 -27,-31 -75,-49 -115,-45 -31,3 -51,16 -53,33 -1,2 -1,3 0,5 -22,11 -41,27 -55,47 0,0 0,0 0,0 -1,1 -1,1 -1,1 -3,4 -3,9 -2,14 1,5 5,9 8,12 -4,2 -8,5 -12,8 -12,11 -18,27 -18,46 0,56 32,106 81,130 0,1 1,1 1,1 4,2 8,3 11,3 2,0 5,-1 6,-2 8,7 17,10 21,10 7,2 15,2 23,2 74,0 135,-54 143,-127 0,0 0,-1 0,-1l0 0 0 0c2,-12 -6,-21 -14,-25zm-28 -105c4,4 10,13 12,25 -10,-13 -22,-24 -35,-34 8,0 16,2 23,9zm-110 -43c3,-1 7,-1 11,-1 28,0 58,10 80,27 -13,-1 -26,3 -33,6 -1,1 -3,1 -5,2 -18,8 -49,21 -80,10 -12,-4 -20,-11 -19,-19 2,-10 16,-22 46,-25zm-51 37c4,6 11,12 21,15 35,11 68,-2 86,-10 2,-1 4,-2 6,-2 3,-1 7,-3 11,-4 30,17 55,48 65,78 0,1 1,1 1,1 0,1 0,1 0,1 3,9 3,17 -1,21 -3,5 -10,6 -18,5 -18,-2 -41,-17 -65,-34 -23,-16 -47,-32 -70,-39 -31,-8 -58,-7 -76,-2 11,-13 25,-23 40,-30zm-74 120c0,-17 5,-31 15,-40 9,-8 22,-12 37,-12 -12,30 -17,78 -12,114 3,20 8,35 14,47 -34,-25 -54,-66 -54,-109zm135 136c-8,0 -15,-1 -22,-2 -21,-4 -40,-30 -31,-93 4,-27 14,-56 26,-76 14,7 33,20 51,33 24,17 47,32 61,37 17,5 35,4 47,-3 -15,60 -69,104 -132,104zm135 -121c0,0 0,1 0,1 -1,3 -3,6 -6,8 -8,5 -23,8 -41,2 -13,-4 -37,-20 -59,-35 -20,-15 -41,-29 -55,-36 -2,-1 -4,0 -5,2 -15,21 -26,53 -30,83 -7,45 1,71 12,85 -3,0 -6,-1 -11,-4 -7,-5 -21,-24 -26,-60 -5,-37 1,-87 14,-115 0,-1 0,-2 -1,-4 0,-1 -2,-2 -3,-2 -10,-1 -19,0 -27,2 -3,-2 -9,-6 -10,-11 -1,-2 0,-4 1,-7 4,-6 39,-16 85,-4 21,6 45,22 67,38 25,17 49,33 69,35 2,1 4,1 6,1 0,0 1,0 1,0 3,1 20,8 19,21l0 0z"></path>
  </g>
</svg>