<svg version="1.1" id="Layer_1" x="0px" y="0px" viewBox="0 0 70 70" style="enable-background:new 0 0 70 70;" xml:space="preserve" width="62" height="62">
<g>
	<polygon class="st0" fill="none" points="17.1,25.4 17.1,42.1 22.1,28.4  "></polygon>
	<polygon class="st0" fill="none" points="35.6,49.7 35.6,55.3 50,47  "></polygon>
	<polygon class="st0" fill="none" points="17.7,24.3 22.7,27.3 32.3,16  "></polygon>
	<polygon class="st0" fill="none" points="34.4,55.3 34.4,49.7 20,47  "></polygon>
	<polygon class="st0" fill="none" points="28.4,39.4 23,29.7 17.3,45.2 33.7,48.3  "></polygon>
	<polygon class="st0" fill="none" points="23.9,28.8 29.5,38.8 35,48 40.5,38.7 46.1,28.8  "></polygon>
	<polygon class="st0" fill="none" points="41.6,39.4 36.3,48.3 52.7,45.2 47,29.7  "></polygon>
	<polygon class="st0" fill="none" points="52.9,42.1 52.9,25.4 47.9,28.4  "></polygon>
	<polygon class="st0" fill="none" points="35,14.6 24.2,27.5 45.8,27.5  "></polygon>
	<polygon class="st0" fill="none" points="52.3,24.3 37.7,16 47.3,27.3  "></polygon>
	<path class="st1" d="M53.8,24.2l-0.1-0.1c0,0,0,0,0,0c0,0,0,0,0,0L53.6,24L35.2,13.3c-0.1-0.1-0.3-0.1-0.4,0L16.3,24l-0.1,0.1   l-0.1,0.3l0,21.2l0,0.2l0,0c0,0,0,0,0,0.1l0.1,0.1l18.4,10.6l0.2,0.1c0,0,0.1,0,0.1,0l0.2-0.1l18.5-10.7c0,0,0,0,0,0l0,0   c0,0,0,0,0,0l0-0.2L53.8,24.2C53.9,24.3,53.9,24.3,53.8,24.2z M52.8,24.3l-5.5,3.3l-0.1-0.1L36.6,15L52.8,24.3z M35,14.2l0.1,0.1   l11.2,13.4H23.7l0.2-0.2L35,14.2z M33.4,15L22.8,27.7l-5.5-3.3L33.4,15z M16.9,25l5.5,3.3l0,0.1l-5.5,15.1V25z M17.1,45.3l5.9-16.2   l5.7,10.2l5.6,9.4L17,45.4L17.1,45.3z M34.6,55.7l-16-9.3l16,3V55.7z M35,48.4l-0.1-0.2l-5.6-9.4l-5.8-10.4h23l-0.1,0.2l-5.6,10.1   L35,48.4z M35.4,55.7v-6.2l0.1,0l15.9-3L35.4,55.7z M35.8,48.7l5.7-9.4l5.7-10.2l0.1,0.3L53,45.4L35.8,48.7z M53.1,43.5l-5.5-15.2   l5.5-3.3V43.5z"></path>
</g>
</svg>