<svg version="1.1" id="Layer_1" x="0px" y="0px" viewBox="0 0 70 70" style="enable-background:new 0 0 70 70;" xml:space="preserve" width="63" height="63">
<g>
	<polygon class="st0" points="35.2,61.1 35.2,61.1 35.2,61.1  "></polygon>
	<path class="st0" d="M59.3,19C59.3,19,59.3,19,59.3,19l-0.1-0.1c0,0,0,0-0.1,0l-0.2,0l-48,0c-0.1,0-0.1,0-0.1,0c0,0,0,0-0.1,0   L10.7,19c0,0,0,0,0,0l0,0.1c0,0,0,0.1,0,0.1l0.1,0.2l24.1,41.7l0.1,0c0,0,0,0,0,0l0.1,0c0.1,0,0.1,0,0.1-0.1c0,0,0,0,0-0.1l0.1-0.1   l24.1-41.7C59.3,19.2,59.3,19.1,59.3,19C59.3,19.1,59.3,19.1,59.3,19z M22.7,39.1L11.6,19.9l11.1,6.4V39.1z M11.9,19.4H34l-11,6.4   L11.9,19.4z M23.2,26.3l11.5-6.6v13.3l-11.5,6.6V26.3z M34.7,59.9L23.6,40.7l11.1,6.4V59.9z M35.3,59.9V47.1l11.1-6.4L35.3,59.9z    M35,46.6L23.6,40L35,33.4L46.4,40L35,46.6z M46.8,39.6L35.3,33V19.6l11.5,6.6V39.6z M36,19.4h22.1L47,25.8L36,19.4z M47.3,39.1   V26.3l11.1-6.4L47.3,39.1z"></path>
</g>
</svg>