<?xml version="1.0" encoding="UTF-8" standalone="no"?>
<svg
   xmlns:dc="http://purl.org/dc/elements/1.1/"
   xmlns:cc="http://creativecommons.org/ns#"
   xmlns:rdf="http://www.w3.org/1999/02/22-rdf-syntax-ns#"
   xmlns:svg="http://www.w3.org/2000/svg"
   xmlns="http://www.w3.org/2000/svg"
   xmlns:sodipodi="http://sodipodi.sourceforge.net/DTD/sodipodi-0.dtd"
   xmlns:inkscape="http://www.inkscape.org/namespaces/inkscape"
   version="1.1"
   id="Layer_1"
   x="0px"
   y="0px"
   viewBox="0 0 70.8 67.5"
   enable-background="new 0 0 70.8 67.5"
   xml:space="preserve"
   width="62"
   height="62"
   sodipodi:docname="Tropical.svg"
   inkscape:version="0.92.4 (5da689c313, 2019-01-14)"><metadata
   id="metadata25"><rdf:RDF><cc:Work
       rdf:about=""><dc:format>image/svg+xml</dc:format><dc:type
         rdf:resource="http://purl.org/dc/dcmitype/StillImage" /></cc:Work></rdf:RDF></metadata><defs
   id="defs23" /><sodipodi:namedview
   pagecolor="#ffffff"
   bordercolor="#666666"
   borderopacity="1"
   objecttolerance="10"
   gridtolerance="10"
   guidetolerance="10"
   inkscape:pageopacity="0"
   inkscape:pageshadow="2"
   inkscape:window-width="1868"
   inkscape:window-height="1016"
   id="namedview21"
   showgrid="false"
   inkscape:snap-nodes="false"
   inkscape:snap-global="false"
   inkscape:zoom="3.8064516"
   inkscape:cx="31"
   inkscape:cy="31"
   inkscape:window-x="52"
   inkscape:window-y="27"
   inkscape:window-maximized="1"
   inkscape:current-layer="Layer_1" />
	 <g
   id="g18">
<path
   fill="none"
   stroke-linecap="round"
   stroke-linejoin="round"
   stroke-miterlimit="10"
   d="M20.3,23.5  c-3.2-2.9-8.2,1.4-10.4,4.7c1.4-10,13.1-15,17.8-6.4C23.5,11.6,35.3,9.4,42.9,13c-4,0-8.1,0.3-8.8,4.3"
   id="path2" />
<path
   fill="none"
   stroke-linecap="round"
   stroke-linejoin="round"
   stroke-miterlimit="10"
   d="M24.9,23  C8.9,23.6,15.4,39.9,18,41c-0.3-9.2,4-13.6,11.5-14c0,0,4.5-8.3,17.9-2.7C47.4,18.1,34.6,13,31,20.1"
   id="path4" />
<path
   fill="none"
   stroke-linecap="round"
   stroke-linejoin="round"
   stroke-miterlimit="10"
   d="M27.6,27.5  c4.3,8,5.5,21.8,3,28.6"
   id="path6" />
<path
   fill="none"
   stroke-linecap="round"
   stroke-linejoin="round"
   stroke-miterlimit="10"
   d="M30.8,25.7  c1,1.2,3.5,5.6,4.6,8.9 M36.7,38c2.1,7.3,1.5,13.8,1.3,18.1"
   id="path8" />
<path
   fill="none"
   stroke-linecap="round"
   stroke-linejoin="round"
   stroke-miterlimit="10"
   d="M54.1,37.9  c2-1.8,5.8,0.4,6.7,2.9c1-7.7-5.9-12-10.8-5.5c4.8-7.8-3.9-10.3-9.8-7.7c2.8,0.1,6,1.1,5.5,4.1"
   id="path10" />
<path
   fill="none"
   stroke-linecap="round"
   stroke-linejoin="round"
   stroke-miterlimit="10"
   d="M52.6,37.5  c9.2,3.8,0,12.7,0,12.7c-0.4-13-6.2-17.7-18.9-11.5c0,0,4.2-13.5,13.8-5.8"
   id="path12" />
<path
   fill="none"
   stroke-linecap="round"
   stroke-linejoin="round"
   stroke-miterlimit="10"
   d="M49.4,39.2  c-3.7,5-5.7,12.5-5.2,16.9"
   id="path14" />
<path
   fill="none"
   stroke-linecap="round"
   stroke-linejoin="round"
   stroke-miterlimit="10"
   d="M46.8,37.1  c-6.5,5.9-8.2,15.2-8.7,19"
   id="path16" />
	</g>
<rect
   style="fill:#000000;fill-opacity:1;stroke-width:1.14193547"
   id="rect832"
   width="7.8000002"
   height="42.899998"
   x="32.099998"
   y="11.8" /><rect
   style="fill:#000000;fill-opacity:1;stroke-width:1.03732431"
   id="rect832-3"
   width="7.8000002"
   height="35.399998"
   x="11.65"
   y="-53.100002"
   transform="rotate(90)" /><rect
   style="fill:#000000;fill-opacity:1;stroke-width:0.86998665"
   id="rect832-3-6"
   width="7.8000002"
   height="24.899998"
   x="27.450001"
   y="-48.299995"
   transform="rotate(90)" /></svg>