<svg version="1.1" id="Layer_1" x="0px" y="0px" viewBox="0 0 70 70" style="enable-background:new 0 0 70 70;" xml:space="preserve" width="62" height="62">
<g>
	<path class="st0" d="M55.6,36.1l-0.7,0c-1.2-0.1-2.4-0.6-3.3-1.3c-1.2-0.8-2.7-1.3-4.1-1.3c-1.1,0-2.2,0.2-3.2,0.7l-4.6,2.4   l3.2-4.5c1.5-2.5,4.5-3.7,7.4-3c1.4,0.3,3,0.2,4.3-0.4c0.1,0,0.2-0.1,0.2-0.1c0-0.1,0-0.1,0-0.2c0-0.1-0.1-0.1-0.1-0.1   c0,0-0.1,0-0.2,0c-1.3,0.6-2.9,0.7-4.3,0.3c-1.4-0.3-3-0.2-4.3,0.4c-1,0.4-2,1.1-2.7,1.9l-3.3,3.9l1.2-5.4c0.4-2.9,2.7-5.2,5.7-5.6   c1.5-0.2,2.8-0.9,3.9-2c0,0,0.1-0.1,0.1-0.2c0-0.1,0-0.1-0.1-0.2c-0.1-0.1-0.3-0.1-0.3,0c-1,1-2.4,1.7-3.8,1.9   c-1.4,0.2-2.8,0.9-3.8,2c-0.8,0.8-1.4,1.7-1.7,2.8l-1.6,4.9l-0.9-5.4c-0.7-2.9,0.5-5.8,3.1-7.4c1.3-0.8,2.3-2,2.8-3.3   c0-0.1,0-0.1,0-0.2c0-0.1-0.1-0.1-0.1-0.1c-0.1,0-0.2,0-0.2,0c-0.1,0-0.1,0.1-0.1,0.1c-0.5,1.4-1.5,2.5-2.8,3.2   c-1.2,0.8-2.2,1.9-2.8,3.3c-0.5,1-0.6,2.1-0.6,3.2l0.4,5l-2.9-4.6c-0.8-1.1-1.3-2.6-1.3-4c0-1.4,0.4-2.9,1.3-4   c0.9-1.2,1.3-2.7,1.3-4.1c0-0.2-0.1-0.3-0.3-0.3c-0.1,0-0.3,0.1-0.3,0.3c0,1.5-0.4,2.9-1.3,4.1c-0.9,1.2-1.3,2.7-1.3,4.1   c0,1.1,0.2,2.2,0.7,3.2l2.4,4.6L32,27.2c-2.5-1.5-3.7-4.5-3-7.4c0.3-1.4,0.2-3-0.4-4.3c0-0.1-0.1-0.2-0.1-0.2c0,0-0.1,0-0.2,0   c-0.1,0-0.2,0.2-0.1,0.3c0.6,1.3,0.7,2.9,0.3,4.3c-0.3,1.4-0.2,3,0.4,4.3c0.4,1,1.1,2,1.9,2.7l4,3.4l-5.5-1.3   c-2.9-0.4-5.2-2.7-5.6-5.7c-0.2-1.5-0.9-2.8-2-3.9c-0.1-0.1-0.1-0.1-0.2-0.1c0,0-0.1,0-0.2,0.1c-0.1,0.1-0.1,0.3,0,0.3   c1,1,1.7,2.3,1.9,3.8c0.2,1.4,0.9,2.8,2,3.8c0.8,0.8,1.7,1.4,2.8,1.7l4.8,1.6l-5.4,0.9c-2.9,0.7-5.8-0.5-7.4-3.1   c-0.8-1.3-2-2.3-3.3-2.8c-0.1,0-0.2,0-0.2,0c0,0-0.1,0.1-0.1,0.1s0,0.1,0,0.2c0,0,0.1,0.1,0.1,0.1c1.4,0.5,2.5,1.5,3.2,2.8   c0.8,1.2,1.9,2.2,3.3,2.8c1,0.4,2.1,0.6,3.2,0.6l5.2-0.4l-4.7,2.9c-1.1,0.8-2.5,1.3-4,1.3c0,0-0.1,0-0.1,0c-1.4,0-2.8-0.5-3.9-1.3   c-1.2-0.8-2.6-1.3-4.1-1.3c-0.2,0-0.4,0.1-0.4,0.3c0,0.1,0.1,0.3,0.3,0.3c1.4,0,2.9,0.4,4.1,1.3c1.2,0.9,2.7,1.3,4.1,1.3   c1.1,0,2.2-0.2,3.2-0.7l4.5-2.3L27.2,38c-1.5,2.5-4.5,3.7-7.4,3c-1.4-0.3-3-0.2-4.4,0.4c-0.1,0.1-0.2,0.2-0.1,0.3   c0.1,0.1,0.2,0.2,0.3,0.1c1.3-0.6,2.8-0.7,4.2-0.3c1.4,0.3,3,0.2,4.3-0.4c1-0.4,2-1.1,2.7-1.9l3.3-4l-1.3,5.4   c-0.4,2.9-2.7,5.2-5.7,5.6c-1.5,0.2-2.8,0.9-3.9,2c-0.1,0.1-0.1,0.1-0.1,0.2c0,0,0,0.1,0.1,0.2c0.1,0.1,0.3,0.1,0.3,0   c1-1,2.3-1.7,3.8-1.9c1.4-0.2,2.8-0.9,3.8-2c0.8-0.8,1.4-1.7,1.7-2.8l1.6-4.9l0.9,5.5c0.7,2.9-0.5,5.8-3.1,7.4   c-1.3,0.8-2.3,2-2.8,3.3c-0.1,0.1,0,0.3,0.1,0.3c0.1,0,0.2,0,0.2,0c0,0,0.1-0.1,0.1-0.1c0.5-1.4,1.5-2.5,2.8-3.2   c1.2-0.8,2.2-1.9,2.8-3.3c0.5-1,0.6-2.1,0.6-3.2l-0.4-5.2l2.9,4.7c1.7,2.4,1.7,5.6,0,8c-0.9,1.2-1.3,2.7-1.3,4.2   c0,0.2,0.1,0.3,0.3,0.3c0.1,0,0.3-0.1,0.3-0.3c0-1.5,0.4-2.9,1.3-4.1c0.9-1.2,1.3-2.7,1.3-4.1c0-1.1-0.2-2.2-0.7-3.2l-2.3-4.6   l4.5,3.2c2.5,1.5,3.7,4.5,3,7.4c-0.3,1.4-0.2,3,0.4,4.4c0,0.1,0.1,0.2,0.2,0.2c0,0,0.1,0,0.2,0c0.1,0,0.1-0.1,0.1-0.1   c0-0.1,0-0.1,0-0.2c-0.6-1.3-0.7-2.9-0.3-4.3c0.3-1.4,0.2-3-0.4-4.3c-0.4-1-1.1-2-1.9-2.7l-4-3.4l5.4,1.3c2.9,0.4,5.2,2.7,5.7,5.7   c0.2,1.5,0.9,2.8,2,3.9c0.1,0.1,0.1,0.1,0.2,0.1c0,0,0.1,0,0.2-0.1c0.1-0.1,0.1-0.3,0-0.3c-1-1-1.7-2.3-1.9-3.8   c-0.2-1.4-0.9-2.8-2-3.8c-0.8-0.8-1.7-1.4-2.8-1.7l-4.8-1.5l5.4-0.9c2.9-0.7,5.8,0.5,7.4,3.1c0.8,1.3,2,2.3,3.3,2.8   c0.1,0,0.2,0,0.2,0c0,0,0.1-0.1,0.1-0.1c0.1-0.1,0-0.3-0.1-0.3c-1.4-0.5-2.5-1.5-3.2-2.8c-0.8-1.2-1.9-2.2-3.3-2.8   c-1-0.5-2.1-0.6-3.2-0.6l-5.1,0.4l4.7-2.9c2.4-1.7,5.6-1.7,8,0c1.2,0.9,2.7,1.4,4.2,1.3c0.2,0,0.3-0.1,0.3-0.3   C55.8,36.2,55.7,36.1,55.6,36.1z"></path>
</g>
</svg>