<svg version="1.1" xml:space="preserve" width="62" height="62" viewBox="0 0 500 500">
  <g id="vip">
    <path class="fil1" d="M340 357l-179 0c-2,0 -4,2 -4,4 0,2 1,4 4,4l179 0c2,0 4,-1 4,-4 0,-2 -2,-4 -4,-4z"></path>
    <path class="fil1" d="M375 177c-14,0 -25,11 -25,25 0,8 4,15 9,19 -10,15 -25,31 -45,31 -4,0 -9,-1 -14,-3 -25,-9 -36,-33 -41,-54 13,-3 22,-15 22,-30 0,-16 -14,-30 -31,-30 -17,0 -31,13 -31,30 0,15 10,27 23,30 -5,21 -17,45 -42,54 -5,2 -9,3 -14,3 -20,0 -35,-16 -45,-31 6,-4 9,-11 9,-19 0,-14 -11,-25 -24,-25 -14,0 -25,11 -25,25 0,13 11,24 25,24 1,0 1,0 2,0l28 110c1,2 3,4 4,4l180 0c2,0 3,-2 4,-4l28 -110c1,0 1,0 2,0 14,0 25,-11 25,-24 0,-14 -11,-25 -24,-25zm-265 25c0,-9 7,-17 16,-17 9,0 16,8 16,17 0,6 -3,11 -8,14 0,0 0,0 -1,0 -1,1 -2,1 -3,1 0,0 0,1 0,1 -2,0 -3,0 -4,0 -9,0 -16,-7 -16,-16zm118 -36c0,-13 10,-23 22,-23 13,0 23,10 23,23 0,11 -8,20 -19,22 0,0 -1,0 -1,0l-1 0c-1,0 -2,0 -3,0l-1 0c0,0 -1,0 -1,0 -11,-2 -19,-11 -19,-22zm109 165l-173 0 -26 -100c11,15 27,30 49,30 5,0 11,-2 16,-4 29,-10 42,-38 47,-60 6,23 19,50 47,60 6,2 12,4 17,4 21,0 37,-15 49,-30l-26 100zm38 -113c-2,0 -3,0 -4,0 0,0 0,-1 0,-1 -2,0 -3,0 -4,-1 0,0 0,0 -1,0 -4,-3 -8,-8 -8,-14 0,-9 8,-17 16,-17 9,0 17,8 17,17 0,9 -7,16 -16,16z"></path>
   </g>
</svg>