<svg version="1.1" id="Layer_1" x="0px" y="0px" viewBox="0 0 70 70" enable-background="new 0 0 70 70" xml:space="preserve" width="62" height="62">
<path d="M55.101,14.675c-2.132-2.073-4.897-3.109-7.662-3.109c-2.814,0-5.628,1.073-7.776,3.221  c-1.567,1.567-2.555,3.49-2.979,5.508l-0.005-0.005c0,0-0.643,3.266-2.149,6.263c-2.94-2.367-11.752-8.864-15.529-5.083  c-1.931,1.93-1.374,5.615,1.534,10.482c-2.356,0.655-4.528,1.908-6.269,3.65c-5.558,5.558-5.558,14.6,0,20.157  c2.692,2.692,6.271,4.175,10.078,4.175c0.001,0,0.001,0,0.001,0c3.808,0,7.387-1.482,10.078-4.175  c1.742-1.741,2.996-3.916,3.651-6.274c2.953,1.763,5.476,2.673,7.43,2.673c1.265,0,2.293-0.375,3.052-1.134  c3.797-3.797-2.724-12.616-5.102-15.561c2.638-1.323,5.482-1.979,6.121-2.115l0,0c0.008-0.001,0.017-0.004,0.025-0.006  c0.068-0.014,0.108-0.022,0.108-0.022l-0.002-0.002c2.045-0.429,3.992-1.442,5.57-3.046C59.52,25.96,59.438,18.892,55.101,14.675z   M32.615,46.133c-0.01,0.173-0.022,0.346-0.042,0.518c-0.014,0.118-0.031,0.235-0.05,0.352c-0.027,0.167-0.058,0.332-0.095,0.497  c-0.026,0.117-0.054,0.234-0.086,0.35c-0.044,0.161-0.094,0.321-0.147,0.479c-0.038,0.114-0.076,0.227-0.119,0.338  c-0.061,0.157-0.129,0.312-0.2,0.465c-0.049,0.106-0.095,0.214-0.149,0.318c-0.08,0.156-0.169,0.307-0.258,0.458  c-0.057,0.096-0.11,0.193-0.171,0.287c-0.105,0.162-0.222,0.317-0.339,0.473c-0.057,0.075-0.108,0.154-0.168,0.227  c-0.182,0.225-0.375,0.442-0.582,0.649c-1.566,1.566-3.648,2.43-5.864,2.43c-2.215,0-4.297-0.863-5.863-2.43  c-3.233-3.233-3.233-8.494,0-11.728c0.207-0.206,0.424-0.399,0.648-0.58c0.07-0.057,0.145-0.106,0.216-0.16  c0.158-0.119,0.316-0.237,0.481-0.344c0.091-0.059,0.186-0.111,0.279-0.167c0.152-0.091,0.305-0.18,0.462-0.26  c0.103-0.053,0.209-0.1,0.314-0.148c0.154-0.071,0.309-0.139,0.466-0.2c0.111-0.043,0.223-0.082,0.336-0.12  c0.157-0.053,0.316-0.103,0.477-0.146c0.116-0.031,0.232-0.061,0.349-0.087c0.164-0.037,0.329-0.068,0.495-0.095  c0.117-0.019,0.233-0.038,0.351-0.052c0.173-0.021,0.347-0.033,0.521-0.043c0.113-0.006,0.226-0.015,0.339-0.017  c0.066-0.001,0.133,0.005,0.199,0.005c0.353,0.429,0.734,0.852,1.105,1.278c0.219,0.251,0.427,0.505,0.652,0.754  c0.693,0.767,1.408,1.526,2.151,2.269c0.741,0.741,1.498,1.455,2.264,2.146c0.263,0.237,0.53,0.457,0.795,0.688  c0.414,0.36,0.824,0.73,1.242,1.074c0,0.058,0.006,0.117,0.005,0.175C32.628,45.901,32.621,46.017,32.615,46.133z M46.437,48.904  c-0.673,0.671-3.773,0.154-8.569-3.102c-0.918-0.623-1.867-1.326-2.822-2.09c-0.001-0.001-0.002-0.002-0.004-0.003  c-1.566-1.254-3.112-2.643-4.597-4.127c-1.488-1.488-2.876-3.034-4.127-4.596c-0.766-0.956-1.47-1.906-2.094-2.826  c-3.255-4.795-3.773-7.896-3.102-8.568c0.789-0.789,5.031,0.008,11.719,5.454c0.025,0.02,0.053,0.033,0.079,0.052  c-1.117,1.368-2.508,2.341-4.214,2.341c3.76,2.773,7.082,6.095,9.855,9.855c0-1.71,0.975-3.105,2.348-4.223  c0.02,0.028,0.034,0.058,0.056,0.084C46.438,43.851,47.229,48.111,46.437,48.904z M53.269,17.888  c-0.29,0.298-0.764,0.305-1.061,0.016c-2.644-2.57-6.914-2.538-9.521,0.069c-0.146,0.146-0.338,0.22-0.53,0.22  s-0.384-0.073-0.53-0.22c-0.293-0.293-0.293-0.768,0-1.061c3.183-3.184,8.397-3.222,11.626-0.085  C53.55,17.117,53.557,17.591,53.269,17.888z"></path>
</svg>