<svg version="1.1" id="Layer_1" data-name="Layer 1" viewBox="0 0 70 70" width="62" height="62">
<g>
<path d="M56.05,26.84c1.58-4.11.36-9.24-.85-11.69a.75.75,0,0,0-.35-.34h0c-2.44-1.21-7.57-2.43-11.69-.85C32.59,18,22.52,29.75,22.1,30.25a.77.77,0,0,0,0,1l5.79,5.79c.36.36.26,1.07,0,1.71a.76.76,0,0,0-1,.06l-2.44,2.44-.72-.72a.76.76,0,0,0-1.08,0l-8.13,8.13a4.76,4.76,0,1,0,6.73,6.73l8.13-8.13a.76.76,0,0,0,0-1.08l-.72-.72L31.16,43a.76.76,0,0,0,.07-1c.63-.22,1.35-.32,1.71,0l5.79,5.79a.77.77,0,0,0,1,0c.5-.42,12.23-10.49,16.29-21.07ZM15.67,54.32a3.23,3.23,0,0,1,0-4.56L21.41,44,26,48.58l-5.74,5.74a3.23,3.23,0,0,1-4.56,0Zm12.15-7.59-.76.76-4.56-4.56.76-.76ZM25.6,42.35l1.9-1.9,2,2-1.9,1.9Zm4.47-1.49-.92-.92a4.15,4.15,0,0,0,.31-3.3C31,35.29,34,33.09,36,34c.93,1.94-1.27,5-2.62,6.52a4.15,4.15,0,0,0-3.3.31Zm9.23,5.42-4.76-4.76c1.3-1.47,4.43-5.5,2.66-8.46h0a.75.75,0,0,0-.26-.27c-3-1.77-7,1.36-8.46,2.66l-4.76-4.76c2.11-2.35,11-11.88,20-15.32,3.5-1.34,8-.33,10.23.68,1,2.22,2,6.73.68,10.23-3.44,9-13,17.87-15.32,20Zm0,0"></path>
</g>
</svg>