<svg version="1.1" xml:space="preserve" width="62" height="62" viewBox="0 0 500 500">
  <g id="gop">
    <path class="fil1" d="M319 257c-7,-1 -15,4 -23,14 -12,-27 -41,-54 -61,-54 -3,0 -5,1 -8,2 -15,7 -18,38 -12,63 7,32 23,51 45,51l0 0c4,0 8,-1 13,-3 -1,14 2,26 8,34 6,7 15,12 27,13 1,0 3,0 5,0 12,0 22,-5 29,-14 15,-21 12,-58 1,-83 -7,-14 -15,-22 -24,-23zm-29 23l0 0c1,2 1,4 2,6 3,15 -2,27 -17,34l-41 -94c0,0 0,0 1,0 17,0 47,27 55,54zm-31 45c-20,0 -32,-23 -36,-44 -5,-23 -3,-45 5,-52l42 94c-4,1 -7,2 -11,2l0 0zm28 34c-7,-9 -7,-22 -6,-32 16,-9 23,-24 19,-43 0,-2 -1,-3 -1,-4 5,-7 10,-12 15,-14l-12 102c-6,-2 -11,-5 -15,-9zm48 -1c-6,8 -15,12 -27,11l0 0 12 -103c5,1 10,8 15,17 10,23 13,58 0,75z"></path>
    <path class="fil1" d="M379 172c-8,-8 -21,-13 -39,-13 -32,0 -71,16 -72,36 0,5 2,11 8,16 13,15 44,26 68,26l0 0c28,0 44,-14 45,-37 0,-12 -3,-21 -10,-28zm-39 -5c11,0 25,2 33,11 5,4 7,10 7,17l-103 -2c3,-11 33,-26 63,-26zm4 61l0 0c-22,0 -50,-10 -62,-23 -2,-2 -3,-4 -5,-6l103 2c-1,22 -20,27 -36,27z"></path>
    <path class="fil1" d="M160 230c3,2 6,3 10,3 22,0 63,-31 72,-62 5,-17 0,-32 -15,-42 -7,-4 -14,-6 -21,-6 -25,0 -43,29 -50,54 -6,20 -8,45 4,53zm74 -61c-8,26 -45,55 -64,55 -2,0 -3,0 -4,-1l60 -84c9,8 11,18 8,30zm-70 11c7,-24 23,-49 42,-49 5,0 10,2 15,5l-59 83c-3,-8 -3,-23 2,-39z"></path>
    <path class="fil1" d="M148 263c-8,0 -17,4 -24,11 -13,11 -16,25 -10,40 11,28 52,53 77,53l0 0c7,0 11,-2 15,-5 8,-7 8,-24 0,-44 -11,-27 -33,-55 -58,-55zm50 58c6,14 7,27 4,33l-72 -75c6,-5 12,-7 18,-7 20,0 40,24 50,49zm-7 38c-21,0 -60,-24 -69,-48 -4,-10 -3,-19 4,-27l71 74c-2,0 -4,1 -6,1l0 0z"></path>
   </g>
</svg>