<svg version="1.1" xml:space="preserve" width="62" height="62" viewBox="0 0 500 500">
  <g id="sd90">
    <path class="fil1" d="M260 309c-2,-1 -4,1 -5,4 -1,9 -6,18 -13,25 -8,6 -18,9 -28,8 -14,-2 -26,-11 -31,-25 0,-2 -3,-3 -5,-2 -3,1 -4,3 -3,6 4,11 12,19 22,25 -9,8 -20,13 -33,13 -26,0 -47,-22 -47,-48 0,-2 0,-4 0,-6 2,0 4,0 6,0 4,0 9,-1 13,-2 2,-1 3,-3 3,-5 -1,-3 -4,-4 -6,-3 -3,1 -7,1 -10,1 -21,0 -38,-17 -38,-37 0,-21 17,-38 38,-38 6,0 11,2 17,4 2,1 5,1 6,-1 1,-3 0,-5 -2,-6 -7,-4 -14,-5 -21,-5 -26,0 -46,20 -46,46 0,20 13,38 32,44 0,3 -1,5 -1,8 0,31 26,56 57,56 16,0 31,-6 41,-18 3,1 5,2 8,2 1,0 3,0 5,0 10,0 20,-4 29,-10 9,-8 15,-19 17,-31 0,-3 -2,-5 -5,-5z"></path>
    <path class="fil1" d="M134 201c1,0 1,0 2,0 2,0 3,-1 4,-2 1,-2 0,-5 -2,-6 -7,-4 -11,-11 -12,-19 -1,-6 0,-13 4,-18 4,-5 10,-8 17,-9 9,-2 18,3 23,10 2,2 4,3 6,1 3,-1 3,-4 2,-6 -5,-6 -11,-11 -17,-13 -1,-1 -1,-2 -1,-3 -2,-12 1,-22 8,-31 7,-9 17,-15 28,-17 19,-2 36,8 43,24 -10,4 -17,12 -20,22 0,2 1,5 3,6 3,0 5,-1 6,-4 2,-7 8,-13 15,-16 13,-4 26,2 31,15 0,2 1,4 1,6 0,2 2,4 4,4l1 0c2,0 4,-2 4,-4 0,-3 -1,-6 -2,-9 -5,-15 -19,-23 -34,-22 -8,-21 -30,-33 -53,-30 -14,2 -26,8 -34,19 -9,11 -12,24 -10,38 0,0 0,0 0,1 -2,0 -4,0 -6,0 -9,1 -16,6 -22,13 -5,7 -8,16 -7,25 2,10 9,20 18,25z"></path>
    <path class="fil1" d="M409 237c9,-7 14,-18 14,-30 0,-16 -10,-30 -25,-35 4,-6 7,-13 7,-20 0,-21 -17,-38 -38,-38 -7,0 -15,3 -21,7 0,-1 -1,-2 -2,-3 -7,-4 -15,-5 -23,-4 -8,2 -15,7 -19,14 -2,2 -1,4 1,6 2,1 5,0 6,-2 4,-5 8,-8 14,-9 5,-2 11,-1 16,2 5,4 8,8 9,14 1,2 1,4 0,7 0,2 2,4 4,5 0,0 0,0 1,0 2,0 4,-2 4,-4 0,-4 0,-7 0,-10 -1,-4 -3,-7 -5,-10 5,-3 10,-4 15,-4 16,0 29,13 29,28 0,7 -3,14 -8,19 -1,0 -1,0 -2,0 -7,0 -14,2 -20,6 -2,1 -2,4 -1,6 1,2 4,2 6,1 4,-3 10,-4 15,-4 16,0 28,13 28,28 0,16 -13,28 -28,28 -4,0 -8,0 -11,-2 -2,-1 -5,0 -6,3 -1,2 0,5 3,5 4,2 9,3 14,3 5,0 10,-1 15,-3 6,7 9,15 10,24 3,24 -14,46 -39,49 -17,2 -33,-7 -42,-21 -2,-3 -4,-3 -6,-2 -2,1 -3,4 -2,6 2,4 6,8 9,11 7,39 -7,73 -17,91 2,-43 -18,-66 -27,-74 -2,-2 -5,-2 -7,0 -1,2 -1,5 1,6 9,9 31,34 22,84 -1,3 0,4 2,5 0,0 1,1 2,1 1,0 2,-1 3,-2 2,-2 37,-45 30,-104 8,5 17,8 27,8 2,0 3,0 5,-1 29,-3 50,-29 47,-58 0,-10 -4,-20 -10,-27z"></path>
    <path class="fil1" d="M217 274c-14,0 -25,-11 -25,-25 0,-3 -2,-5 -4,-5 -3,0 -5,2 -5,5 0,18 15,34 34,34 19,0 34,-16 34,-34l0 -39c0,-18 -15,-34 -34,-34 -19,0 -34,16 -34,34 0,19 15,34 34,34 10,0 19,-4 25,-11l0 16c0,14 -11,25 -25,25zm0 -39c-14,0 -25,-11 -25,-25 0,-13 11,-25 25,-25 14,0 25,12 25,25 0,14 -11,25 -25,25z"></path>
    <path class="fil1" d="M332 249l0 -39c0,0 0,0 0,0 -2,-18 -16,-32 -34,-32 -19,0 -34,15 -34,34l0 39c0,0 0,0 0,0 2,18 16,32 34,32 18,0 34,-15 34,-34zm-59 0l0 -37c0,-14 11,-25 25,-25 14,0 25,11 25,25l0 37c0,14 -11,25 -25,25 -14,0 -25,-11 -25,-25z"></path>
   </g>
</svg>