<svg version="1.1" xml:space="preserve" width="62" height="62" viewBox="0 -4 500 500">
  <g id="mdl">
   <path class="fil1" d="M356 154c-14,-14 -34,-22 -54,-22 -20,0 -38,7 -52,19 -14,-12 -32,-19 -52,-19 -20,0 -40,8 -54,22 -15,15 -23,34 -23,55 0,21 8,40 23,55l103 103c1,1 2,1 3,1 1,0 2,0 3,-1l103 -103c15,-15 23,-34 23,-55 0,-21 -8,-40 -23,-55zm-6 103l-100 100 -100 -100c-13,-12 -20,-30 -20,-48 0,-18 7,-35 20,-49 13,-12 30,-20 49,-20 18,0 35,8 48,21 2,1 5,1 7,0 13,-13 30,-21 48,-21 18,0 36,8 49,21 12,12 20,30 20,48 -1,18 -8,36 -21,48z"></path>
  </g>
</svg>