<?xml version="1.0" encoding="UTF-8" standalone="no"?>
<svg
   xmlns:dc="http://purl.org/dc/elements/1.1/"
   xmlns:cc="http://creativecommons.org/ns#"
   xmlns:rdf="http://www.w3.org/1999/02/22-rdf-syntax-ns#"
   xmlns:svg="http://www.w3.org/2000/svg"
   xmlns="http://www.w3.org/2000/svg"
   xmlns:sodipodi="http://sodipodi.sourceforge.net/DTD/sodipodi-0.dtd"
   xmlns:inkscape="http://www.inkscape.org/namespaces/inkscape"
   version="1.1"
   xml:space="preserve"
   width="62"
   height="62"
   viewBox="0 0 500 500"
   id="svg11"
   sodipodi:docname="Нафталин FM.svg"
   inkscape:version="0.92.4 (5da689c313, 2019-01-14)"><metadata
   id="metadata17"><rdf:RDF><cc:Work
       rdf:about=""><dc:format>image/svg+xml</dc:format><dc:type
         rdf:resource="http://purl.org/dc/dcmitype/StillImage" /></cc:Work></rdf:RDF></metadata><defs
   id="defs15" /><sodipodi:namedview
   pagecolor="#ffffff"
   bordercolor="#666666"
   borderopacity="1"
   objecttolerance="10"
   gridtolerance="10"
   guidetolerance="10"
   inkscape:pageopacity="0"
   inkscape:pageshadow="2"
   inkscape:window-width="784"
   inkscape:window-height="480"
   id="namedview13"
   showgrid="false"
   inkscape:zoom="3.8064516"
   inkscape:cx="31"
   inkscape:cy="31"
   inkscape:window-x="52"
   inkscape:window-y="27"
   inkscape:window-maximized="0"
   inkscape:current-layer="brks" />
  <g
   id="brks">
    
    
    <path
   class="fil1"
   d="M414 293c0,-22 -12,-41 -30,-52l0 -14c0,-14 -11,-24 -25,-24l-1 0 0 -37c0,-10 -8,-19 -19,-19l-178 0c-10,0 -19,9 -19,19l0 36 -1 0c-14,0 -25,11 -25,25l0 14c-18,10 -30,30 -30,52 0,31 23,56 53,60 1,0 1,0 2,0l218 0c1,0 1,0 2,0 30,-4 53,-29 53,-60zm-263 -127c0,-6 5,-11 11,-11l177 0c6,0 11,5 11,11l0 36 -38 0 0 0 -161 0 0 -36 0 0zm150 45l-24 23 -54 0 -24 -23 102 0zm-206 82c0,-28 23,-51 51,-51 29,0 52,23 52,51 0,29 -23,52 -52,52 -28,0 -51,-24 -51,-52zm82 52c18,-11 29,-30 29,-52 0,-33 -27,-60 -60,-60 -7,0 -14,2 -21,4l0 -10c0,-9 7,-16 16,-16l45 0 32 30c1,1 2,2 3,2l58 0c1,0 2,-1 3,-2l32 -30 45 0c9,0 16,7 16,16l0 10c-7,-2 -14,-4 -21,-4 -33,0 -60,27 -60,60 0,22 11,41 29,52l-146 0zm177 0c-29,0 -52,-23 -52,-52 0,-28 23,-51 52,-51 28,0 51,23 51,51 0,29 -23,52 -51,52z"
   id="path6" />
    
   </g>
</svg>